<svg width="3702" height="1745" viewBox="0 0 3702 1745" fill="none" xmlns="http://www.w3.org/2000/svg">
<path d="M2934.63 60.1157C2803.9 87.3977 2654.98 123.775 2604.97 140.827C2477.65 184.025 2241.19 298.84 2010.43 428.434C1830.82 529.607 1282.88 879.737 1095.32 1015.01C1052.12 1045.71 987.321 1079.81 947.534 1092.32C867.959 1117.32 725.864 1121.87 672.434 1101.41C634.914 1087.77 598.544 1058.21 598.544 1043.43C598.544 1037.75 650.834 1007.06 713.354 975.227C861.138 901.336 924.798 839.949 965.723 731.955C1029.38 560.301 1039.61 451.169 983.911 517.103C953.218 554.617 879.327 580.763 772.474 590.994C651.974 602.362 587.174 626.234 533.744 678.526L498.504 714.903L473.494 663.748C426.884 568.258 350.724 518.24 197.254 482.999C179.064 478.452 142.694 452.306 114.274 425.023C86.9838 396.604 58.5638 373.868 51.7438 373.868C16.5038 373.868 -0.546242 534.155 23.3238 644.423C58.5638 811.53 151.784 930.892 315.484 1016.15C362.094 1040.02 401.874 1060.49 403.014 1062.76C405.284 1063.9 412.104 1104.82 417.794 1152.56C433.704 1282.16 466.674 1357.19 537.154 1428.8C674.704 1566.35 794.064 1589.09 1426.12 1598.18C1664.84 1601.59 1860.37 1607.28 1860.37 1610.69C1860.37 1615.24 1841.05 1636.83 1818.31 1660.71C1756.92 1723.23 1771.7 1732.32 1949.04 1732.32C2111.6 1732.32 2161.62 1719.82 2301.44 1645.93L2385.57 1601.59H2523.12C2792.53 1600.46 2942.59 1574.31 3097.19 1498.15C3348.42 1375.37 3570.09 1049.12 3663.31 664.885C3698.55 515.966 3698.55 422.75 3662.17 306.798C3612.15 148.785 3485.97 46.4737 3309.77 21.4647C3198.36 5.54967 3200.64 5.55067 2934.63 60.1157ZM3383.66 110.134C3442.77 132.87 3520.07 178.341 3520.07 190.846C3520.07 195.393 3462.1 191.983 3392.75 184.025C3167.67 156.742 2858.46 182.888 2599.28 249.959C2431.04 294.293 2407.16 298.84 2427.63 285.199C2435.58 279.515 2494.7 257.916 2558.36 237.454C2620.88 216.992 2683.4 196.53 2695.91 191.983C2708.41 186.299 2728.87 179.478 2741.38 174.931C2777.76 163.563 2975.55 123.775 3031.26 116.955C3059.68 113.544 3100.6 106.724 3122.2 101.04C3194.95 83.9877 3329.09 88.5347 3383.66 110.134ZM309.794 588.72C376.864 629.644 481.454 792.204 451.894 810.393C443.934 816.077 279.104 626.234 254.094 583.036C241.594 560.301 267.734 562.574 309.794 588.72ZM3412.08 1143.47C3218.82 1442.44 2986.92 1556.12 2567.45 1556.12H2451.5L2518.57 1475.41C2586.78 1394.7 2664.08 1259.42 2690.22 1175.3C2698.18 1150.29 2706.14 1126.42 2708.41 1121.87C2711.82 1118.46 2875.52 1113.91 3072.18 1112.78L3432.54 1111.64L3412.08 1143.47ZM2193.45 1216.22C2191.18 1232.14 2165.03 1275.34 2137.75 1311.71C2110.46 1349.23 2079.77 1407.2 2069.54 1442.44C2045.67 1525.43 2011.56 1578.86 1983.14 1578.86C1966.09 1578.86 1962.68 1574.31 1968.37 1558.4C1972.91 1548.17 1985.42 1506.1 1996.79 1465.18C2022.93 1366.28 2043.39 1327.63 2117.28 1248.05C2151.39 1211.68 2178.67 1175.3 2178.67 1167.34C2179.81 1157.11 2183.22 1158.25 2188.9 1169.62C2194.59 1178.71 2196.86 1200.31 2193.45 1216.22ZM1988.83 1288.98C1971.78 1310.58 1938.81 1381.06 1917.21 1444.72L1877.42 1560.67H1748.97C1679.62 1561.81 1621.65 1557.26 1621.65 1551.58C1621.65 1533.39 1688.72 1458.36 1751.24 1408.34C1806.94 1362.87 1987.69 1253.74 2011.56 1250.33C2016.11 1249.19 2005.88 1267.38 1988.83 1288.98Z" fill="#0FA2FF" stroke="#00FFFE" stroke-width="23.49" stroke-linecap="square"/>
</svg>
