<svg width="3294" height="1555" viewBox="0 0 3294 1555" fill="none" xmlns="http://www.w3.org/2000/svg">
<path d="M2610.07 55.5279C2493.89 79.7729 2361.55 112.101 2317.1 127.254C2203.95 165.643 1993.82 267.677 1788.75 382.844C1629.13 472.754 1142.2 783.906 975.508 904.123C937.119 931.399 879.535 961.706 844.178 972.819C773.461 995.044 647.185 999.085 599.708 980.901C566.358 968.778 534.038 942.512 534.038 929.379C534.038 924.328 580.508 897.052 636.068 868.765C767.4 803.1 823.973 748.547 860.342 652.575C916.915 500.031 926.007 403.048 876.505 461.642C849.229 494.979 783.564 518.215 688.606 527.307C581.518 537.409 523.938 558.624 476.448 605.094L445.138 637.422L422.908 591.961C381.488 507.102 313.808 462.652 177.418 431.334C161.258 427.293 128.938 404.058 103.678 379.812C79.4281 354.557 54.1682 334.352 48.1082 334.352C16.7982 334.352 1.63816 476.795 22.8582 574.788C54.1682 723.292 137.018 829.366 282.488 905.133C323.908 926.349 359.258 944.533 360.278 946.553C362.298 947.563 368.358 983.931 373.408 1026.36C387.548 1141.53 416.848 1208.2 479.488 1271.85C601.718 1394.09 707.793 1414.29 1269.49 1422.37C1481.64 1425.4 1655.39 1430.45 1655.39 1433.48C1655.39 1437.53 1638.22 1456.72 1618.02 1477.93C1563.46 1533.5 1576.6 1541.58 1734.19 1541.58C1878.66 1541.58 1923.11 1530.47 2047.37 1464.8L2122.12 1425.4H2244.36C2483.79 1424.39 2617.14 1401.16 2754.53 1333.47C2977.79 1224.37 3174.78 934.43 3257.63 592.972C3288.94 460.631 3288.94 377.792 3256.61 274.749C3212.16 134.326 3100.03 43.405 2943.44 21.18C2844.44 7.03697 2846.46 7.03693 2610.07 55.5279ZM3009.11 99.978C3061.64 120.183 3130.33 160.592 3130.33 171.705C3130.33 175.746 3078.82 172.715 3017.19 165.643C2817.16 141.398 2542.38 164.633 2312.05 224.237C2162.53 263.636 2141.32 267.677 2159.5 255.554C2166.57 250.503 2219.1 231.308 2275.68 213.124C2331.24 194.94 2386.8 176.756 2397.92 172.715C2409.03 167.664 2427.21 161.602 2438.33 157.562C2470.65 147.459 2646.43 112.101 2695.94 106.04C2721.2 103.009 2757.56 96.948 2776.76 91.897C2841.41 76.743 2960.61 80.784 3009.11 99.978ZM277.438 525.286C337.038 561.654 429.988 706.118 403.718 722.281C396.638 727.332 250.158 558.624 227.938 520.235C216.828 500.031 240.058 502.051 277.438 525.286ZM3034.37 1018.28C2862.62 1283.97 2656.54 1384.99 2283.76 1384.99H2180.72L2240.32 1313.27C2300.93 1241.54 2369.63 1121.32 2392.86 1046.57C2399.94 1024.34 2407.01 1003.13 2409.03 999.085C2412.06 996.055 2557.54 992.014 2732.3 991.003L3052.55 989.993L3034.37 1018.28ZM1951.39 1082.93C1949.37 1097.08 1926.14 1135.47 1901.89 1167.79C1877.65 1201.13 1850.37 1252.65 1841.28 1283.97C1820.06 1357.72 1789.76 1405.2 1764.5 1405.2C1749.35 1405.2 1746.32 1401.16 1751.37 1387.01C1755.41 1377.92 1766.52 1340.54 1776.62 1304.17C1799.86 1216.28 1818.04 1181.94 1883.71 1111.22C1914.01 1078.89 1938.26 1046.57 1938.26 1039.49C1939.27 1030.4 1942.3 1031.41 1947.35 1041.52C1952.4 1049.6 1954.42 1068.79 1951.39 1082.93ZM1769.55 1147.59C1754.4 1166.78 1725.1 1229.42 1705.91 1285.99L1670.55 1389.03H1556.39C1494.77 1390.04 1443.25 1386 1443.25 1380.95C1443.25 1364.79 1502.85 1298.11 1558.41 1253.66C1607.91 1213.25 1768.54 1116.27 1789.76 1113.24C1793.8 1112.23 1784.7 1128.39 1769.55 1147.59Z" fill="#0EA2FF" stroke="#00FF34" stroke-width="24.87" stroke-linecap="square"/>
<path d="M2591.45 686.402C2587.93 687.803 2587.04 692.893 2589.77 695.468C2592.36 698.152 2597.42 697.216 2598.75 693.695C2601.05 689.377 2595.77 684.148 2591.45 686.402ZM2544.96 691.414C2541.31 692.387 2540.9 698.144 2544.44 699.517C2547.12 700.994 2550.92 698.707 2550.64 695.6C2550.9 692.738 2547.58 690.333 2544.96 691.414ZM2640.18 699.604C2642.98 700.321 2645.06 698.05 2645.7 695.57C2645.25 692.666 2642.44 689.864 2639.38 691.358C2635.43 692.657 2636.07 699.109 2640.18 699.604ZM2555.53 711.202C2551.43 713.304 2550.86 719.576 2554.59 722.31C2558.45 725.791 2565.28 722.808 2565.51 717.659C2566.19 712.56 2559.92 708.425 2555.53 711.202ZM2622.55 714.148C2620.1 719.069 2625.05 724.691 2630.24 723.72C2634.17 722.42 2636.87 717.685 2634.68 713.861C2632.45 708.948 2624.51 709.1 2622.55 714.148ZM2585.85 723.433C2585.62 726.978 2588.15 729.874 2591.15 731.351C2593.12 731.469 2595.26 731.848 2597.07 730.836C2601.02 729.089 2602.96 723.847 2600.78 720.04C2599.6 717.28 2596.62 716.115 2593.88 715.567C2589.76 715.862 2585.81 719.095 2585.85 723.433ZM2516.71 729.755C2513.21 731.367 2512.72 736.787 2515.81 739.041C2518.71 741.446 2523.77 739.913 2524.61 736.145C2526.13 731.789 2520.72 727.29 2516.71 729.755ZM2665.18 729.747C2661.69 731.891 2662.07 737.614 2665.79 739.286C2669.17 741.303 2674.02 738.349 2673.79 734.432C2674.2 730.136 2668.58 727.105 2665.18 729.747ZM2605.29 737.546C2598.3 739.673 2594.15 748.166 2597 754.952C2599.51 762.532 2609.41 766.052 2616.2 761.899C2622.75 758.388 2625 749.068 2620.78 742.949C2617.58 737.943 2610.91 735.529 2605.29 737.546ZM2572.36 738.214C2565.72 741.176 2562.67 749.913 2566.11 756.346C2569.17 762.998 2578.1 765.724 2584.43 762.128C2590.76 758.929 2593.49 750.302 2589.95 744.106C2586.95 737.741 2578.58 735.276 2572.36 738.214ZM2539.37 749.491C2538.45 754.209 2542.66 758.987 2547.46 758.573C2551.83 758.598 2555.01 754.572 2555.28 750.452C2554.83 746.292 2551.55 743.099 2547.44 742.603C2543.63 742.872 2539.84 745.481 2539.37 749.491ZM2636.79 743.474C2631.5 745.97 2631.11 754.226 2636.2 757.157C2641.11 760.677 2648.69 756.448 2648.36 750.447C2648.57 744.782 2641.73 740.605 2636.79 743.474ZM2558.95 764.626C2551.13 766.516 2546.54 776.139 2550.32 783.319C2553.61 791.152 2564.98 793.457 2571.16 787.717C2575.96 783.804 2577.23 776.393 2574.13 771.058C2571.31 765.757 2564.71 763.039 2558.95 764.626ZM2621.43 764.596C2613.56 766.753 2609.38 776.747 2613.53 783.818C2616.95 790.654 2626.57 792.95 2632.79 788.578C2638.71 784.813 2640.62 776.101 2636.63 770.26C2633.62 765.153 2627.04 762.993 2621.43 764.596ZM2521.86 771.26C2517.08 772.611 2515.66 779.541 2519.49 782.656C2522.77 785.973 2529.11 784.31 2530.34 779.811C2532.36 774.873 2526.84 769.376 2521.86 771.26ZM2656.87 778.427C2657.7 780.351 2658.7 782.36 2660.66 783.356C2664.84 785.661 2670.75 782.327 2670.44 777.422C2670.71 773.708 2667.39 770.957 2663.98 770.416C2659.75 770.644 2656.73 774.299 2656.87 778.427ZM2497.37 773.683C2494.89 774.81 2493.81 778.182 2495.62 780.368C2497.66 783.517 2503.23 782.068 2503.39 778.3C2504.07 774.972 2500.36 772.375 2497.37 773.683ZM2686.32 773.607C2682.8 775.48 2684.18 781.964 2688.44 781.576C2691.47 782.031 2694.07 778.342 2692.65 775.65C2691.81 773.185 2688.43 772.105 2686.32 773.607ZM2575.23 791.696C2569.33 792.971 2564.78 798.576 2564.79 804.606C2564.6 810.911 2569.49 816.921 2575.73 817.925C2583.8 819.82 2592.15 812.545 2591.63 804.34C2591.59 796.221 2583.11 789.645 2575.23 791.696ZM2606.45 791.679C2601.71 792.858 2597.69 796.769 2596.64 801.578C2594.56 808.795 2600.06 816.966 2607.49 817.928C2615.39 819.526 2623.48 812.495 2623.06 804.442C2623.19 796.135 2614.45 789.442 2606.45 791.679ZM2546.24 796.677C2540.26 797.284 2537.09 805.32 2541.32 809.716C2544.93 814.293 2553.09 812.773 2554.72 807.169C2556.97 801.911 2551.78 795.732 2546.24 796.677ZM2637.82 796.924C2631.85 798.821 2630.86 807.92 2636.33 811.012C2641.16 814.456 2648.64 810.387 2648.44 804.487C2648.83 799.127 2642.77 794.855 2637.82 796.924ZM2663.42 822.599C2664.73 826.245 2670.18 827.115 2672.59 824.068C2674.37 822.422 2673.92 819.873 2673.67 817.737C2672.39 816.42 2670.99 814.85 2669 814.884C2665 814.217 2661.49 818.994 2663.42 822.599ZM2516.69 815.888C2513.13 817.703 2513 823.375 2516.45 825.368C2519.65 827.562 2524.53 825.352 2524.97 821.484C2525.82 817.111 2520.43 813.398 2516.69 815.888ZM2590.59 823.983C2584.69 825.873 2583.8 834.914 2589.12 837.987C2593.91 841.566 2601.62 837.439 2601.26 831.479C2601.73 826.086 2595.49 821.823 2590.59 823.983ZM2556.36 831.968C2553.43 833.066 2552.23 836.307 2552.17 839.218C2553.18 841.888 2555.22 844.697 2558.35 844.764C2562.14 845.33 2565.88 842.064 2565.75 838.231C2566.13 833.564 2560.54 829.774 2556.36 831.968ZM2625.69 832.035C2621.5 834.171 2621.03 840.629 2624.89 843.315C2628.89 846.742 2635.78 843.401 2635.67 838.184C2636.07 833.192 2629.98 829.385 2625.69 832.035ZM2637.74 861.841C2639.71 865.193 2645.42 863.994 2645.79 860.086C2646.31 857.198 2643.67 855.325 2641.18 854.818C2638.08 855.477 2635.84 858.954 2637.74 861.841ZM2542.04 859.334C2542.32 862.617 2545.9 865.47 2548.99 863.387C2552.43 861.563 2551.27 855.646 2547.34 855.368C2544.65 854.773 2542.81 857.046 2542.04 859.334ZM2588.22 861.959C2586.84 865.378 2590.14 869.511 2593.8 869.083C2595.76 869.134 2597.28 867.732 2598.47 866.331C2598.7 865.386 2598.93 864.44 2599.19 863.495C2598.71 861.68 2598.15 859.545 2596.23 858.726C2593.35 856.928 2588.97 858.575 2588.22 861.959Z" fill="#E200FF"/>
</svg>
