<svg width="1179" height="1515" viewBox="0 0 1179 1515" fill="none" xmlns="http://www.w3.org/2000/svg">
<path d="M0 757.5V1515H1179V0H0V757.5ZM183.9 144.7C288 200.3 380.7 296.9 433.5 404.5C489.8 519.3 489.9 624.3 433.7 700.3C418.7 720.6 404.5 733.7 371.1 758C324.3 792.2 289.8 818.9 263 841.9C194.9 900.1 156.9 945.2 138.9 989.5C137.1 993.9 135.2 997.9 134.7 998.5C133.5 999.7 134.5 978.7 136.5 960C142.6 904 162.9 825.2 195.1 733.5C207.9 696.9 208.5 695.3 211.3 687.8L213.9 681L204.9 690.5C197.2 698.5 183.6 710 181.7 710C181.4 710 183.6 705.2 186.6 699.4C201.9 669.3 205 638.9 195.9 609.4C194.8 605.8 194 602.6 194.2 602.4C194.4 602.3 196.4 602.7 198.5 603.5C214.1 609 239.8 598.9 249.8 583.3C253.5 577.5 262.7 554.2 267.4 538.7C279.3 499.4 281.7 452.6 274.4 402C263.6 326.7 227.8 232.8 179.4 152.3C175.3 145.5 172 139.8 172 139.5C172 138.5 173.5 139.1 183.9 144.7ZM747 197.3C785.9 202.6 814.1 210 844.5 222.9C905.6 248.8 956.6 297.1 987 357.8C1032.1 447.7 1030.1 545.3 981.5 625.5C960.1 660.8 928 693.5 892.8 716C886.3 720.1 881.1 723.7 881 724C881 724.3 884.4 726.3 888.7 728.4C898.5 733.5 915.9 745.1 928 754.7C940.5 764.7 967.6 791.9 977.8 804.7C1013 849.2 1034.5 899.1 1040.5 950.9C1042.5 967.4 1042.4 1001 1040.5 1019.8C1035.1 1071.6 1017.2 1120.2 988.3 1161.7C958.1 1205.2 915.6 1241.3 865.1 1266.5C831.2 1283.4 798.5 1293.8 759.5 1300.2L745.5 1302.4L555 1302.7C450.2 1302.9 353.8 1302.9 340.6 1302.8L316.8 1302.5L325.2 1291.2C351.1 1256.7 388.3 1220.4 424.9 1193.7C450.1 1175.3 463 1168.1 537.5 1131L609.5 1095.2L618 1096.2C628.2 1097.4 647.2 1096.6 659.5 1094.5C701.4 1087.3 737.5 1064.2 760 1030.3C768.4 1017.6 774.2 1004.4 778.2 989.2C781.1 978.3 781.3 976.3 781.4 959.5C781.5 945.6 781.1 939.6 779.7 933.2C771.9 897.9 752.3 868.6 721.7 846.7C717.4 843.6 711.7 839.9 709.2 838.5L704.5 835.9L704.4 818.2C704.3 798.9 703.2 787.2 699.4 765C693.1 728.2 679.7 684.7 667 660.2C664.3 654.9 662.4 650.2 662.8 649.9C663.2 649.5 666.6 648.7 670.3 648.1C691.7 644.4 714.6 632.7 732 616.4C782.8 568.5 784.7 487.6 736 437.9C719.1 420.7 700.1 409.8 675.5 403.3L665.5 400.6L604.4 400.2L543.2 399.9L539.4 390.7C537.4 385.6 532.2 374.7 528 366.5C499 309.7 454 255.1 396.5 207C390.5 201.9 384.8 197.1 384 196.4C382.7 195.1 405.5 195 558.5 195.3C716.6 195.6 735.8 195.8 747 197.3ZM538.4 594.7C556.9 622.6 568.5 652.2 572 680.3C573.8 694.7 572.8 721.8 570 734.9C556.2 799.8 504.7 860.7 424.8 906.9C410.1 915.3 386.1 927.2 364 936.9C353.8 941.3 339.7 948.2 332.5 952.1C251.2 996.3 196.7 1069.5 175.5 1163C172.3 1177.3 172.2 1177.5 171.2 1173.5C169.3 1166.8 167.1 1152.5 165.9 1140.2C164.5 1125.5 165.3 1090.2 167.4 1076.2C178.9 999.8 218.7 936.3 280.4 895.5C286.6 891.5 303.1 882.1 317.1 874.7C391.4 835.6 433 807.2 469 771.1C505 735 523.2 699.3 529.1 653.5C530.5 642.5 530.8 616.7 529.7 596.7C529.2 588.6 529.1 582 529.4 582C529.7 582 533.7 587.7 538.4 594.7ZM611.4 787.8C624.4 829 619.8 876.1 598.8 918.5C569 978.4 505.5 1032 415 1073.5C352.2 1102.4 318.7 1124.7 291.2 1156C276.4 1172.9 261.1 1198.8 250.9 1224.3C245.1 1238.7 236.1 1265.5 230.4 1285.7C227.7 1295.2 225.3 1302.4 224.9 1301.7C223.8 1299.8 215.3 1261.6 213 1249C206.1 1209.5 206.3 1177.7 213.9 1147.9C227 1095.8 262.8 1052.6 322.1 1017C329.4 1012.6 352.5 1000.4 373.4 989.8C394.4 979.3 424.3 964.1 440 956C533.7 907.6 551.5 889.9 595.9 801.2C602 788.9 607.5 779.2 608 779.5C608.5 779.8 610 783.6 611.4 787.8Z" fill="#FFFF22"/>
</svg>
