<svg width="1963" height="2514" viewBox="0 0 1963 2514" fill="none" xmlns="http://www.w3.org/2000/svg">
<path d="M171.947 1172.48C143.748 1248.59 117.508 1324.51 93.2272 1400.23C59.8072 1504.42 30.3852 1611.76 12.7352 1719.89C6.37024 1758.83 2.17224 1799.11 0.141244 1840.73C-0.060756 1844.94 -0.0457872 1849.19 0.184213 1853.5C0.515213 1859.46 1.73221 1859.65 3.83521 1854.06C28.1812 1789.45 65.8782 1732.61 110.984 1680.63C176.159 1605.52 254.944 1536.11 333.772 1472.88C394.951 1423.8 460.09 1374.62 529.19 1325.34C560.398 1303.07 586.494 1281.15 607.478 1259.58C683.26 1181.63 726.321 1086.68 736.661 974.703C738.937 949.99 739.563 926.544 738.541 904.365C735.401 836.734 722.346 768.513 699.375 699.702C655.327 567.731 583.045 444.812 494.993 336.734C412.427 235.385 321.07 150.115 220.92 80.9147C175.036 49.2047 129.807 22.4246 85.2342 0.574585C84.3412 0.124585 83.3902 -0.0553511 82.3822 0.0146489C81.3742 0.104649 81.1362 0.564673 81.6692 1.41467C142.114 98.4247 192.635 200.125 233.233 306.512C272.723 410.075 301.239 518.326 310.355 627.722C310.888 634.087 311.277 640.525 311.521 647.034C312.105 662.761 313.66 678.445 313.163 693.955C312.573 711.785 311.572 729.6 310.16 747.4C306.33 795.56 296.896 841.091 281.861 883.994C277.828 895.472 271.917 911.386 264.125 931.736C259.056 944.942 253.886 955.189 248.615 962.476C229.863 988.421 199.058 1003.8 167.345 1006.57C154.989 1007.63 143.071 1005.63 131.593 1000.56C129.519 999.654 128.871 1000.27 129.649 1002.4C149.149 1056.23 150.323 1110.1 133.17 1164.01C125.566 1187.9 115.348 1209.24 102.883 1230.89C101.241 1233.75 101.832 1234.34 104.655 1232.64C130.016 1217.3 152.224 1195.05 170.759 1171.81C172.544 1169.54 172.94 1169.77 171.947 1172.48Z" fill="#8A0002"/>
<path d="M1613.84 1262.61C1613.81 1261.83 1614.13 1261.24 1614.79 1260.86C1668.06 1229.59 1715.46 1191.7 1757 1147.18C1832.97 1065.8 1881.72 971.337 1903.25 863.799C1909.57 832.23 1913.03 796.672 1913.64 757.125C1913.92 739.497 1912.32 722.28 1910.9 704.501C1908.22 670.801 1902.23 636.683 1892.94 602.148C1863.97 494.336 1812.99 401.243 1740 322.869C1635.63 210.835 1491.63 146.285 1342.23 126.955C1303.96 122.015 1261.87 119.555 1215.96 119.565C990.126 119.685 764.796 119.675 539.97 119.545C538.573 119.545 538.206 120.155 538.868 121.385C539.171 121.925 539.567 122.405 540.056 122.805C578.063 153.365 613.145 184.245 645.304 215.435C683.887 252.885 721.036 294.699 756.752 340.885C809.16 408.696 852.215 481.929 883.711 560.606C884.116 561.61 885.091 562.269 886.174 562.269C956.57 562.485 1027.3 562.485 1098.36 562.269C1115.61 562.212 1129.76 562.845 1140.8 564.17C1158.4 566.273 1175.49 570.154 1192.07 575.814C1256.31 597.777 1305.83 637.972 1340.61 696.4C1363.12 734.205 1375.78 778.425 1377.22 821.76C1379.23 881.787 1363.67 936.319 1330.56 985.357C1287.05 1049.78 1219.07 1090.39 1142.17 1101.28C1140.37 1101.54 1139.93 1102.45 1140.87 1104.02C1152.82 1124.07 1163.48 1146.56 1172.84 1171.49C1204.32 1255.28 1226.09 1345.73 1232.27 1432.94C1233.65 1452.46 1234.06 1472.04 1233.5 1491.68C1233.42 1494.99 1233.02 1498.36 1232.31 1501.79C1232.09 1502.92 1232.63 1504.07 1233.63 1504.62C1286.53 1533.38 1327.86 1571.86 1357.63 1620.06C1422.48 1725.1 1412.39 1855.51 1333.54 1950.17C1294.26 1997.34 1244.58 2030.87 1184.51 2050.78C1136.02 2066.83 1084.96 2071.51 1031.34 2064.8C1028.78 2064.48 1026.41 2064.87 1024.24 2065.96C1001.88 2077.28 979.526 2088.32 957.16 2099.08C894.988 2129 833.291 2160.11 770.384 2191.24C685.658 2233.18 608.962 2285.75 540.294 2348.94C485.92 2398.95 437.228 2452.11 395.772 2511.69C395.58 2511.96 395.556 2512.32 395.71 2512.62C395.864 2512.93 396.171 2513.11 396.507 2513.11C682.137 2513.1 967.882 2513.11 1253.74 2513.13C1272.05 2513.13 1286.45 2512.82 1296.95 2512.2C1346.94 2509.25 1396.45 2500.77 1445.49 2486.76C1594.22 2444.26 1730.17 2358.16 1824.61 2236.95C1903.52 2135.69 1948.67 2018.86 1960.06 1886.45C1962.27 1860.8 1962.73 1828.26 1961.47 1788.84C1960.99 1773.98 1959.8 1759.29 1957.9 1744.78C1937.27 1587.62 1852.37 1447.24 1733.24 1343.42C1697.66 1312.4 1657.39 1283.82 1614.77 1264.03C1614.21 1263.76 1613.85 1263.21 1613.84 1262.61Z" fill="#3D4ECB"/>
<path d="M821.03 1229.1C783.354 1311.89 716.365 1379.09 644.514 1434.42C561.236 1498.49 468.345 1551.5 372.148 1600.09C361.736 1605.34 351.806 1610.79 342.358 1616.42C219.223 1689.72 136.046 1794.54 92.8264 1930.87C82.7744 1962.59 75.2344 1998.5 70.2084 2038.58C66.3204 2069.6 66.2555 2102.8 67.0545 2134.21C67.7315 2161.36 71.2594 2190.9 77.6394 2222.83C78.8644 2228.9 80.2615 2234.48 81.8305 2239.55C82.4785 2241.63 83.0115 2241.6 83.4295 2239.46C94.1225 2184.55 109.655 2131.53 131.711 2080.01C160.514 2012.75 199.154 1951.82 247.631 1897.21C302.674 1835.21 370.766 1784.36 445.316 1746.29C476.403 1730.41 508.007 1717.86 539.569 1703.37C648.856 1653.16 749.374 1587.12 828.893 1498.62C893.464 1426.77 945.137 1332 948.161 1233.96C948.961 1208.02 948.918 1182.44 944.835 1157.08C932.996 1083.65 899.858 1015.82 854.816 956.414C853.894 955.204 853.39 955.363 853.304 956.889C853.131 959.885 853.131 962.888 853.304 965.898C854.384 984.188 855.551 1003.63 856.804 1024.22C858.424 1050.56 856.674 1076.01 854.254 1102.43C850.164 1147.19 839.089 1189.41 821.03 1229.1Z" fill="#6D22A5"/>
<path d="M264.73 2313.56C290.638 2256.5 323.986 2208.17 364.771 2168.57C438.112 2097.35 530.334 2052.8 623.614 2009.94C665.451 1990.71 709.053 1966.87 754.418 1938.41C869.301 1866.33 976.45 1766.89 1023.24 1637.27C1051.95 1557.78 1055.41 1468.73 1026.65 1388.63C1025.95 1386.67 1025.01 1384.81 1023.85 1383.05C1022.41 1380.88 1021.12 1380.97 1020 1383.33C991.96 1442.72 962.71 1501.35 927.606 1556.18C900.963 1597.81 869.351 1632.93 832.771 1661.53C790.149 1694.87 743.984 1720.92 693.888 1746.89C627.121 1781.51 554.277 1818.5 475.355 1857.86C381.902 1904.46 291.56 1963.91 230.727 2050.45C188.674 2110.27 165.17 2176.67 160.216 2249.64C157.912 2283.56 158.992 2318.63 163.456 2354.87C169.98 2407.92 182.769 2458.99 194.78 2509.41C195.947 2514.26 197.171 2514.28 198.453 2509.45C215.994 2443.57 237.1 2374.42 264.73 2313.56Z" fill="#A6159C"/>
</svg>
