<svg width="2546" height="2408" viewBox="0 0 2546 2408" fill="none" xmlns="http://www.w3.org/2000/svg">
<path d="M1643.81 66.5519C1619.16 98.9119 1566.77 151.292 1526.71 182.112L1455.83 237.58L1324.87 219.091C1227.8 205.224 1166.17 203.682 1089.13 216.009C995.143 229.876 979.735 228.336 952.002 205.224C935.053 189.812 885.748 166.702 842.606 152.842C799.465 138.972 734.752 101.992 699.314 71.1719C663.876 41.9019 628.439 21.8718 622.276 29.5718C602.245 52.6918 562.185 175.952 543.696 273.018C526.747 353.139 531.37 465.615 552.941 521.083C557.563 533.409 526.747 558.062 474.361 584.255C380.374 632.019 312.58 699.813 314.12 741.414C314.12 761.444 317.202 761.444 327.987 736.792C355.721 667.457 429.679 641.264 651.55 622.774C782.516 611.989 794.842 610.448 713.181 608.907C657.713 608.907 574.511 613.53 528.288 619.693C482.065 627.397 440.464 630.478 438.923 627.397C435.842 625.856 462.035 608.907 499.013 588.877C554.481 561.143 580.675 558.062 657.713 565.766C710.1 570.388 873.422 585.796 1021.34 599.663C1278.65 621.234 1462 650.508 1572.93 684.405C1636.11 704.435 1668.46 766.066 1668.46 863.135C1668.46 972.53 1643.81 1003.35 1525.17 1054.19C1397.29 1108.12 1375.71 1109.66 1418.86 1063.44C1462 1017.21 1483.57 955.582 1483.57 875.462C1483.57 816.912 1489.73 804.586 1526.71 784.556C1571.39 759.903 1559.07 753.74 1506.68 773.77C1485.11 783.015 1457.38 775.311 1417.32 749.118C1337.2 698.272 1089.13 636.641 938.135 628.937L813.332 622.774L921.186 636.641C1098.37 658.212 1306.38 709.058 1391.12 752.199L1471.24 792.26L1465.08 890.869C1460.46 966.367 1449.67 998.724 1418.86 1041.86C1395.74 1071.14 1381.88 1100.41 1388.04 1106.58C1394.2 1114.28 1391.12 1114.28 1380.34 1108.12C1369.55 1101.96 1344.9 1108.12 1324.87 1121.99C1303.3 1135.85 1249.37 1149.72 1204.69 1152.8L1121.49 1158.96L1193.9 1145.1C1346.44 1112.74 1437.35 1018.75 1437.35 892.41C1437.35 844.646 1428.1 818.453 1403.45 795.341C1346.44 744.496 1203.15 699.813 1012.09 675.161C629.979 625.856 384.996 661.294 391.159 766.066C394.241 796.882 394.241 796.882 400.404 764.526C408.108 726.006 428.138 705.976 478.983 692.109L512.88 681.324L480.524 736.792C462.035 767.607 431.219 799.963 412.73 809.208C386.537 819.994 380.374 833.861 384.996 864.676L392.7 906.277L369.588 864.676C355.721 841.564 343.395 810.749 338.773 795.341C334.15 776.852 331.069 779.933 329.528 807.667C327.987 843.105 317.202 849.268 209.352 880.084C143.092 898.573 70.6819 918.603 47.5619 923.226C19.8319 929.389 4.42188 943.256 4.42188 960.204C4.42188 1007.97 21.3718 1037.24 49.1018 1037.24C67.5918 1037.24 84.5419 1075.76 116.902 1197.48C140.012 1285.31 158.502 1363.89 158.502 1371.59C158.502 1380.84 141.552 1394.7 118.442 1403.95C15.2118 1451.71 9.04182 1685.91 110.742 1786.06C141.552 1818.42 147.712 1836.91 144.632 1893.91C141.552 1955.54 144.632 1963.25 184.692 1978.66C229.382 1995.6 463.576 1989.44 525.207 1969.41C557.563 1958.63 559.104 1961.71 559.104 2032.58C559.104 2134.27 583.756 2175.88 682.366 2242.13C862.637 2363.85 1181.58 2427.02 1440.43 2394.66C1654.59 2366.93 1842.57 2292.97 1950.42 2195.91C1985.86 2162.01 1992.02 2143.52 1992.02 2075.73V1997.15L2104.5 1989.44C2213.9 1981.74 2309.42 1943.22 2395.71 1872.34C2494.32 1789.14 2562.11 1616.57 2535.92 1516.42C2520.51 1457.87 2485.07 1433.22 2485.07 1479.45C2485.07 1496.39 2474.29 1522.59 2461.96 1539.54C2441.93 1565.73 2440.39 1561.11 2438.85 1479.45C2438.85 1371.59 2392.62 1266.82 2323.29 1212.89C2261.66 1166.67 2244.71 1165.13 2275.53 1209.81C2315.59 1266.82 2303.26 1269.9 2229.3 1219.05C2184.62 1189.78 2132.24 1168.21 2087.55 1163.59L2015.14 1155.88L2044.41 1189.78C2076.77 1226.76 2076.77 1229.84 2027.46 1243.71C1996.65 1254.49 1992.02 1249.87 1992.02 1208.27C1992.02 1182.08 2013.6 1120.44 2038.25 1071.14C2084.47 980.234 2098.34 918.603 2069.06 937.093C2049.03 949.419 1945.8 915.522 1945.8 897.032C1945.8 889.328 1958.13 883.165 1975.08 883.165C2005.89 883.165 2084.47 827.697 2084.47 806.127C2084.47 798.423 2059.82 787.637 2030.54 781.474C2001.27 776.852 1953.51 749.118 1921.15 716.762C1865.68 662.834 1864.14 658.212 1867.22 561.143C1870.3 468.697 1850.27 380.872 1807.13 289.967C1799.43 273.018 1782.48 223.713 1770.15 182.112C1757.83 138.972 1747.04 117.402 1747.04 131.262C1745.5 146.672 1770.15 229.876 1799.43 316.16C1850.27 465.615 1864.14 570.388 1844.11 645.886C1836.41 672.079 1817.92 681.324 1743.96 693.65C1693.11 701.354 1648.43 702.895 1643.81 696.732C1631.48 675.161 1429.64 624.315 1290.97 607.367C1064.48 581.173 867.259 561.143 725.507 550.358C650.009 544.195 589.919 536.491 589.919 533.409C589.919 508.757 642.306 434.8 677.743 407.066C700.855 390.117 713.181 374.709 703.937 374.709C676.203 374.709 608.409 433.259 597.623 467.156C591.46 484.104 580.675 497.971 572.971 497.971C537.533 497.971 585.297 97.3719 625.357 57.3119C628.439 52.6919 666.958 74.2619 710.1 103.532C753.241 132.812 814.872 165.162 847.229 174.412C908.86 194.442 944.298 217.55 944.298 234.499C944.298 240.662 922.727 256.07 896.534 268.396C850.31 289.967 842.606 288.426 757.864 245.284C683.907 208.306 663.876 203.682 643.846 220.632C631.52 231.417 620.735 254.529 620.735 273.018C622.275 302.293 623.816 302.293 643.846 263.774L666.958 223.713L742.456 263.774C784.057 286.885 814.872 309.997 811.791 316.16C799.465 336.19 817.954 330.027 894.993 291.507C935.053 271.477 1012.09 245.284 1064.48 236.04C1164.63 216.009 1340.28 223.713 1386.5 249.907C1408.07 260.692 1401.91 268.396 1351.06 294.589C1318.71 313.078 1300.22 326.945 1311 328.486C1368.01 330.027 1640.73 125.102 1671.54 57.3119C1694.65 9.54189 1708.52 11.0819 1722.39 61.9319C1728.55 86.5819 1736.26 97.3718 1740.88 86.5818C1748.58 65.0118 1719.31 4.92188 1702.36 4.92188C1694.65 4.92188 1670 32.6619 1643.81 66.5519ZM1103 705.976C1344.9 750.659 1431.18 807.667 1417.32 917.062C1412.69 947.878 1394.2 995.642 1375.71 1021.83C1340.28 1072.68 1229.34 1129.69 1170.79 1129.69C1130.73 1129.69 1033.66 1083.47 961.246 1029.54C894.993 980.234 790.22 977.153 733.211 1021.83C703.937 1043.41 670.04 1052.65 611.49 1052.65C534.451 1052.65 523.666 1048.03 466.657 991.02C432.76 957.123 405.026 935.552 405.026 941.715C405.026 947.878 429.679 978.693 458.953 1006.43C503.636 1049.57 529.829 1061.89 602.245 1071.14L690.07 1080.38L586.838 1077.3C495.932 1074.22 477.443 1069.6 435.842 1029.54C411.189 1004.89 389.618 992.56 389.618 1003.35C389.618 1041.86 502.095 1098.87 577.593 1098.87C636.142 1098.87 648.469 1103.5 642.306 1121.99C626.898 1162.05 651.55 1222.14 688.529 1237.54C714.722 1246.79 727.048 1266.82 733.211 1311.5C747.078 1391.62 793.302 1433.22 848.77 1413.19C871.881 1405.49 901.156 1377.75 913.482 1353.1C931.971 1314.58 944.298 1308.42 981.276 1311.5C1053.69 1320.75 1124.57 1300.72 1175.41 1259.11C1200.07 1237.54 1221.64 1214.43 1221.64 1206.73C1221.64 1200.57 1200.07 1214.43 1173.87 1239.08C1095.29 1311.5 973.572 1317.66 881.126 1251.41C827.199 1212.89 824.117 1194.4 874.963 1175.91C894.993 1168.21 927.349 1146.64 944.298 1129.69C973.572 1100.41 979.735 1098.87 1002.85 1118.9C1044.45 1155.88 1158.46 1178.99 1235.5 1168.21C1309.46 1157.42 1599.13 1049.57 1645.35 1015.67C1660.76 1004.89 1674.62 967.908 1679.25 924.766C1686.95 860.054 1693.11 850.809 1736.26 838.483C1762.45 829.238 1816.38 812.29 1854.9 798.423C1913.45 778.393 1938.1 776.852 1990.48 790.719C2024.38 799.963 2053.66 812.29 2053.66 819.994C2053.66 838.483 1981.24 867.758 1936.56 867.758C1873.38 867.758 1918.07 924.766 2001.27 949.419L2070.6 969.449L2019.76 1063.44C1948.88 1195.94 1862.6 1289.93 1740.88 1371.59C1583.72 1476.36 1445.05 1524.13 1237.04 1545.7L1121.49 1556.48L1217.01 1559.57C1460.46 1564.19 1756.29 1437.84 1913.45 1259.11L1976.62 1186.7V2140.44L1935.02 2180.5C1668.46 2423.94 1078.34 2453.21 703.937 2239.05C605.327 2182.04 593.001 2162.01 580.675 2040.29L569.889 1949.38L634.602 1909.32C696.233 1869.26 790.22 1758.33 790.22 1724.43C790.22 1713.64 748.619 1665.88 697.773 1615.03C606.868 1525.67 593.001 1496.39 619.194 1456.33C629.979 1439.38 650.009 1444.01 722.426 1482.53C808.709 1525.67 956.624 1570.35 970.491 1554.94C973.572 1551.86 941.216 1541.08 898.074 1531.83C705.477 1490.23 523.666 1346.94 423.515 1154.34C380.374 1072.68 368.047 954.041 398.863 927.848C411.189 918.603 415.812 903.195 409.648 893.951C405.026 886.247 408.108 883.165 417.352 889.328C426.597 893.951 437.382 892.41 443.546 883.165C448.168 875.462 442.005 867.758 429.679 867.758C392.7 867.758 398.863 855.431 466.657 781.474C500.554 744.496 528.288 707.517 528.288 699.813C528.288 692.109 551.4 681.324 579.134 678.242C657.713 665.916 981.276 684.405 1103 705.976ZM1911.9 730.629C1914.99 749.118 1887.25 766.066 1800.97 793.8L1686.95 832.32L1677.71 786.097C1666.92 730.629 1668.46 729.088 1733.17 713.68C1814.84 693.65 1905.74 702.895 1911.9 730.629ZM364.966 892.41C371.129 906.277 371.129 921.685 366.507 926.307C361.884 930.929 286.386 952.5 198.562 975.612C62.9719 1011.05 35.2418 1014.13 29.0718 995.642C12.1318 954.041 19.8319 949.419 132.312 923.226C193.942 907.818 255.572 889.328 267.902 881.625C303.335 860.054 354.181 866.217 364.966 892.41ZM366.507 1048.03C398.863 1160.5 454.331 1319.2 443.546 1268.36C437.382 1237.54 451.249 1245.25 520.584 1317.66C602.245 1402.41 619.194 1439.38 593.001 1479.45C576.052 1507.18 502.095 1437.84 475.902 1368.51C463.576 1334.61 452.79 1314.58 452.79 1325.37C449.709 1376.21 497.473 1444.01 631.52 1578.05C762.486 1710.56 776.353 1730.59 760.945 1758.33C731.671 1812.25 613.031 1898.54 511.34 1940.14C429.679 1974.03 394.241 1978.66 301.794 1974.03C173.912 1967.87 150.802 1954 166.202 1887.75C173.912 1849.23 184.692 1839.99 223.212 1835.36C317.202 1826.12 355.721 1712.1 327.987 1537.99C320.283 1491.77 267.902 1427.06 213.972 1396.24C193.942 1385.46 172.372 1336.15 147.712 1243.71C87.6218 1007.97 87.6218 1021.83 129.232 1020.29C149.262 1020.29 201.642 1006.43 243.242 991.02C286.386 977.153 324.906 963.286 331.069 961.745C337.232 961.745 354.18 1000.26 366.507 1048.03ZM790.22 1028C790.22 1032.62 784.057 1040.32 774.812 1044.95C767.108 1049.57 759.405 1046.49 759.405 1038.78C759.405 1029.54 767.108 1021.83 774.812 1021.83C784.057 1021.83 790.22 1024.92 790.22 1028ZM1036.74 1098.87C1058.31 1115.82 1089.13 1129.69 1106.08 1131.23C1130.73 1132.77 1132.27 1134.31 1110.7 1140.47C1082.97 1146.64 999.766 1109.66 982.817 1083.47C967.409 1058.81 995.143 1066.52 1036.74 1098.87ZM757.864 1131.23C797.924 1183.62 793.302 1214.43 743.997 1226.76C708.559 1236 651.55 1191.32 651.55 1154.34C651.55 1131.23 691.61 1083.47 711.64 1083.47C717.804 1083.47 737.834 1105.04 757.864 1131.23ZM2175.38 1206.73C2207.73 1222.14 2252.42 1257.57 2275.53 1283.77L2315.59 1333.07V1285.31C2315.59 1220.6 2349.48 1237.54 2386.46 1319.2C2406.49 1362.35 2415.74 1416.27 2414.2 1488.69C2412.65 1604.25 2426.52 1611.95 2481.99 1530.29C2514.35 1482.53 2515.89 1480.99 2517.43 1516.42C2523.59 1667.42 2469.66 1790.68 2358.73 1873.88C2278.61 1935.51 2150.72 1978.66 2070.6 1974.03L1999.73 1969.41V1624.28C1999.73 1257.57 1996.65 1269.9 2073.69 1246.79C2096.8 1239.08 2098.34 1232.92 2084.47 1206.73C2062.9 1165.13 2095.26 1165.13 2175.38 1206.73ZM238.622 1448.63C275.601 1488.69 312.58 1548.78 312.58 1567.27C312.58 1571.89 297.172 1578.05 278.683 1578.05L243.242 1581.14L278.683 1587.3C306.416 1593.46 312.58 1604.25 312.58 1656.63V1719.81L243.242 1710.56C181.612 1704.4 176.992 1705.94 200.102 1724.43C215.512 1735.21 243.242 1746 263.272 1746C303.335 1746 306.416 1756.78 270.982 1795.3C169.292 1907.78 1.34184 1662.8 64.5118 1494.85C99.9518 1400.87 175.452 1380.84 238.622 1448.63Z" fill="#FF1313" stroke="#3727F8" stroke-width="8.68" stroke-linecap="square"/>
<path d="M679.136 797.36C632.912 832.797 628.29 866.694 660.646 909.836C686.84 943.733 762.338 949.896 797.775 919.081C827.05 895.969 830.132 831.257 802.398 805.063C763.878 766.544 720.737 763.462 679.136 797.36ZM714.573 826.634C714.573 834.338 708.41 842.042 699.166 842.042C691.462 842.042 683.758 834.338 683.758 826.634C683.758 817.39 691.462 811.227 699.166 811.227C708.41 811.227 714.573 817.39 714.573 826.634ZM1113.63 832.797C1038.14 869.776 1065.87 980.712 1150.61 980.712C1212.24 980.712 1238.44 957.6 1238.44 902.132C1238.44 837.42 1175.27 801.982 1113.63 832.797ZM1161.4 865.154C1161.4 877.48 1150.61 888.265 1138.29 888.265C1113.63 888.265 1107.47 869.776 1125.96 852.827C1142.91 834.338 1161.4 840.501 1161.4 865.154ZM1384.81 1589.32C1360.16 1601.64 1295.45 1629.38 1241.52 1652.49C1073.57 1724.91 967.261 1883.61 1007.32 2003.79C1030.43 2074.66 1095.15 2131.67 1179.89 2153.24C1241.52 2170.19 1269.25 2168.65 1369.4 2145.54C1474.18 2120.89 1497.29 2108.56 1580.49 2031.52C1672.94 1945.24 1729.95 1869.74 1780.79 1766.51C1810.07 1706.42 1814.69 1689.47 1796.2 1689.47C1790.04 1689.47 1774.63 1715.66 1763.84 1746.48C1720.7 1865.12 1546.59 2057.71 1441.82 2102.4C1361.7 2136.29 1233.81 2160.95 1209.16 2145.54C1198.38 2137.83 1198.38 2122.43 1209.16 2094.69C1230.73 2037.68 1215.33 2033.06 1190.67 2088.53C1166.02 2144 1164.48 2144 1116.72 2111.64C1088.98 2091.61 1084.36 2077.74 1092.06 2045.39C1098.23 2023.82 1110.55 1994.54 1121.34 1982.22C1159.86 1935.99 1167.56 1911.34 1135.21 1940.62C1116.72 1956.02 1093.6 1989.92 1082.82 2014.57C1065.87 2056.17 1061.25 2059.26 1041.22 2037.68C1007.32 2003.79 1011.94 1892.85 1050.46 1828.14C1095.15 1754.18 1161.4 1707.96 1306.23 1647.87C1374.03 1620.13 1435.66 1590.86 1444.9 1581.61C1466.47 1560.04 1440.28 1563.13 1384.81 1589.32ZM508.109 1854.33C491.161 1871.28 498.865 1889.77 521.976 1889.77C534.303 1889.77 545.088 1883.61 545.088 1875.9C545.088 1855.87 520.436 1842.01 508.109 1854.33ZM1602.06 251.925C1580.49 275.037 1566.62 298.148 1571.25 302.77C1575.87 307.393 1595.9 290.444 1615.93 265.792C1634.42 241.139 1657.53 225.732 1666.77 231.895C1682.18 241.139 1737.65 395.217 1753.06 472.256C1757.68 493.827 1757.68 472.256 1754.6 426.033C1748.43 332.045 1696.05 210.324 1662.15 210.324C1649.82 210.324 1623.63 228.813 1602.06 251.925Z" fill="#24682C" stroke="#3727F8" stroke-width="8.68" stroke-linecap="square"/>
</svg>
