<svg width="1376" height="1759" viewBox="0 0 1376 1759" fill="none" xmlns="http://www.w3.org/2000/svg">
<path d="M771.676 713.335C741.309 794.79 667.475 836.715 634.354 847.495L669.352 885.238C754.183 849.277 811.056 873.78 828.888 890.527C848.085 808.73 915.684 819.358 947.085 834.897C882.464 767.878 981.829 757.877 1039.59 761.253C929.633 675.886 815.165 693.738 771.676 713.335Z" fill="#007DFF"/>
<path d="M828.356 899.537C746.702 939.842 662.069 923.555 629.959 910.374L628.044 960.269C716.376 987.918 740.131 1042.04 740.967 1065.64C814.693 1017.98 856.423 1068.77 868.073 1100.12C869.663 1009.95 949.695 1065.85 989.512 1105.07C971.302 972.622 874.487 912.861 828.356 899.537Z" fill="#007DFF"/>
<path d="M82.0325 658.735L180.53 877.308L380.06 773.403L150.768 612.806L82.0325 658.735Z" fill="#88C1FF"/>
<path d="M1279.17 1205.44C1186.22 1564.4 915.294 1392.29 814.309 1442.97" stroke="#88C1FF" stroke-width="46.1852"/>
<path d="M1305.14 1099.99L1232.61 1171.35L1338.06 1196.79L1305.14 1099.99Z" fill="#007DFF" stroke="#007DFF" stroke-width="46.1852" stroke-linejoin="round"/>
<path d="M271.07 732.397L263.809 673.934L669.419 823.921L653.993 884.936L271.07 732.397Z" fill="#BCE7FF"/>
<rect width="442.826" height="399.696" transform="matrix(0.811094 0.584916 -0.62019 0.784451 302.292 80.8588)" fill="#88C1FF"/>
<path d="M634.741 194.116L945.454 426.906L584.282 883.737L242.14 637.003L302.813 79.3706C302.813 79.3706 354.692 118.196 419.976 165.814C458.788 187.764 525.508 224.061 634.741 194.116Z" fill="#88C1FF"/>
<path d="M119.683 1000.77C231.59 822.227 242.084 692.301 233.342 649.657L791.473 599.912C554.537 998.274 662.071 1332.3 938.95 1408.51C1144.1 1464.98 1238.39 1280.83 1259.8 1239.02L1260.05 1238.52C1260.05 1398.9 1059.19 1565.84 881.402 1588.52L140.593 1558.28C123.44 1530.74 108.218 1501.2 95.3821 1470.25C84.413 1443.81 85.2022 1392.87 79.1026 1381.68C78.5251 1379.42 66.8789 1383.78 66.3904 1381.68C64.1616 1372.08 62.7175 1363.71 60.7637 1353.23C39.0904 1236.94 51.6424 1109.33 119.683 1000.77Z" fill="#88C1FF"/>
<path d="M126.608 1705.31L86.5554 1430.6L315.32 1446.67L220.887 1705.31L126.608 1705.31Z" fill="#88C1FF"/>
<path d="M529.018 1743.14L459.007 1550.08L674.777 1475.02L618.312 1743.14L529.018 1743.14Z" fill="#88C1FF"/>
<path d="M500.906 1665.62C366.733 1331.8 485.809 729.269 544.934 630.113C544.934 630.113 459.483 669.578 363.406 637.553C267.329 605.527 252.972 537.296 252.972 537.296C236.972 679.638 196.727 764.901 77.0261 998.44C-17.9719 1183.78 36.9249 1390.74 148.599 1494.14C260.274 1597.55 338.403 1620.91 393.488 1641.4C448.573 1661.9 500.906 1665.62 500.906 1665.62Z" fill="#007DFF"/>
<path d="M633.17 1672.73L660.009 1542.74C986.007 1645.85 1217.2 1418.84 1278.32 1285.88C1171.1 1519.09 886.585 1692.04 633.17 1672.73Z" fill="#007DFF"/>
<path d="M329.6 992.318L572.193 954.961L505.99 743.195L296.456 916.844L329.6 992.318Z" fill="#88C1FF"/>
<path d="M587.332 377.515C587.332 377.515 574.203 386.272 537.467 379.703C500.73 373.134 466.194 333.93 466.194 333.93" stroke="#007DFF" stroke-width="34.1782"/>
</svg>
