<svg width="700" height="602" viewBox="0 0 700 602" fill="none" xmlns="http://www.w3.org/2000/svg">
<path d="M390.146 4.25287C390.168 17.8937 390 31.0607 390.263 44.2191C390.359 49.0391 388.729 50.4133 383.954 50.4523C348.557 50.7414 313.395 53.7245 279.535 64.6437C238.525 77.8691 202.999 99.7117 176.926 134.89C162.781 153.975 154.224 175.287 152.123 199.23C148.871 236.276 162.067 267.439 185.553 294.929C206.098 318.977 232.1 335.567 260.855 348.068C285.553 358.805 311.186 366.391 337.999 369.454C353.743 371.253 369.592 371.046 385.404 370.423C388.994 370.281 390.237 371.3 390.212 374.756C390.122 387.753 390.075 400.75 390.182 413.746C390.211 417.317 388.89 418.934 385.282 419.006C369.117 419.331 352.992 418.457 336.858 417.661C321.895 416.922 307.029 415.35 292.169 413.497C258.267 409.271 224.998 402.159 192.391 392.006C156.138 380.719 121.437 365.941 89.5773 345.054C59.5213 325.35 33.3448 301.766 16.1997 269.515C5.35787 249.12 -0.217428 227.296 0.995737 204.202C2.67647 172.206 15.9394 144.824 36.4518 120.73C64.4868 87.8017 100.044 65.333 138.952 47.6175C180.712 28.6038 224.585 16.5907 269.686 8.99672C292.947 5.07991 316.399 2.59151 340.024 1.44232C355.022 0.712766 369.991 0.902602 384.973 0.683867C387.249 0.650634 389.908 0.253936 390.146 4.25287Z" fill="black"/>
<path d="M380.45 185.463C413.813 188.036 446.215 193.545 478.235 201.496C518.184 211.417 556.584 225.354 592.549 245.53C623.351 262.81 651.044 283.89 672.32 312.558C690.227 336.685 700.344 363.654 699.95 393.805C699.563 423.461 688.506 449.598 670.763 473.058C648.617 502.338 619.916 523.732 588.071 541.202C543.409 565.704 495.393 580.643 445.599 590.248C403.309 598.405 360.602 602.079 317.525 601.345C310.827 601.23 310.798 601.281 310.79 594.683C310.774 582.517 310.773 570.35 310.786 558.184C310.792 551.676 310.813 551.771 317.528 551.639C352.39 550.958 387.061 548.198 420.469 537.564C461.035 524.651 496.236 503.228 522.522 468.94C537.42 449.507 546.589 427.694 548.791 403.079C552.348 363.315 537.362 330.444 510.996 302.051C486.754 275.946 456.395 259.398 423.31 247.114C389.054 234.396 353.742 229.698 317.405 231.317C310.797 231.611 310.786 231.419 310.781 224.937C310.773 212.604 310.826 200.271 310.721 187.939C310.694 184.736 311.541 182.895 315.135 182.846C336.801 182.549 358.411 183.565 380.45 185.463Z" fill="black"/>
<path d="M452.456 49.2543C442.336 47.0311 435.796 41.2882 433.96 31.4857C432.292 22.578 435.474 15.0834 443.044 9.78407C450.781 4.36747 461.273 4.18466 469.366 9.54092C476.822 14.4752 480.346 21.6764 479.085 30.5032C477.739 39.9321 471.997 45.9902 462.809 48.7203C459.535 49.6929 456.209 49.2497 452.456 49.2543Z" fill="black"/>
<path d="M229.933 591.181C220.071 582.313 218.89 569.45 226.819 560.272C234.821 551.011 249.662 549.748 259.32 557.508C268.47 564.859 270.015 577.967 262.851 587.454C255.415 597.303 241.569 598.977 229.933 591.181Z" fill="black"/>
<path d="M550.907 49.3037C547.092 60.3288 536.89 65.1395 526.881 60.9714C518.028 57.2851 514.125 47.2032 518.184 38.512C521.61 31.1779 530.375 27.4688 538.903 29.7441C547.389 32.0081 551.894 39.122 550.907 49.3037Z" fill="black"/>
<path d="M152.084 564.608C147.842 555.611 149.671 547.606 156.828 542.627C163.734 537.823 174.025 538.795 179.778 544.794C185.473 550.732 185.963 559.678 180.953 566.289C173.792 575.741 160.008 575.092 152.084 564.608Z" fill="black"/>
<path d="M580.536 77.0965C577.182 68.2132 580.627 60.1816 588.419 57.9362C596.923 55.4853 604.845 60.0193 606.778 68.4437C607.935 73.4868 605.412 79.1763 600.733 82.0763C595.297 85.4447 588.354 84.9868 583.607 80.8298C582.503 79.8628 581.679 78.5754 580.536 77.0965Z" fill="black"/>
<path d="M108.813 517.691C117.641 519.339 122.594 524.653 122.206 531.615C121.835 538.281 116.35 543.842 109.65 544.346C101.665 544.947 95.7458 540.787 94.0799 533.404C92.2436 525.266 98.7924 518.068 108.813 517.691Z" fill="black"/>
<path d="M61.2394 514.316C54.2848 512.437 51.3055 508.797 51.7076 503.17C52.0493 498.388 56.0581 494.389 61.1393 493.761C66.2556 493.128 71.2044 496.266 72.7721 501.136C74.9712 507.969 69.9473 513.936 61.2394 514.316Z" fill="black"/>
<path d="M629.866 103.913C626.339 96.8207 627.878 91.1824 633.753 88.5181C639.642 85.847 646.511 88.4856 648.693 94.2571C650.291 98.4855 648.672 103.582 644.911 106.157C640.057 109.482 635.229 108.856 629.866 103.913Z" fill="black"/>
<path d="M678.275 122.663C683.69 125.334 685.415 128.797 683.74 132.946C682.219 136.714 677.868 138.874 673.962 137.801C670.106 136.742 667.361 132.835 667.938 129.224C668.655 124.738 672.176 122.395 678.275 122.663Z" fill="black"/>
<path d="M25.7751 463.838C30.5086 465.053 33.3641 467.709 32.9476 472.341C32.6126 476.066 30.3259 478.719 26.3039 479.295C21.3964 479.998 17.3764 477.285 16.748 472.883C16.0317 467.864 18.9564 464.779 25.7751 463.838Z" fill="black"/>
</svg>
