<svg width="700" height="602" viewBox="0 0 700 602" fill="none" xmlns="http://www.w3.org/2000/svg">
<g style="mix-blend-mode:color-burn">
<path d="M390.146 4.25287C390.168 17.8937 390 31.0607 390.263 44.2191C390.359 49.0391 388.729 50.4133 383.954 50.4523C348.557 50.7414 313.395 53.7245 279.535 64.6437C238.525 77.8691 202.999 99.7117 176.926 134.89C162.781 153.975 154.224 175.287 152.123 199.23C148.871 236.276 162.067 267.439 185.553 294.929C206.098 318.977 232.1 335.567 260.855 348.068C285.553 358.805 311.186 366.391 337.999 369.454C353.743 371.253 369.592 371.046 385.404 370.423C388.994 370.281 390.237 371.3 390.212 374.756C390.122 387.753 390.075 400.75 390.182 413.746C390.211 417.317 388.89 418.934 385.282 419.006C369.117 419.331 352.992 418.457 336.858 417.661C321.895 416.922 307.029 415.35 292.169 413.497C258.267 409.271 224.998 402.159 192.391 392.006C156.138 380.719 121.437 365.941 89.5773 345.054C59.5213 325.35 33.3448 301.766 16.1997 269.515C5.35787 249.12 -0.217428 227.296 0.995737 204.202C2.67647 172.206 15.9394 144.824 36.4518 120.73C64.4868 87.8017 100.044 65.333 138.952 47.6175C180.712 28.6038 224.585 16.5907 269.686 8.99672C292.947 5.07991 316.399 2.59151 340.024 1.44232C355.022 0.712766 369.991 0.902602 384.973 0.683867C387.249 0.650634 389.908 0.253936 390.146 4.25287Z" fill="black"/>
</g>
<g style="mix-blend-mode:color-burn">
<path d="M380.452 185.463C413.815 188.036 446.216 193.545 478.236 201.496C518.186 211.417 556.586 225.354 592.55 245.53C623.353 262.81 651.046 283.89 672.322 312.558C690.228 336.685 700.346 363.654 699.952 393.805C699.565 423.461 688.508 449.598 670.765 473.058C648.619 502.338 619.918 523.732 588.073 541.202C543.411 565.704 495.395 580.643 445.601 590.248C403.311 598.405 360.604 602.079 317.527 601.345C310.829 601.23 310.8 601.281 310.792 594.683C310.776 582.517 310.775 570.35 310.788 558.184C310.794 551.676 310.815 551.771 317.53 551.639C352.392 550.958 387.063 548.198 420.471 537.564C461.037 524.651 496.238 503.228 522.524 468.94C537.422 449.507 546.591 427.694 548.793 403.079C552.35 363.315 537.364 330.444 510.998 302.051C486.756 275.946 456.397 259.398 423.312 247.114C389.056 234.396 353.744 229.698 317.407 231.317C310.799 231.611 310.788 231.419 310.783 224.937C310.775 212.604 310.828 200.271 310.723 187.939C310.696 184.736 311.543 182.895 315.137 182.846C336.803 182.549 358.413 183.565 380.452 185.463Z" fill="black"/>
</g>
<path d="M452.456 49.2543C442.336 47.0311 435.796 41.2882 433.96 31.4857C432.292 22.578 435.474 15.0834 443.044 9.78407C450.781 4.36747 461.273 4.18466 469.366 9.54092C476.822 14.4752 480.346 21.6764 479.085 30.5032C477.739 39.9321 471.997 45.9902 462.809 48.7203C459.535 49.6929 456.209 49.2497 452.456 49.2543Z" fill="#B400FF"/>
<path d="M229.935 591.181C220.073 582.313 218.892 569.45 226.821 560.272C234.823 551.011 249.664 549.748 259.322 557.508C268.472 564.859 270.017 577.967 262.853 587.454C255.417 597.303 241.571 598.977 229.935 591.181Z" fill="#FFAB00"/>
<path d="M550.907 49.3037C547.092 60.3288 536.89 65.1395 526.881 60.9714C518.028 57.2851 514.125 47.2032 518.184 38.512C521.61 31.1779 530.375 27.4688 538.903 29.7441C547.389 32.0081 551.894 39.122 550.907 49.3037Z" fill="#FF6300"/>
<path d="M152.084 564.608C147.842 555.611 149.671 547.606 156.828 542.627C163.734 537.823 174.025 538.795 179.778 544.794C185.473 550.732 185.963 559.678 180.953 566.289C173.792 575.741 160.008 575.092 152.084 564.608Z" fill="#FF00DA"/>
<path d="M580.538 77.0965C577.184 68.2132 580.629 60.1816 588.421 57.9362C596.925 55.4853 604.847 60.0193 606.78 68.4437C607.937 73.4868 605.414 79.1763 600.735 82.0763C595.299 85.4447 588.356 84.9868 583.609 80.8298C582.505 79.8628 581.681 78.5754 580.538 77.0965Z" fill="#6C00FF"/>
<path d="M108.815 517.691C117.643 519.339 122.596 524.653 122.208 531.615C121.837 538.281 116.352 543.842 109.651 544.346C101.667 544.947 95.7477 540.787 94.0818 533.404C92.2456 525.266 98.7944 518.068 108.815 517.691Z" fill="#0018FF"/>
<path d="M61.2394 514.316C54.2848 512.437 51.3055 508.797 51.7076 503.17C52.0493 498.388 56.0581 494.389 61.1393 493.761C66.2556 493.128 71.2044 496.266 72.7721 501.136C74.9712 507.969 69.9473 513.936 61.2394 514.316Z" fill="#00BDFF"/>
<path d="M629.866 103.913C626.339 96.8207 627.878 91.1824 633.753 88.5181C639.642 85.847 646.511 88.4856 648.693 94.2571C650.291 98.4855 648.672 103.582 644.911 106.157C640.057 109.482 635.229 108.856 629.866 103.913Z" fill="#2AFF00"/>
<path d="M678.273 122.663C683.688 125.334 685.413 128.797 683.738 132.946C682.217 136.714 677.866 138.874 673.96 137.801C670.104 136.742 667.359 132.835 667.936 129.224C668.653 124.738 672.174 122.395 678.273 122.663Z" fill="#E9FF00"/>
<path d="M25.7771 463.838C30.5106 465.053 33.366 467.709 32.9496 472.341C32.6146 476.066 30.3278 478.719 26.3059 479.295C21.3983 479.998 17.3783 477.285 16.75 472.883C16.0337 467.864 18.9584 464.779 25.7771 463.838Z" fill="#FF0000"/>
</svg>
