<svg version="1.1" id="Layer_1" xmlns="http://www.w3.org/2000/svg" xmlns:xlink="http://www.w3.org/1999/xlink" x="0px" y="0px"
	 width="100%" viewBox="0 0 928 912" enable-background="new 0 0 928 912" xml:space="preserve">
<path fill="#000000" opacity="1.000000" stroke="none" 
	d="
M515.145935,158.252029 
	C515.168091,171.892853 515.000122,185.059875 515.262939,198.218292 
	C515.359192,203.038223 513.728577,204.412445 508.953705,204.451447 
	C473.557007,204.740601 438.394562,207.723694 404.535400,218.642838 
	C363.524719,231.868256 327.998779,253.710831 301.926208,288.888702 
	C287.781006,307.973816 279.224335,329.286377 277.122589,353.229492 
	C273.870758,390.274841 287.066620,421.438385 310.553284,448.928589 
	C331.098358,472.975800 357.100128,489.566254 385.855286,502.066956 
	C410.553253,512.803894 436.186157,520.390137 462.998627,523.453674 
	C478.742554,525.252563 494.592194,525.045349 510.404083,524.421753 
	C513.993958,524.280212 515.236511,525.299255 515.212463,528.755249 
	C515.122009,541.751709 515.075256,554.749573 515.182007,567.745483 
	C515.211304,571.315735 513.890015,572.933167 510.282166,573.005615 
	C494.116913,573.330200 477.992157,572.456665 461.857849,571.659790 
	C446.894928,570.920776 432.028992,569.348877 417.169128,567.496521 
	C383.267273,563.270569 349.997955,556.158081 317.390686,546.005371 
	C281.138275,534.717773 246.436615,519.940063 214.577347,499.053406 
	C184.521286,479.348816 158.344757,455.765106 141.199738,423.513763 
	C130.357880,403.119202 124.782578,381.295441 125.995743,358.200684 
	C127.676476,326.204865 140.939392,298.822693 161.451828,274.729614 
	C189.486771,241.800858 225.043991,219.332184 263.952393,201.616638 
	C305.711853,182.602951 349.584778,170.589828 394.685577,162.995880 
	C417.947449,159.079071 441.399109,156.590668 465.023560,155.441483 
	C480.021851,154.711929 494.990875,154.901764 509.972778,154.683029 
	C512.249451,154.649796 514.908447,154.253098 515.145935,158.252029 
z"/>
<path fill="#000000" opacity="1.000000" stroke="none" 
	d="
M505.450317,339.462097 
	C538.813293,342.034790 571.214905,347.543884 603.234924,355.495453 
	C643.184875,365.416260 681.584717,379.352753 717.548889,399.529144 
	C748.351257,416.809631 776.044373,437.889587 797.320251,466.556854 
	C815.226868,490.684235 825.344238,517.653503 824.950439,547.804260 
	C824.563110,577.460266 813.506042,603.597351 795.763000,627.056946 
	C773.617554,656.337280 744.916687,677.731323 713.071350,695.201599 
	C668.409668,719.702759 620.393677,734.642517 570.599304,744.247070 
	C528.309204,752.404175 485.602020,756.078308 442.525269,755.343811 
	C435.827057,755.229553 435.798676,755.280090 435.790222,748.682251 
	C435.774658,736.515991 435.773315,724.349670 435.786072,712.183411 
	C435.792877,705.675171 435.813568,705.769897 442.528168,705.638672 
	C477.390076,704.957458 512.061523,702.197205 545.469543,691.562683 
	C586.035339,678.649719 621.236877,657.227234 647.522461,622.939148 
	C662.420166,603.505859 671.589661,581.693298 673.791443,557.078308 
	C677.348267,517.314392 662.362793,484.443085 635.995972,456.049713 
	C611.754761,429.945282 581.395325,413.397095 548.310364,401.113403 
	C514.054443,388.395050 478.742340,383.697540 442.405273,385.315796 
	C435.797180,385.610138 435.785950,385.417755 435.781525,378.936188 
	C435.773132,366.603271 435.826508,354.269836 435.721710,341.937744 
	C435.694458,338.735352 436.541779,336.894562 440.135773,336.845245 
	C461.801514,336.547852 483.411621,337.564056 505.450317,339.462097 
z"/>
<path fill="#000000" opacity="1.000000" stroke="none" 
	d="
M577.455811,203.253387 
	C567.335327,201.030243 560.795898,195.287323 558.959717,185.484848 
	C557.291199,176.577133 560.473572,169.082458 568.043457,163.783173 
	C575.780884,158.366577 586.272705,158.183762 594.365723,163.540024 
	C601.821289,168.474335 605.345093,175.675537 604.084961,184.502335 
	C602.738892,193.931244 596.996826,199.989304 587.808594,202.719376 
	C584.535034,203.692047 581.208313,203.248825 577.455811,203.253387 
z"/>
<path fill="#000000" opacity="1.000000" stroke="none" 
	d="
M354.933105,745.181030 
	C345.071289,736.312927 343.889923,723.450073 351.819427,714.272034 
	C359.821167,705.010376 374.662476,703.748108 384.320374,711.507874 
	C393.469849,718.859009 395.015442,731.967041 387.851410,741.454224 
	C380.414612,751.302490 366.568542,752.976868 354.933105,745.181030 
z"/>
<path fill="#000000" opacity="1.000000" stroke="none" 
	d="
M675.906494,203.304260 
	C672.091248,214.329376 661.889282,219.140060 651.880188,214.971985 
	C643.028015,211.285660 639.124268,201.203766 643.183838,192.512512 
	C646.609375,185.178482 655.374268,181.469391 663.902649,183.744690 
	C672.388611,186.008667 676.893738,193.122574 675.906494,203.304260 
z"/>
<path fill="#000000" opacity="1.000000" stroke="none" 
	d="
M277.084839,718.608765 
	C272.842499,709.611572 274.671631,701.607117 281.828979,696.628357 
	C288.735077,691.824219 299.025665,692.795654 304.778992,698.794739 
	C310.474213,704.733215 310.963287,713.678467 305.954193,720.289551 
	C298.792267,729.742004 285.008453,729.093445 277.084839,718.608765 
z"/>
<path fill="#000000" opacity="1.000000" stroke="none" 
	d="
M705.536499,231.095535 
	C702.182556,222.212280 705.627319,214.180679 713.419006,211.935226 
	C721.923523,209.484375 729.845703,214.018356 731.778564,222.442749 
	C732.935669,227.485855 730.412598,233.175400 725.733032,236.075333 
	C720.297485,239.443771 713.354553,238.985901 708.607361,234.828873 
	C707.503052,233.861877 706.679321,232.574493 705.536499,231.095535 
z"/>
<path fill="#000000" opacity="1.000000" stroke="none" 
	d="
M233.813538,671.691040 
	C242.640869,673.338257 247.593689,678.652771 247.205963,685.614197 
	C246.834671,692.280701 241.350296,697.841736 234.649612,698.346130 
	C226.665451,698.947021 220.745850,694.786682 219.079926,687.403687 
	C217.243698,679.265869 223.792496,672.067139 233.813538,671.691040 
z"/>
<path fill="#000000" opacity="1.000000" stroke="none" 
	d="
M186.239197,668.315796 
	C179.284607,666.436951 176.305283,662.796692 176.707413,657.169556 
	C177.049118,652.387939 181.057938,648.388672 186.139099,647.760376 
	C191.255432,647.127747 196.204224,650.265503 197.771851,655.136169 
	C199.970947,661.968811 194.947144,667.936035 186.239197,668.315796 
z"/>
<path fill="#000000" opacity="1.000000" stroke="none" 
	d="
M754.864746,257.913483 
	C751.337830,250.821152 752.877136,245.182816 758.751526,242.518494 
	C764.640869,239.847366 771.510193,242.486038 773.691956,248.257507 
	C775.290405,252.485886 773.671021,257.581909 769.910461,260.157532 
	C765.056152,263.482300 760.228516,262.856018 754.864746,257.913483 
z"/>
<path fill="#000000" opacity="1.000000" stroke="none" 
	d="
M803.274170,276.664001 
	C808.689697,279.335022 810.414795,282.797821 808.739502,286.946838 
	C807.218201,290.714539 802.867310,292.874939 798.961182,291.802216 
	C795.105042,290.743225 792.360657,286.835510 792.937378,283.224915 
	C793.654053,278.738495 797.175476,276.396240 803.274170,276.664001 
z"/>
<path fill="#000000" opacity="1.000000" stroke="none" 
	d="
M150.775330,617.837891 
	C155.508835,619.052917 158.364304,621.709473 157.947845,626.340637 
	C157.612854,630.065674 155.326065,632.719482 151.304138,633.295288 
	C146.396591,633.997925 142.376602,631.284912 141.748245,626.882507 
	C141.031921,621.863586 143.956619,618.778625 150.775330,617.837891 
z"/>
</svg>