<svg width="430" height="426" viewBox="0 0 430 426" fill="none" xmlns="http://www.w3.org/2000/svg">
<path d="M215.301 0.720703C96.8711 0.720703 0.871094 95.7107 0.871094 212.891C0.871094 330.071 96.8711 425.061 215.301 425.061C333.731 425.061 429.731 330.071 429.731 212.891C429.731 95.7107 333.721 0.720703 215.301 0.720703ZM216.111 391.321C116.301 391.321 35.3811 311.261 35.3811 212.501C35.3811 113.741 116.291 33.6807 216.111 33.6807C315.841 33.6807 396.701 113.611 396.841 212.261L282.871 101.061V138.171C264.931 122.511 241.371 113.011 215.561 113.011C190.441 113.011 167.451 122.021 149.701 136.941V101.131L35.5511 212.501L149.701 323.871V290.531C167.451 305.451 190.441 314.461 215.561 314.461C241.371 314.461 264.921 304.951 282.871 289.301V323.811L396.841 212.611C396.781 311.311 315.881 391.321 216.111 391.321ZM305.761 167.011L354.211 214.281L304.481 262.801C312.681 248.281 317.361 231.551 317.361 213.731C317.361 196.871 313.161 180.971 305.761 167.011ZM283.661 213.281C283.661 250.531 253.141 280.731 215.491 280.731C177.841 280.731 147.321 250.531 147.321 213.281C147.321 176.031 177.841 145.831 215.491 145.831C253.141 145.831 283.661 176.031 283.661 213.281ZM125.081 259.931L78.3611 214.341L123.851 169.951C117.381 183.191 113.761 198.041 113.761 213.731C113.761 230.381 117.841 246.091 125.081 259.931Z" fill="white"/>
</svg>
