<svg width="1102" height="511" viewBox="0 0 1102 511" fill="none" xmlns="http://www.w3.org/2000/svg">
<path d="M507.684 4.76522C446.705 18.8373 386.508 68.4803 357.582 128.677C314.193 220.146 316.929 316.305 365.791 399.174C459.213 557.484 667.167 545.367 746.518 377.675C766.844 334.677 773.489 304.969 773.099 255.326C773.099 204.119 766.063 174.412 744.173 129.85C698.048 36.0366 599.543 -15.952 507.684 4.76522ZM556.936 125.55C556.936 191.611 558.109 202.556 564.754 217.41C574.526 238.909 595.243 249.072 631.205 249.463C658.177 249.854 676.94 254.935 666.385 258.453C663.258 259.626 645.668 261.58 627.296 262.753C592.116 265.098 582.344 269.398 567.099 290.115C559.672 299.888 558.891 307.314 557.718 382.756C556.545 447.644 555.373 464.453 551.073 464.453C546.773 464.453 545.6 447.644 544.428 382.756C543.255 307.314 542.473 299.888 535.046 290.115C519.802 269.398 510.029 265.098 474.849 262.753C456.477 261.58 438.887 259.626 435.76 258.453C425.206 254.935 443.578 249.854 469.768 249.854C502.211 249.463 523.32 240.472 534.265 222.491C542.864 209.201 543.255 203.729 544.428 132.196C545.6 52.8448 546.382 44.2452 553.027 48.1541C555.373 49.7177 556.936 79.4253 556.936 125.55Z" fill="white"/>
<path d="M537.001 243.201L523.32 256.101L537.392 269.782L551.073 283.463L564.754 269.391L578.435 255.319L564.754 242.81L551.073 230.693L537.001 243.201ZM400.971 21.1756C354.846 34.8567 318.884 50.8833 286.049 72.3823L257.905 91.145L308.33 92.3176C353.673 93.0994 359.537 92.7085 362.664 86.4542C367.354 77.8546 414.261 31.7295 429.897 20.0028C444.751 9.05789 441.233 9.05797 400.971 21.1756ZM680.067 27.4298C702.348 43.8472 740.655 83.7181 740.655 89.9723C740.655 91.9268 764.108 93.0994 792.643 93.0994L844.241 92.7086L832.514 82.9364C804.37 59.8738 720.329 23.5209 670.295 12.9668C657.004 10.2306 657.395 10.6216 680.067 27.4298ZM293.085 30.166C245.397 42.2836 182.463 64.9554 152.365 80.9819L132.82 91.145L180.9 92.3176L228.979 93.4902L255.169 73.5549C269.632 63.0008 295.821 46.5834 313.802 37.5929C331.393 28.6024 345.856 20.7846 345.856 20.0028C345.856 17.6575 334.911 19.612 293.085 30.166ZM784.826 36.4203C803.979 45.8017 831.342 62.6099 846.195 73.5549L872.776 93.4902L921.246 92.3176L969.326 91.145L949.781 80.9819C909.52 59.4829 781.698 18.8302 756.291 18.8302C753.163 18.8302 766.063 26.648 784.826 36.4203ZM80.05 125.543C36.2702 160.333 8.90782 199.031 3.04447 235.774L0.699219 249.456H75.7503C116.794 249.456 150.41 248.283 150.41 246.329C150.41 244.765 153.147 231.866 155.883 217.794C162.528 186.522 174.255 161.114 194.19 134.925C202.399 123.589 209.044 113.426 209.044 111.862C209.044 109.908 184.809 108.735 155.492 108.735H101.549L80.05 125.543ZM218.816 129.061C194.581 156.815 174.255 199.031 171.127 227.175L168.782 249.456H309.894L312.63 223.657C315.757 195.122 325.138 159.16 337.647 131.016C342.338 120.462 345.856 111.08 345.856 110.299C345.856 109.517 321.229 108.735 291.522 108.735H237.188L218.816 129.061ZM757.463 115.38C758.636 119.289 764.499 133.752 770.363 147.824C776.226 161.896 783.653 190.431 787.171 211.148L793.034 249.456H932.191V238.12C932.191 216.23 916.556 176.75 897.011 148.997C868.867 108.735 869.258 108.735 807.888 108.735C759.809 108.735 755.509 109.126 757.463 115.38ZM893.102 111.471C893.102 113.035 900.138 124.371 909.129 136.879C928.282 164.242 942.745 199.031 947.045 227.175L949.781 247.501H1098.32L1097.93 234.993C1096.37 203.721 1053.76 145.088 1014.67 119.68C997.47 109.126 995.516 108.735 945.091 108.735C916.556 108.735 893.102 109.908 893.102 111.471ZM3.8263 279.554C10.0805 313.562 40.57 357.341 78.0955 386.267L98.4219 401.903H153.537C184.027 401.903 209.044 401.121 209.044 399.949C209.044 398.776 202.008 388.222 193.017 376.495C175.818 353.823 154.71 304.962 154.319 287.763C154.319 264.7 156.274 265.091 75.3592 265.091H1.09001L3.8263 279.554ZM171.127 285.418C174.645 312.78 196.145 356.56 218.425 381.186L237.188 401.903H291.913C334.129 401.903 346.246 400.73 344.683 396.821C327.484 356.951 322.011 340.533 316.93 315.125C313.412 298.317 310.675 280.336 310.675 274.864V265.091H168.782L171.127 285.418ZM789.516 287.372C785.998 318.643 777.399 351.478 766.063 377.277C760.59 389.395 756.291 399.558 756.291 400.339C756.291 401.121 780.526 401.903 810.233 401.903H864.176L878.249 387.049C906.002 358.123 932.191 303.79 932.191 274.473V265.091H792.253L789.516 287.372ZM947.827 275.645C947.827 304.18 928.282 350.696 903.265 383.531L889.193 401.903H1001.38L1018.58 389.394C1058.45 360.469 1091.67 314.344 1098.71 277.6L1101.45 265.091H947.827V275.645ZM134.775 421.057C134.775 429.656 239.533 468.745 302.858 483.99C349.374 494.935 352.11 493.762 318.493 476.954C289.176 462.491 259.86 443.728 239.142 426.529C228.979 418.32 224.289 417.539 181.291 417.539C155.883 417.539 134.775 419.102 134.775 421.057ZM271.586 429.656C279.013 435.91 300.121 448.81 318.493 458.191C352.11 475.781 424.815 500.798 434.588 498.844C437.715 498.062 429.115 489.853 415.825 480.081C402.926 470.7 383.772 452.719 374 440.21L356.41 417.539H307.157L257.905 417.929L271.586 429.656ZM721.892 444.901C708.602 459.755 689.448 477.736 679.676 484.772C669.904 491.808 663.259 498.062 665.213 498.453C672.249 500.798 739.482 479.299 770.754 464.445C805.543 448.419 838.378 427.311 838.378 421.447C838.378 419.102 818.833 417.539 792.643 417.539H746.518L721.892 444.901ZM850.104 435.519C838.378 444.901 811.797 461.709 791.471 472.263C771.144 482.817 757.072 491.417 760.2 491.808C769.581 491.808 830.169 476.954 863.786 466.009C903.656 452.719 967.372 425.356 967.372 421.057C967.372 419.102 945.872 417.538 919.683 417.929H871.603L850.104 435.519Z" fill="white"/>
</svg>
