<svg width="3826" height="1756" viewBox="0 0 3826 1756" fill="none" xmlns="http://www.w3.org/2000/svg">
<path d="M1767.12 15.5388C1557.53 63.9089 1350.62 234.537 1251.2 441.442C1102.07 755.83 1111.47 1086.34 1279.41 1371.17C1600.52 1915.3 2315.28 1873.66 2588.02 1297.28C2657.89 1149.49 2680.72 1047.38 2679.38 876.749C2679.38 700.745 2655.2 598.636 2579.96 445.472C2421.42 123.024 2082.85 -55.6669 1767.12 15.5388ZM1936.4 430.694C1936.4 657.752 1940.43 695.371 1963.27 746.426C1996.86 820.32 2068.07 855.252 2191.68 856.596C2284.38 857.939 2348.87 875.405 2312.59 887.497C2301.85 891.528 2241.39 898.246 2178.24 902.276C2057.32 910.337 2023.73 925.116 1971.34 996.324C1945.81 1029.91 1943.12 1055.44 1939.09 1314.74C1935.06 1537.77 1931.03 1595.54 1916.25 1595.54C1901.47 1595.54 1897.44 1537.77 1893.41 1314.74C1889.38 1055.44 1886.69 1029.91 1861.17 996.324C1808.77 925.116 1775.18 910.337 1654.26 902.276C1591.11 898.246 1530.65 891.528 1519.91 887.497C1483.63 875.405 1546.78 857.939 1636.79 857.939C1748.31 856.596 1820.86 825.694 1858.48 763.892C1888.04 718.211 1889.38 699.401 1893.41 453.535C1897.44 180.794 1900.13 151.238 1922.97 164.674C1931.03 170.046 1936.4 272.156 1936.4 430.694Z" fill="#FF0808"/>
<path d="M1864.34 833.739L1817.31 878.075L1865.68 925.099L1912.7 972.123L1959.73 923.756L2006.75 875.388L1959.73 832.395L1912.7 790.745L1864.34 833.739ZM1396.78 70.6079C1238.25 117.633 1114.64 172.718 1001.78 246.611L905.05 311.102L1078.37 315.132C1234.22 317.82 1254.37 316.474 1265.12 294.979C1281.24 265.422 1442.47 106.885 1496.21 66.5778C1547.26 28.9584 1535.17 28.9584 1396.78 70.6079ZM2356.07 92.1038C2432.65 148.534 2564.32 285.576 2564.32 307.072C2564.32 313.79 2644.93 317.82 2743.01 317.82L2920.36 316.474L2880.05 282.888C2783.32 203.619 2494.46 78.6681 2322.48 42.3941C2276.8 32.9886 2278.14 34.3338 2356.07 92.1038ZM1025.97 101.509C862.055 143.159 645.745 221.085 542.292 276.17L475.117 311.102L640.372 315.132L805.627 319.162L895.644 250.641C945.354 214.367 1035.37 157.937 1097.17 127.035C1157.63 96.1368 1207.34 69.2655 1207.34 66.5778C1207.34 58.5175 1169.72 65.2353 1025.97 101.509ZM2716.14 123.005C2781.97 155.252 2876.02 213.022 2927.08 250.641L3018.44 319.162L3185.04 315.132L3350.29 311.102L3283.11 276.17C3144.73 202.274 2705.39 62.5476 2618.06 62.5476C2607.31 62.5476 2651.65 89.419 2716.14 123.005ZM293.738 429.332C143.261 548.908 49.2137 681.918 29.0602 808.211L21 855.234H278.96C420.032 855.234 535.574 851.204 535.574 844.486C535.574 839.112 544.98 794.775 554.385 746.408C577.224 638.925 617.531 551.595 686.052 461.576C714.265 422.615 737.107 387.683 737.107 382.308C737.107 375.59 653.805 371.56 553.04 371.56H367.631L293.738 429.332ZM770.693 441.426C687.394 536.816 617.531 681.918 606.783 778.653L598.72 855.234H1083.74L1093.14 766.561C1103.89 668.483 1136.14 544.877 1179.13 448.144C1195.25 411.867 1207.34 379.623 1207.34 376.935C1207.34 374.247 1122.7 371.56 1020.59 371.56H833.841L770.693 441.426ZM2622.09 394.401C2626.12 407.836 2646.27 457.546 2666.43 505.914C2686.58 554.282 2712.11 652.36 2724.2 723.568L2744.35 855.235H3222.65V816.272C3222.65 741.034 3168.91 605.336 3101.73 509.944C3005 371.56 3006.34 371.56 2795.41 371.56C2630.15 371.56 2615.37 372.905 2622.09 394.401ZM3088.3 380.965C3088.3 386.341 3112.48 425.302 3143.38 468.294C3209.22 562.343 3258.93 681.918 3273.71 778.653L3283.11 848.517H3793.66L3792.31 805.524C3786.94 698.041 3640.49 496.511 3506.14 409.179C3447.03 372.905 3440.31 371.56 3266.99 371.56C3168.91 371.56 3088.3 375.59 3088.3 380.965ZM31.7479 958.687C53.2438 1075.57 158.041 1226.05 287.02 1325.47L356.883 1379.22H546.322C651.12 1379.22 737.107 1376.53 737.107 1372.5C737.107 1368.47 712.923 1332.19 682.021 1291.89C622.903 1213.96 550.352 1046.02 549.01 986.902C549.01 907.633 555.728 908.976 277.615 908.976H22.3423L31.7479 958.687ZM606.783 978.84C618.873 1072.89 692.769 1223.37 769.35 1308.01L833.841 1379.22H1021.93C1167.04 1379.22 1208.69 1375.19 1203.31 1361.75C1144.2 1224.71 1125.39 1168.28 1107.92 1080.95C1095.83 1023.18 1086.43 961.374 1086.43 942.565V908.976H598.72L606.783 978.84ZM2732.26 985.558C2720.17 1093.04 2690.61 1205.9 2651.65 1294.57C2632.84 1336.22 2618.06 1371.15 2618.06 1373.84C2618.06 1376.53 2701.36 1379.22 2803.47 1379.22H2988.88L3037.25 1328.16C3132.64 1228.74 3222.65 1041.99 3222.65 941.221V908.976H2741.67L2732.26 985.558ZM3276.4 945.252C3276.4 1043.33 3209.22 1203.21 3123.23 1316.07L3074.86 1379.22H3460.46L3519.58 1336.22C3656.62 1236.8 3770.82 1078.26 3795 951.97L3804.4 908.976H3276.4V945.252ZM481.834 1445.05C481.834 1474.61 841.901 1608.96 1059.55 1661.36C1219.44 1698.98 1228.84 1694.95 1113.3 1637.18C1012.53 1587.46 911.765 1522.97 840.559 1463.86C805.627 1435.64 789.504 1432.96 641.714 1432.96C554.385 1432.96 481.834 1438.33 481.834 1445.05ZM952.072 1474.61C977.598 1496.1 1050.15 1540.44 1113.3 1572.68C1228.84 1633.14 1478.74 1719.13 1512.33 1712.41C1523.08 1709.73 1493.52 1681.51 1447.84 1647.92C1403.5 1615.68 1337.67 1553.88 1304.08 1510.88L1243.62 1432.96H1074.34L905.047 1434.3L952.072 1474.61ZM2499.83 1527C2454.15 1578.06 2388.32 1639.86 2354.73 1664.05C2321.14 1688.23 2298.3 1709.73 2305.02 1711.07C2329.2 1719.13 2560.29 1645.24 2667.77 1594.18C2787.35 1539.1 2900.2 1466.54 2900.2 1446.39C2900.2 1438.33 2833.03 1432.96 2743.01 1432.96H2584.47L2499.83 1527ZM2940.51 1494.76C2900.2 1527 2808.84 1584.78 2738.98 1621.05C2669.12 1657.33 2620.75 1686.88 2631.5 1688.23C2663.74 1688.23 2871.99 1637.18 2987.53 1599.56C3124.58 1553.88 3343.57 1459.83 3343.57 1445.05C3343.57 1438.33 3269.68 1432.96 3179.66 1434.3H3014.41L2940.51 1494.76V1494.76Z" fill="#C308F3" stroke="#08F31C" stroke-width="34.2664" stroke-linecap="square"/>
<path d="M1224.31 1696.31C1224.31 1700.34 1227 1703.02 1231.03 1703.02C1235.06 1703.02 1237.75 1700.34 1237.75 1696.31C1237.75 1692.27 1235.06 1689.59 1231.03 1689.59C1227 1689.59 1224.31 1692.27 1224.31 1696.31ZM2594.72 1696.31C2594.72 1700.34 2597.41 1703.02 2601.44 1703.02C2605.47 1703.02 2608.16 1700.34 2608.16 1696.31C2608.16 1692.27 2605.47 1689.59 2601.44 1689.59C2597.41 1689.59 2594.72 1692.27 2594.72 1696.31Z" fill="black"/>
</svg>
