<svg width="1030" height="1242" viewBox="0 0 1030 1242" fill="none" xmlns="http://www.w3.org/2000/svg">
<path d="M600.502 1.90002C599.402 3.00002 595.802 5.39999 592.502 7.29999C589.202 9.19999 582.502 13 577.602 15.8C572.702 18.7 568.602 21 568.402 21C568.202 21 565.902 22.3 563.302 23.8C560.602 25.4 554.202 29.1 549.002 32C525.302 45.3 502.001 63 485.701 80C478.701 87.3 473.002 93.9 473.002 94.6C473.002 96.1 472.702 96.4 463.002 104.1C436.002 125.4 421.401 146.1 406.701 184C395.501 212.9 391.402 228.6 390.502 246.5C389.802 259.3 389.702 259.7 385.402 268.2C378.102 282.7 374.102 296.4 371.102 316.7C369.802 325.5 369.802 358.7 371.102 365.5C373.402 377.9 373.402 378 369.102 386.6C358.902 406.8 356.302 436.6 362.402 463.1C363.702 468.8 365.502 476.9 366.502 481C367.402 485.1 368.801 490.6 369.701 493.2C371.001 497.4 371.002 498.5 369.502 504.2C363.102 528.4 363.702 565.1 370.902 589C375.802 605.2 377.102 609.2 379.102 613C381.702 618.2 388.002 633.4 388.002 634.7C388.002 635.3 388.702 636.3 389.502 637C391.702 638.8 391.402 640.3 387.802 645.6C380.202 656.8 375.802 673.3 375.002 693.6C375.002 694.3 367.701 699.7 358.701 705.7C349.701 711.8 338.501 719.8 333.701 723.6C328.901 727.4 322.202 732.4 318.802 734.7C315.302 737 310.902 740 309.002 741.5C296.302 751 292.602 753.9 285.502 760C270.902 772.6 253.202 786.2 236.002 798C212.802 814 199.401 823.7 189.601 831.6C180.101 839.2 179.002 839.8 171.502 841.5C167.102 842.4 159.902 844.3 155.502 845.7C141.802 850 113.602 865.1 108.902 870.7C101.902 879.1 82.8015 919.5 79.9015 932C79.3015 934.5 77.8015 939 76.5015 942C70.8015 955.6 69.1015 960.1 66.5015 969C63.3015 980.1 60.0015 985.9 51.6015 995.5C48.1015 999.3 45.1015 1003.2 44.8015 1004.1C44.1015 1006 47.6015 1018.8 51.3015 1027.9C53.6015 1033.6 53.7015 1034.6 52.6015 1036.9C51.8015 1038.3 49.2015 1046.8 46.7015 1055.7C44.2015 1064.6 41.6015 1072.8 41.1015 1073.9C40.4015 1075.2 40.3015 1076.7 40.9015 1078.3C41.6015 1080 41.5015 1081.1 40.5015 1082.1C38.5015 1084.2 33.3015 1097.9 31.0015 1107.3C28.0015 1119 24.5015 1132.3 19.9015 1148.7C14.0015 1170 12.2015 1177.5 10.5015 1189C8.20152 1204.6 2.60154 1232.8 0.40154 1240.2C-0.0984599 1241.9 24.8015 1242 514.502 1242H1029.1L1028.4 1236.7C1025.8 1215 1018.8 1179.1 1012.5 1154.5C1005.4 1127.1 1005.2 1126.2 999.402 1109.2L993.902 1092.8L994.502 1080.5C995.102 1067 993.902 1056.7 991.502 1054C990.402 1052.8 987.602 1051.9 983.902 1051.5C979.902 1051 977.702 1050.3 977.302 1049.3C977.002 1048.5 977.702 1045 978.902 1041.6C980.002 1038.3 981.002 1034.4 981.002 1033.1C981.002 1028.3 968.001 1000.6 954.701 977C941.901 954.3 938.902 948.6 937.302 943.5C935.502 938.1 934.002 936.4 913.502 917.5C900.702 905.7 889.102 895.8 874.502 884.4C862.802 875.2 826.302 847.7 818.402 842.2C812.502 838.1 812.002 837.4 804.302 822.2C799.902 813.6 795.002 803.6 793.402 800C789.202 790.4 775.201 765.6 768.701 756.4L763.002 748.3L766.002 734.9C767.602 727.5 769.802 714.3 771.002 705.5C773.802 684 774.102 683 781.102 675.3C792.002 663.3 803.302 636.3 814.902 594.9C817.102 586.7 821.002 565.3 821.002 560.8C821.002 556.4 824.301 548.8 829.201 541.9C838.901 528.3 843.202 516.9 849.602 488.2C851.002 481.9 853.002 462.7 853.002 456.1C853.002 444.9 850.402 423.2 848.502 417.5C846.202 410.8 846.902 405.5 852.402 389C865.202 350.2 867.302 324.2 859.402 301.8C854.102 286.5 853.802 285.5 854.002 277.4C854.202 262.9 847.602 238.3 840.502 227C838.602 223.9 838.202 221.7 837.802 209.3L837.302 195.2L832.102 186.6C829.302 181.9 827.002 177.9 827.002 177.6C827.002 177.3 824.102 173.3 820.602 168.7C813.802 160 800.802 147 798.802 147C795.802 147 789.402 140.9 783.102 132.1C774.302 120 764.202 109.7 751.802 100.4C727.702 82.4 701.102 68.8 676.502 62C672.102 60.8 668.102 59.4 667.602 58.9C667.002 58.4 665.702 58 664.502 58C661.802 58 647.702 47.6 642.502 41.8C640.302 39.3 636.302 34.2 633.502 30.4C619.702 11.1 608.802 0 603.802 0C603.002 0 601.602 0.900024 600.502 1.90002ZM646.502 285C649.802 288.7 654.902 289.4 663.402 287.6C670.802 285.9 671.202 285.9 676.502 287.9C680.402 289.4 684.401 290 689.701 290H697.302L702.502 294.9C707.302 299.4 716.402 304.7 725.002 308C726.902 308.7 730.302 311 732.502 313.1C734.702 315.2 737.602 317.1 739.002 317.5C741.302 318 741.502 318.6 741.502 323.1C741.502 329.1 743.402 331 749.102 331C753.002 331 754.002 332.1 754.002 336.5C754.002 338.7 760.402 345.6 764.802 347.9C767.802 349.5 768.702 354.8 766.302 356.5C765.302 357.2 764.302 357.6 764.002 357.3C763.702 357.1 764.302 356.4 765.302 355.9C766.202 355.3 766.802 354.5 766.502 353.9C765.502 352.4 761.002 352.8 761.002 354.4C761.002 355.2 760.002 355.8 758.802 355.9C754.502 356 753.002 356.3 753.002 357.2C753.002 357.7 752.602 357.9 752.102 357.5C750.602 356.6 745.002 360.5 742.902 363.9C740.902 367.1 738.002 368.1 738.002 365.5C738.002 363.4 736.302 363.6 735.002 366C734.402 367.1 733.002 368.5 731.902 369.1C730.002 370.1 729.902 369.9 730.502 368C731.102 366.1 731.002 366 729.302 366.9C728.302 367.4 726.402 369.1 725.102 370.5C722.702 373.1 721.002 373.7 721.002 372C721.002 371.4 720.602 371 720.002 371C719.502 371 719.002 371.6 719.002 372.4C719.002 373.2 718.002 374.6 716.802 375.5C714.702 376.9 714.402 376.9 713.302 375.3C711.802 373.3 711.002 373.9 710.602 377.2C710.202 381.4 709.002 382.4 707.302 380.1C705.702 377.8 704.002 377.3 704.002 379.3C704.002 381 700.302 383.2 699.502 382C698.602 380.5 697.002 381.8 697.002 383.9C697.002 386.6 694.402 388.5 693.602 386.5C692.802 384.2 691.002 385.6 691.002 388.6C691.002 390.8 690.802 390.9 689.002 390C686.702 388.8 685.002 389.4 685.002 391.6C685.002 392.4 684.002 393 682.402 393C679.602 393 674.302 398 672.102 402.7C671.302 404.3 670.502 405 670.302 404.2C669.602 402.3 668.002 402.8 667.002 405.2C666.502 406.5 665.102 408.7 663.902 410.2C661.802 412.7 662.101 416.3 664.201 414.2C664.801 413.6 665.802 413.4 666.402 413.6C667.002 413.8 668.302 412.7 669.302 411C671.502 407.4 673.302 407.1 672.402 410.5C671.502 414 673.602 413.7 675.502 410.1C677.502 406.2 678.801 405.4 678.201 408.5C677.601 412 680.302 411.8 681.902 408.3C682.902 406.2 683.302 405.9 684.002 407C684.702 408.2 685.202 408.2 686.802 406.7C688.202 405.4 688.902 405.3 689.902 406.3C690.902 407.2 691.502 407 693.102 404.8C694.202 403.4 696.002 401.1 697.102 399.8L699.102 397.5L698.002 399.9C697.202 401.4 697.202 402.6 697.802 403.2C698.502 403.9 699.902 402.6 702.102 399.6C704.502 396.3 706.002 395.1 707.402 395.4C709.402 395.9 716.002 391.3 716.002 389.4C716.002 387.5 719.702 384.7 720.502 386C721.002 386.7 722.302 386.3 724.502 384.6C726.402 383.1 728.602 382 729.402 382C730.402 382 731.002 381.1 731.002 379.6C731.002 378.2 731.402 376.9 731.902 376.6C732.402 376.2 732.602 377 732.302 378.2C731.902 380 732.702 379.5 735.802 376.1C738.602 372.9 739.901 372.1 740.201 373.1C740.601 374.1 742.202 373.1 745.902 369.5C749.402 366.1 751.002 365.1 751.002 366.3C751.002 367.2 751.202 368 751.402 368C751.702 368 754.002 365.9 756.502 363.2C760.702 358.9 761.002 358.7 760.402 361.2C759.702 364.4 760.202 364.6 763.302 362.5C765.502 361.1 765.502 361.1 765.602 366.8C765.602 372 768.002 380.6 769.102 379.6C769.302 379.3 770.602 379.9 771.902 380.9C773.802 382.4 774.402 384 775.002 390.8C775.702 397.8 775.602 399.8 773.802 404.7C772.002 410 771.902 411.1 773.002 417.5C773.702 421.3 774.902 425.7 775.602 427.2C777.402 430.7 778.002 430.6 758.402 428C739.302 425.4 734.402 425.5 724.002 428.4C706.302 433.4 686.502 441.1 686.502 443.1C686.502 444.9 689.302 444.5 701.002 441C706.202 439.4 715.702 436.8 722.002 435.2C734.602 432 738.202 432 757.502 435.5C768.602 437.5 773.602 437.6 775.502 436C776.702 435 777.002 435 777.002 436.1C776.902 440.9 775.902 441.7 769.002 442.9C765.202 443.5 760.102 444 757.602 444C753.802 444 750.902 445.3 752.102 446.5C752.302 446.7 755.502 447.1 759.102 447.4C763.902 447.8 766.802 447.6 769.402 446.5C771.302 445.7 773.502 445 774.102 445C775.802 445 774.502 450.3 771.002 457.5C769.402 460.8 767.602 465.6 766.902 468.3C765.502 474.1 766.202 482.4 768.302 484.8C769.702 486.3 769.702 487.2 768.502 493C767.802 496.6 766.702 504.6 766.102 510.9C765.002 522.8 763.902 525.7 759.402 528.6C755.502 531.2 752.302 537.8 751.102 545.6C750.502 549.5 748.902 555.2 747.602 558.2C746.202 561.3 744.302 566.4 743.402 569.6C742.502 572.9 741.101 576.5 740.201 577.7C739.401 579 739.002 580.6 739.302 581.4C739.602 582.2 738.502 584.6 736.902 586.6C735.302 588.7 733.502 592.3 732.902 594.6C732.302 596.9 731.202 599.1 730.502 599.4C729.102 599.9 729.602 596.4 731.102 595.5C732.302 594.7 730.902 591.7 728.602 590C724.502 587 718.702 583.9 717.602 584.3C717.002 584.5 718.902 586.4 721.802 588.4C730.302 594.6 729.102 596.2 712.602 600.5C706.802 602 699.002 605.1 691.402 609L679.502 615.2L664.102 614.5C655.702 614.2 645.602 613.2 641.602 612.4C636.002 611.3 629.302 611.1 610.002 611.6C596.502 612 583.402 612.2 580.902 612.2C573.402 612 566.302 609.6 553.502 603.2C537.002 594.9 529.202 591.4 522.602 589.5C516.602 587.7 514.002 585.8 514.002 583.3C514.002 582.4 516.702 579.1 520.002 575.9C523.302 572.7 525.701 569.9 525.201 569.6C524.801 569.4 521.302 571.8 517.402 574.9L510.402 580.7L507.201 574.6C504.401 569.2 504.101 567.9 504.701 563.2L505.302 558L496.701 549.5C489.201 542.1 488.202 540.7 488.902 538.7C491.902 530.6 490.802 513.4 487.002 510.7C485.902 509.9 485.102 507.4 484.602 503C483.602 494.2 480.801 488.1 477.201 486.8L474.302 485.7L474.802 476.9C475.202 469.9 474.901 467.6 473.701 465.7C472.501 463.9 472.402 462.4 473.002 459.5C473.502 457.3 473.502 452.1 472.902 447.2L472.002 438.8L476.402 433.9C482.302 427.4 484.502 420.8 483.502 412.6C482.502 403.8 482.602 403.1 484.902 396.5C486.502 392.1 487.002 388.7 486.802 383.9C486.602 377.8 486.802 377.1 489.802 373.5C491.502 371.3 494.602 366.4 496.602 362.5C498.602 358.7 500.402 355.4 500.602 355.2C500.702 355 501.802 355.4 503.002 356C505.502 357.3 506.901 356.5 505.201 354.8C501.701 351.3 506.102 351 510.602 354.5C514.802 357.7 515.402 357.6 514.502 354.2C513.902 351.7 514.302 351.9 518.902 356.5C523.402 360.8 524.002 361.2 524.002 359.2C524.002 357.2 524.702 357.7 529.002 362.2C532.702 366.2 534.202 367.2 534.802 366.2C535.502 365.2 536.602 365.9 539.402 369.2C542.502 372.7 543.102 373.1 542.602 371.1C542.402 369.8 542.502 369.1 543.002 369.6C543.402 370.1 544.001 371.4 544.201 372.5C544.401 373.6 545.202 374.4 545.902 374.2C546.702 374 547.901 374.8 548.701 376C549.501 377.1 550.602 377.8 551.102 377.5C551.602 377.1 552.002 377.4 552.002 377.9C552.002 379.4 555.002 379.3 555.002 377.7C555.002 376.5 558.902 380.9 559.002 382.3C559.002 382.7 560.502 384.3 562.302 386C564.502 388 566.202 388.7 567.802 388.3C569.002 388 570.002 388.2 570.002 388.6C570.002 389.1 571.302 391 572.902 392.9C576.002 396.7 578.802 396.5 576.902 392.7C576.002 390.8 576.102 390.8 578.002 393C584.802 400.9 584.302 400.5 585.302 398.8C586.202 397.4 586.601 397.5 588.201 399.4C589.601 401 590.202 401.2 590.802 400.2C591.502 399.2 592.102 399.5 593.402 401.4C595.802 405.1 597.402 404.7 596.602 400.7C596.002 397.8 596.101 397.7 597.201 399.5C597.901 400.6 599.002 402.3 599.502 403.3C601.002 406.1 602.502 405.3 602.402 402C602.302 400.3 602.402 399 602.602 399C602.702 399 603.802 400.7 605.002 402.9C606.702 405.9 607.802 406.7 610.102 406.8C613.702 406.9 613.702 406.2 610.102 401.6C608.502 399.5 606.902 397.4 606.602 396.7C606.102 395.8 605.902 395.8 605.402 396.8C604.602 398.4 602.002 396.5 602.002 394.3C602.002 391.8 594.202 384.8 592.102 385.5C590.802 385.9 590.101 385.4 589.701 384C589.301 382.4 588.601 382.1 586.701 382.5C584.601 383.1 584.102 382.8 583.802 380.9C583.402 378.2 581.002 377.1 581.002 379.6C581.002 381.2 580.902 381.2 579.002 379.5C577.902 378.5 577.002 376.8 577.002 375.7C577.002 374.3 576.701 374 575.701 374.8C574.301 376 571.002 374.1 571.002 372.1C571.002 371.5 570.702 371 570.302 371C568.902 371.1 566.002 373.7 566.502 374.4C566.802 374.7 566.502 374.6 565.802 374C565.202 373.5 564.602 371.9 564.402 370.4C564.002 367 563.402 366.4 561.602 367.9C559.602 369.6 556.002 367.6 556.002 365C556.002 363.3 555.702 363.2 554.102 364.2C552.502 365.2 551.602 364.9 548.602 362.2C544.802 358.9 541.702 357.7 544.002 360.5C546.402 363.4 544.202 363 540.902 359.9C537.802 357 537.501 356.9 536.201 358.7C534.901 360.4 534.802 360.4 532.902 358.1C531.902 356.8 531.002 355.2 531.002 354.4C531.002 353.6 530.402 353 529.602 353C528.902 353 527.702 352.3 526.902 351.4C526.202 350.6 524.802 350.1 523.802 350.3C522.802 350.6 522.002 350.4 522.002 349.8C522.002 349.3 521.602 349.1 521.102 349.4C520.702 349.7 519.402 349.3 518.402 348.6C517.102 347.6 516.102 347.5 515.302 348.2C514.302 349 514.002 348.8 514.002 347.6C514.002 346.6 513.102 346 511.602 346C508.702 346 507.202 347.8 509.402 348.6C510.302 348.9 511.002 349.6 511.002 350.1C511.002 350.5 509.502 350 507.602 348.9C504.202 346.9 504.202 346.9 505.602 343.5C506.402 341.6 507.002 338.9 507.002 337.5C507.002 335.9 507.602 335 508.602 335C513.602 335 534.902 319.1 536.502 314.1C536.902 312.8 538.402 312.1 542.002 311.7C546.002 311.2 548.702 309.9 555.302 305.2C565.902 297.5 575.602 292.5 577.302 293.8C580.202 296.1 586.001 295.8 596.701 292.9C603.001 291.2 608.601 290.2 610.201 290.6C613.101 291.2 616.801 289.7 618.701 287.1C619.601 285.9 621.301 285.6 625.701 285.8C628.901 286 633.502 285.4 636.002 284.6C642.302 282.6 644.402 282.7 646.502 285ZM751.002 360.4C751.002 360.6 750.202 361.4 749.302 362.1C747.702 363.4 747.602 363.3 748.902 361.7C750.202 360.1 751.002 359.6 751.002 360.4ZM542.302 363.5C543.302 364.9 543.802 366 543.502 366C542.902 366 539.002 362.2 539.002 361.5C539.002 360.3 540.702 361.3 542.302 363.5ZM551.002 367.5C552.302 368.9 553.102 370 552.802 370C552.602 370 551.302 368.9 550.002 367.5C548.702 366.1 547.901 365 548.201 365C548.401 365 549.702 366.1 551.002 367.5ZM736.002 368.7C736.002 369.7 731.801 374 730.701 374C730.301 374 730.901 372.7 732.201 371.1C734.401 368.2 736.002 367.2 736.002 368.7ZM551.502 373.8C550.802 374.5 547.002 370.9 547.002 369.7C547.002 369.1 548.102 369.7 549.502 371C550.902 372.3 551.802 373.6 551.502 373.8ZM727.002 372.3C727.002 372.5 725.802 373.7 724.302 375.1L721.502 377.5L723.902 374.7C726.202 372.2 727.002 371.5 727.002 372.3ZM559.102 376.3C560.302 378.5 560.302 378.5 558.102 376.6C557.002 375.5 556.002 374.3 556.002 373.8C556.002 372.4 557.902 373.9 559.102 376.3ZM566.002 379.4C566.002 380 565.302 379.5 564.502 378.4C563.702 377.4 563.002 376.1 563.002 375.6C563.002 375 563.702 375.5 564.502 376.6C565.302 377.6 566.002 378.9 566.002 379.4ZM726.002 379.5C724.702 380.9 723.401 381.8 723.201 381.5C722.901 381.2 723.702 379.9 725.002 378.5C726.302 377.1 727.602 376.2 727.802 376.5C728.102 376.8 727.302 378.1 726.002 379.5ZM572.002 380.1C572.002 380.7 571.602 380.8 571.002 380.5C570.502 380.2 570.002 379.4 570.002 378.9C570.002 378.3 570.502 378.2 571.002 378.5C571.602 378.8 572.002 379.6 572.002 380.1ZM717.002 378.4C717.002 378.6 716.202 379.4 715.302 380.1C713.702 381.4 713.602 381.3 714.902 379.7C716.202 378.1 717.002 377.6 717.002 378.4ZM717.502 383C716.502 384.1 715.501 384.8 715.201 384.5C714.901 384.2 715.502 383.1 716.502 382C717.502 380.9 718.502 380.2 718.802 380.5C719.102 380.8 718.502 381.9 717.502 383ZM566.002 384.2C566.002 384.8 565.302 384.7 564.502 384C563.702 383.3 563.002 382.3 563.002 381.8C563.002 381.2 563.702 381.3 564.502 382C565.302 382.7 566.002 383.7 566.002 384.2ZM579.502 383C580.502 384.1 580.902 385 580.402 385C579.902 385 578.901 384.1 578.201 383C577.501 381.9 577.102 381 577.302 381C577.502 381 578.502 381.9 579.502 383ZM573.002 387.4C573.002 387.9 572.302 387.5 571.502 386.4C570.702 385.4 570.102 384 570.102 383.5C570.102 382.9 570.702 383.4 571.502 384.4C572.302 385.5 573.002 386.8 573.002 387.4ZM710.802 385C709.602 386.9 708.002 387.7 708.002 386.4C708.002 385.8 711.002 383.1 711.802 383C711.902 383 711.502 383.9 710.802 385ZM703.102 388.3L700.802 390.5L702.502 387.7C703.502 386.2 704.502 385.2 704.802 385.5C705.102 385.8 704.302 387.1 703.102 388.3ZM580.002 389C580.002 389.5 579.802 390 579.602 390C579.302 390 578.802 389.5 578.502 389C578.202 388.4 578.402 388 578.902 388C579.502 388 580.002 388.4 580.002 389ZM585.002 389.5C585.702 390.4 585.801 391 585.201 391C584.701 391 584.002 390.3 583.602 389.5C583.302 388.7 583.202 388 583.402 388C583.602 388 584.302 388.7 585.002 389.5ZM697.002 390.5C696.302 391.3 695.301 392 694.701 392C694.201 392 694.502 391.1 695.502 390C697.602 387.7 699.002 388.1 697.002 390.5ZM711.002 390.5C710.302 391.4 709.501 391.8 709.201 391.5C708.901 391.3 709.302 390.4 710.002 389.5C710.702 388.6 711.502 388.2 711.802 388.5C712.102 388.7 711.702 389.6 711.002 390.5ZM592.002 393.1C592.002 393.7 591.602 393.8 591.002 393.5C590.502 393.2 590.002 392.4 590.002 391.9C590.002 391.3 590.502 391.2 591.002 391.5C591.602 391.8 592.002 392.6 592.002 393.1ZM705.002 391.4C705.002 391.6 704.302 392.3 703.502 393C702.202 394.1 702.102 394 702.602 392.6C703.102 391.2 705.002 390.3 705.002 391.4ZM599.602 396.8C598.702 397.6 597.002 395.8 597.002 394.2C597.102 392.7 597.202 392.7 598.502 394.4C599.302 395.5 599.802 396.5 599.602 396.8ZM696.602 395.8C694.902 397.4 694.802 397.4 696.102 395.3C696.802 394.1 697.602 393.3 697.902 393.6C698.202 393.8 697.602 394.8 696.602 395.8ZM684.002 400C683.402 401.1 682.702 402 682.402 402C682.202 402 682.402 401.1 683.002 400C683.602 398.9 684.302 398 684.602 398C684.802 398 684.602 398.9 684.002 400ZM676.602 404.2C675.102 406.3 675.002 406.4 675.002 404.4C675.002 403.3 675.601 401.8 676.201 401.2C678.101 399.3 678.402 401.6 676.602 404.2ZM691.102 402.3C690.102 403.2 690.002 403.1 690.602 401.7C690.902 400.7 691.502 400.2 691.802 400.5C692.102 400.8 691.802 401.6 691.102 402.3ZM519.302 592.6C525.002 595.5 535.202 604.6 549.502 619.6C579.402 650.9 578.601 650.3 592.701 655.6C602.801 659.4 612.602 661.1 627.802 661.7C638.702 662.1 643.602 661.9 648.802 660.7C652.502 659.9 657.502 658.9 659.902 658.6C666.302 657.6 669.501 655.6 674.201 649.2C683.901 636.1 701.202 618 710.802 610.8C725.602 599.6 729.602 597.5 726.602 602.2C725.902 603.5 724.302 607.8 723.102 611.7C721.602 616.9 720.301 619.3 718.701 620.1C717.501 620.7 714.902 622.8 712.902 624.7C710.502 626.9 709.002 627.8 708.502 627.1C707.402 625.3 705.902 626.9 706.502 629.3C706.902 631 705.202 633.5 699.402 640C695.202 644.7 691.402 649.3 690.902 650.3C690.402 651.2 687.702 653.1 685.002 654.5C680.402 656.9 679.902 657.4 678.302 663C677.002 667.3 676.102 668.9 675.002 668.7C673.002 668.3 665.002 671.7 662.402 674.1C660.802 675.6 658.702 676.1 654.902 676.2C641.302 676.5 617.401 675.9 606.201 675C594.401 673.9 593.601 673.7 588.701 670.3C582.301 665.9 577.502 661 573.002 654.6C571.202 651.8 565.402 645.5 560.302 640.6C555.102 635.6 545.601 625.2 539.201 617.5C532.701 609.9 525.502 602.1 523.002 600.3C516.402 595.6 515.002 594.2 515.002 592.5C515.002 590.6 515.402 590.6 519.302 592.6ZM557.102 607.1C561.702 609.4 564.402 614.4 563.402 618.5C562.602 621.8 561.602 621.7 558.602 617.7C556.102 614.5 551.602 605 552.602 605C552.902 605 554.902 605.9 557.102 607.1ZM694.002 614.2C691.902 619.3 688.902 623.3 687.802 622.2C686.302 620.7 689.102 613.4 691.902 611.8C695.302 609.9 695.502 610.2 694.002 614.2ZM578.502 615C581.802 615.4 587.202 615.3 590.402 614.9C596.402 614.1 599.002 614.9 605.302 619.3C606.502 620.1 607.302 620.2 607.802 619.4C609.202 617.4 617.001 614 618.701 614.7C619.701 615.1 622.502 616.7 624.902 618.4L629.302 621.3L631.902 618.2C634.802 614.6 637.301 614.2 645.701 616C648.301 616.6 654.802 617.4 660.002 617.8C671.102 618.6 671.602 619.2 667.302 626.5L664.502 631.2L658.402 630.6C652.602 630 652.302 630.1 650.902 632.6C648.702 636.9 645.701 637.4 638.701 634.6C632.201 631.9 632.302 631.9 626.902 636.3C623.402 639 623.102 639.1 619.902 637.6C618.002 636.8 614.202 634.8 611.402 633.2L606.402 630.2L602.102 632.1L597.902 634L592.402 630.5C587.802 627.5 584.102 623.3 582.602 619.5C582.402 618.9 581.902 618.8 581.502 619.2C581.002 619.6 581.401 621.8 582.201 623.9C583.801 627.8 583.802 628 581.302 630.5C579.902 631.9 578.402 633 578.102 633C576.002 633 569.901 624.1 566.201 615.6L564.902 612.7L568.701 613.5C570.801 613.9 575.202 614.6 578.502 615ZM686.602 616.7C685.202 620.4 679.502 629 678.502 629C676.102 628.9 673.002 625.1 673.002 622.2C673.002 619.4 673.302 619.2 679.002 618C682.302 617.3 685.302 616.3 685.602 615.9C686.502 614.3 687.202 615 686.602 616.7ZM562.902 627.5L563.002 630.5L559.502 626.9C557.102 624.5 556.102 622.8 556.602 621.7C557.602 618.9 562.902 623.7 562.902 627.5ZM573.902 632C575.702 634.2 577.802 636 578.602 636C579.302 636 580.901 634.6 582.201 633C584.901 629.2 586.702 629.2 592.902 633C597.702 636 602.002 636.4 603.602 633.9C604.502 632.3 607.402 632.9 613.402 636.1C622.902 641.1 624.202 641.3 629.002 637.8L633.102 634.8L639.402 636.9C642.802 638 646.402 639 647.302 639C649.002 639 652.002 636.5 653.602 633.7C654.302 632.6 655.602 632.4 659.802 633C664.902 633.6 665.202 633.5 668.102 630.3L671.002 626.9L674.002 629C675.702 630.2 677.002 631.6 677.002 632.1C677.002 634.2 679.301 632.7 682.201 628.5C685.001 624.5 685.502 624.2 686.602 625.8C688.502 628.2 688.402 628.5 684.902 632.5C681.902 635.9 678.702 637 677.502 635C676.502 633.3 674.102 635.1 673.002 638.5C670.902 644.7 668.601 645.7 661.201 643.5C659.301 642.9 658.802 643.3 657.502 646.4C655.502 651.1 654.002 651.6 647.002 650.2C642.202 649.2 640.802 649.2 638.402 650.5C634.402 652.5 629.702 652.4 625.002 650C620.202 647.6 618.202 647.5 615.802 649.7C614.002 651.3 613.601 651.2 608.701 649.1C602.501 646.3 597.502 645.4 596.602 646.9C595.502 648.7 591.102 648.2 588.002 646C585.802 644.5 584.202 644.1 581.302 644.5C576.902 645.2 576.802 645.2 570.902 638C567.702 634.2 566.101 631.2 565.701 628.4C564.901 623.2 565.902 622.1 568.502 625.5C569.602 626.9 572.002 629.9 573.902 632ZM630.002 678.6C642.902 679.1 654.302 679.4 655.302 679.4C660.002 679.2 653.902 683.7 647.502 685C642.002 686.1 639.702 687.9 638.502 691.9C637.802 694.1 637.702 694 635.902 690.1C631.902 681.1 625.401 678.2 622.201 684.1C620.501 687.1 620.302 687.2 614.802 686.7C609.602 686.2 608.602 685.8 604.802 681.8L600.502 677.5L603.502 677.6C605.202 677.7 617.102 678.1 630.002 678.6ZM576.102 692.2C579.802 694.1 580.102 694.5 578.302 694.8C575.402 695.2 570.002 702.1 570.002 705.3C570.002 708.5 571.802 709.9 576.302 710.2C580.502 710.5 580.601 710.7 578.201 713.8C576.101 716.5 572.202 716.5 570.902 713.7C570.402 712.8 569.602 711.2 569.102 710.2C568.702 709.3 567.401 708.4 566.201 708.2C563.401 707.8 561.202 702.4 562.802 699.9C563.502 698.9 564.002 697.2 564.002 696.1C564.002 694.1 568.302 690 570.402 690C571.102 690 573.602 691 576.102 692.2ZM671.802 699C674.102 699 683.002 708.1 683.002 710.5C683.002 714.5 679.902 721.9 677.902 722.5C675.702 723.2 668.102 720.1 666.002 717.5C664.602 715.8 664.601 715.7 666.701 716.9C668.601 717.9 669.302 717.7 671.002 716C672.102 714.9 673.002 713.2 673.102 712.2C673.402 708.4 672.802 705.4 671.302 703.1C670.002 701.1 669.302 700.9 665.902 701.4C663.802 701.7 662.002 701.6 662.002 701.2C662.002 699.8 666.302 698 668.502 698.5C669.602 698.8 671.102 699 671.802 699ZM629.002 730.2C630.702 732.4 630.702 732.4 626.602 734.6L622.502 736.8L621.802 734.2C620.702 730.4 621.602 728.5 624.602 728.2C626.202 728.1 627.802 728.8 629.002 730.2ZM628.002 742.2C628.002 742.7 627.302 747.3 626.302 752.3C625.202 758.8 624.402 760.8 623.902 759.5C623.102 757.4 622.702 742.6 623.502 741.9C624.402 740.9 628.002 741.2 628.002 742.2ZM516.201 904.7C520.301 906.7 522.101 910.2 523.701 918.8C525.601 929.1 525.502 941.1 523.502 949.6C522.602 953.4 522.002 958.5 522.102 961C522.202 963.5 522.202 968.9 522.102 973.1L522.002 980.7L510.302 986C503.802 989 497.602 992.1 496.502 993C495.402 993.9 491.702 996.6 488.302 999C482.702 1002.8 480.701 1005 482.701 1005C483.001 1005 487.302 1002.3 492.102 999C496.902 995.7 501.102 993 501.502 993C501.802 993 504.602 991.9 507.602 990.5C510.602 989.1 513.202 988 513.402 988C513.602 988 518.402 985.5 524.102 982.4C529.802 979.3 535.701 976.4 537.201 975.9C541.501 974.7 555.802 976.5 564.102 979.3C568.202 980.7 573.302 982.1 575.502 982.5C580.702 983.3 593.902 988.6 596.802 991C598.802 992.7 599.102 994 599.502 1003C600.002 1013.9 599.302 1016.6 594.802 1020.6C592.602 1022.6 591.102 1022.8 570.502 1023.3C549.602 1023.9 529.002 1026 526.602 1027.9C526.002 1028.3 523.802 1029 521.802 1029.4C519.702 1029.8 517.902 1030.4 517.602 1030.8C516.802 1032.2 526.202 1032.1 531.802 1030.6C543.302 1027.7 554.002 1026.7 569.802 1027.3C588.702 1027.9 597.002 1030 601.802 1035.4L604.701 1038.8L604.302 1049.6C603.802 1062 602.802 1065 598.502 1066.2C595.902 1067 572.801 1070.4 545.701 1074.1C536.601 1075.4 533.101 1077 539.701 1077C541.801 1077 548.502 1076.3 554.502 1075.5C568.302 1073.6 589.502 1071.7 597.902 1071.6C607.102 1071.5 607.901 1072.8 608.701 1089.2C609.301 1100.9 609.201 1101.8 607.201 1103.8C603.901 1107.1 583.802 1112 573.302 1112C568.302 1112 549.901 1117.7 547.701 1119.9C545.901 1121.7 550.802 1121.2 556.502 1119.1C568.702 1114.6 595.402 1112.6 599.402 1115.9C601.902 1118 601.702 1130.9 599.002 1134.3C596.002 1138.1 591.102 1140.7 585.502 1141.5C579.702 1142.4 559.902 1148.5 555.502 1150.8C553.902 1151.7 548.802 1154.6 544.302 1157.3C534.702 1162.9 517.501 1170.3 508.701 1172.6C505.301 1173.5 499.202 1175.3 495.102 1176.7C491.102 1178 487.402 1178.8 487.002 1178.3C484.202 1175.3 467.802 1141 465.602 1133.5C464.102 1128.5 461.702 1120.7 460.302 1116C458.902 1111.3 456.801 1104.6 455.701 1101C454.601 1097.4 451.202 1088.2 448.102 1080.5L442.502 1066.5L442.602 1051.3C442.602 1036.8 442.801 1036 445.201 1032.3C452.401 1021.4 458.002 1011.9 458.002 1010.6C458.002 1009.8 458.402 1008.9 459.002 1008.5C461.102 1007.2 475.302 986.5 478.902 979.3C484.302 968.5 489.702 950.4 490.302 940.5C491.002 930.4 493.402 921 497.102 914C503.402 902.2 507.501 900.2 516.201 904.7Z" fill="black"/>
<path d="M533 394.999C530.7 396.499 532.1 396.899 540 396.999C544.1 397.099 549.8 397.899 552.5 398.699C564.2 402.399 576.5 412.199 583.7 423.399C586.5 427.999 588.5 429.599 589.4 428.099C590.2 426.899 580.8 413.099 576.3 408.799C571 403.699 561.7 398.299 554.1 395.999C547.5 393.899 535.6 393.299 533 394.999ZM699 411.699C692.9 415.699 684.1 425.899 682.6 430.799C681.5 434.099 684.3 432.699 687.6 428.199C691.8 422.499 700.2 414.099 702.2 413.399C704.2 412.799 704.7 409.999 702.8 410.099C702.1 410.099 700.4 410.799 699 411.699ZM492.6 429.199C484.6 429.899 480 431.899 480 434.599C480 436.299 485.4 439.699 492.5 442.399C516.4 451.399 521.1 452.499 538.5 453.699C549.5 454.399 559 452.999 573.2 448.699C582.4 445.999 584 445.199 584 443.399C584 440.299 580.2 437.499 573.5 435.599C570.2 434.599 564.7 432.999 561.3 431.899C557.8 430.899 552.7 429.699 549.8 429.399C542 428.499 501.7 428.399 492.6 429.199ZM523.8 431.899C526 431.999 527 432.499 527 433.499C527 434.399 527.9 436.799 529 438.999C531.3 443.499 535.7 445.399 542.5 444.799C546.2 444.499 546.7 444.099 549.2 439.499C550.7 436.699 552.1 434.099 552.3 433.699C552.6 432.799 569.7 437.099 576.2 439.699C580.5 441.399 580 442.599 574 445.199C567.7 447.999 564.6 448.799 556.5 449.899C539.3 452.299 523.6 450.999 508.8 445.999C499.4 442.799 485.2 434.399 486.7 432.899C487.1 432.499 490.7 431.999 494.5 431.799C500.6 431.499 505.1 431.599 523.8 431.899ZM577.9 455.599C569.5 464.499 559.4 470.299 550.3 471.499C546.7 471.999 545 472.699 545 473.599C545 474.399 545.8 474.999 546.8 474.999C551.4 474.899 561.9 471.599 567.1 468.499C574.6 463.899 584.5 454.699 583.6 453.199C582.5 451.399 581.7 451.699 577.9 455.599ZM651.4 547.999C646.3 550.899 644 554.399 644 559.099C644 561.299 646.5 561.699 647.3 559.599C647.6 558.799 648.8 558.399 650.3 558.699C654.8 559.599 666 552.299 666 548.399C666 546.799 664.9 546.799 658.5 548.699C656.8 549.199 656.9 548.899 659 547.199L661.5 545.099L659 544.999C657.6 544.999 654.2 546.299 651.4 547.999ZM656 549.399C656 549.599 655.3 550.099 654.4 550.399C653.6 550.699 653.2 550.599 653.5 549.999C654.1 548.999 656 548.599 656 549.399ZM651.5 551.999C651.2 552.499 650.4 552.999 649.9 552.999C649.3 552.999 649.2 552.499 649.5 551.999C649.8 551.399 650.6 550.999 651.1 550.999C651.7 550.999 651.8 551.399 651.5 551.999ZM656.6 553.499C655.5 554.299 654.2 554.999 653.6 554.999C653.1 554.999 653.5 554.299 654.6 553.499C655.6 552.699 657 552.099 657.5 552.099C658.1 552.099 657.6 552.699 656.6 553.499ZM594.1 599.899C592.2 600.199 590.5 600.899 590.3 601.499C590.1 602.099 597.9 602.499 612.3 602.599C624.5 602.699 639.5 603.199 645.5 603.899C651.6 604.499 658.9 605.299 661.8 605.599C665.9 605.999 667 605.799 667 604.699C667 603.499 664.4 603.099 654.3 602.599C647.2 602.199 635.7 601.499 628.5 600.999C609.2 599.599 597.9 599.299 594.1 599.899ZM569.1 989.499C569.1 991.199 569.4 992.999 569.9 993.499C571.1 994.799 573 1004.2 573 1008.5C573 1012 574.3 1013.2 575.3 1010.6C576 1008.8 572.7 994.599 571.2 992.799C570.7 992.099 570 990.399 569.7 988.999C569.3 986.799 569.3 986.799 569.1 989.499ZM591.5 1050.9C590.7 1052.2 596.6 1065 597.9 1065C599.2 1065 599.3 1062.8 598.1 1061.4C597.7 1060.9 596.5 1058.3 595.5 1055.7C593.6 1050.7 592.5 1049.3 591.5 1050.9Z" fill="black"/>
</svg>
