<svg width="1024" height="1024" viewBox="0 0 1024 1024" fill="none" xmlns="http://www.w3.org/2000/svg">
<path d="M152.469 1024C154.067 1008.36 158.125 993.288 166.206 979.636C171.647 970.443 177.765 969.483 186.53 975.544C187.473 976.196 188.473 976.768 189.442 977.375C191.845 976.027 191.693 973.607 192.12 971.629C193.945 963.16 196.165 954.793 198.929 946.6C200.114 943.084 199.412 940.619 197.043 938.022C192.779 933.347 188.728 928.479 184.594 923.685C180.181 918.568 179.443 913.541 182.124 906.768C190.21 886.339 197.158 865.471 205.547 845.136C210.345 833.504 215.92 822.385 223.796 812.577C226.687 808.977 226.739 806.781 223.099 803.603C200.487 783.853 190.961 758.227 189.679 728.801C189.027 713.847 187.555 698.929 186.478 683.993C185.928 676.357 185.335 668.723 184.929 661.079C182.359 612.665 180.979 564.215 182.045 515.74C182.627 489.278 182.86 462.782 184.895 436.376C187.931 397.001 199.324 360.605 224.509 329.411C243.75 305.579 267.938 287.78 294.3 272.674C299.509 269.689 304.767 266.805 310.332 264.537C313.036 263.435 314.368 261.704 314.936 258.677C317.756 243.659 320.891 228.701 323.864 213.711C325.002 207.977 328.312 204.367 333.054 203.918C338.229 203.428 341.944 206.12 344.134 212.053C347.56 221.335 348.382 231.183 350.272 240.796C351.702 248.062 351.648 248.275 358.812 245.987C389.182 236.286 420.531 231.896 452.158 230.404C474.717 229.34 497.455 228.479 520 230.949C535.537 232.65 550.923 235.73 566.188 239.219C597.014 246.264 627.35 254.846 656.441 267.47C680.63 277.967 703.163 290.918 721.693 310.065C734.654 323.458 748.91 335.653 759.569 351.171C776.266 375.481 788.067 401.94 794.36 430.78C795.329 435.218 796.914 438.505 801.286 440.888C809.026 445.107 810.097 453.14 810.117 460.879C810.163 477.697 809.847 494.522 809.305 511.332C808.842 525.672 813.719 536.89 826.269 544.587C833.646 549.111 840.689 554.189 847.777 559.169C850.489 561.074 852.995 563.303 855.435 565.557C858.902 568.76 860.45 572.739 858.632 577.291C856.837 581.783 852.918 583.699 848.349 584.088C839.226 584.865 830.084 585.431 820.951 586.101C815.802 586.479 810.662 587.025 805.507 587.244C801.445 587.417 800.208 589.298 800.219 593.267C800.278 615.763 800.254 638.262 799.984 660.756C799.57 695.26 797.215 729.634 791.041 763.622C788.288 778.777 783.855 793.46 773.026 805.251C767.532 811.234 760.77 815.435 753.736 819.31C752.086 820.219 748.666 820.435 750.184 823.529C751.737 826.695 751.812 832.104 756.927 831.586C767.18 830.548 777.353 828.728 787.559 827.235C790.006 826.878 790.616 825.229 790.934 823.021C793.045 808.382 800.898 798.261 814.872 793.092C816.917 792.335 817.967 790.858 818.899 788.964C824.578 777.429 840.658 769.974 852.325 775.279C860.297 778.903 867.736 778.251 875.544 777.561C889.967 776.287 904.359 774.668 918.765 773.191C932.792 771.752 944.682 779.979 949.407 794.394C953.605 807.197 948.781 819.881 936.784 826.93C926.052 833.236 913.755 834.446 901.925 837.03C892.004 839.197 881.931 840.636 871.756 841.075C869.667 841.165 867.874 841.821 866.193 842.999C861.601 846.216 856.65 848.436 850.904 848.421C846.936 848.41 847.015 851.245 847.035 854.006C847.126 866.336 847.267 878.666 847.313 890.997C847.393 912.647 847.251 934.297 848.153 955.941C848.438 962.759 847.59 969.585 846.316 976.295C844.269 987.078 839.584 996.557 831.1 1003.71C828.107 1006.23 827.404 1008.75 828.289 1012.36C829.156 1015.9 829.53 1019.56 830.06 1023.59C826.308 1024 822.615 1024 818.395 1023.58C817.036 1016.99 816.32 1010.79 813.958 1004.75C810.889 1007.19 811.517 1012.02 816 1024C814.286 1024 812.572 1024 810.258 1023.66C808.088 1019.03 807.807 1014.31 805.271 1009.81C804.88 1012.44 805.679 1014.43 805.959 1016.48C806.24 1018.54 807.171 1021.18 804.679 1022.26C801.487 1023.65 801.37 1020.06 799.663 1018.13C799.042 1020.32 798.521 1022.16 798 1024C794.97 1024 791.939 1024 788.554 1023.66C791.151 1017.2 793.401 1010.92 793.37 1003.7C788.718 1003.97 785.183 1006.48 781.175 1007.24C777.407 1007.95 776.002 1010.04 776.164 1013.86C776.313 1017.34 775.202 1020.72 774 1024C771.63 1024 769.259 1024 766.449 1023.62C767.237 1019.21 769.33 1015.31 768.092 1010.85C761.175 1010.55 754.925 1010.69 751.854 1018.37C750.984 1020.54 748.659 1022.14 747 1024C742.976 1024 738.951 1024 734.635 1023.7C738.988 1020.72 743.4 1017.75 746.248 1013.02C747.487 1010.96 749.523 1009.1 747.758 1006.26C745.866 1003.21 743.984 1000.27 739.861 1000.23C738.198 1000.21 736.527 1000.25 734.869 1000.38C713.106 1002.08 695.525 994.529 682.064 977.139C673.908 966.602 668.747 954.505 662.945 942.718C654.63 925.822 649.823 907.442 641.051 890.748C636.234 881.582 632.141 872.124 628.942 862.295C624.687 849.226 615.955 839.623 605.455 831.332C604.411 830.508 603.296 829.709 601.353 830.644C601.564 837.562 600.974 844.64 598.794 851.494C598.533 852.313 598.694 853.148 599.43 853.752C604.805 858.153 606.381 864.609 608.324 870.751C619.525 906.16 631.953 941.117 647.083 975.049C654.087 990.757 663.547 1004.79 678.226 1014.51C683.337 1017.9 688.734 1020.85 694 1024C688.646 1024 683.291 1024 677.286 1023.72C675.783 1022.66 675.005 1021.77 674.062 1021.12C662.437 1013.12 653.378 1002.71 646.655 990.46C629.095 958.472 618.686 923.55 606.089 889.545C602.519 879.909 603.17 879.588 593.072 881.731C573.545 885.873 554.303 891.35 534.375 893.586C506.595 896.703 479.033 897.348 451.519 890.646C427.387 884.768 404.539 876.611 386.207 859.132C381.642 854.78 376.481 853.188 370.641 852.304C337.503 847.287 305.008 839.42 273.017 829.535C267.871 827.946 265.107 828.898 262.309 833.203C243.142 862.699 228.18 894.163 217.424 927.651C216.564 930.328 217.496 931.933 219.207 933.816C230.736 946.503 244.71 955.565 260.302 962.461C280.257 971.286 300.594 978.305 322.809 977.958C329.801 977.849 329.786 977.957 329.762 971.163C329.743 965.498 329.527 959.82 329.839 954.173C330.178 948.03 334.194 944.113 339.915 943.668C345.355 943.245 349.598 946.452 351.209 952.216C351.933 954.808 352 957.462 352.068 960.137C352.28 968.456 352.182 976.769 352.845 985.095C353.874 998.029 354.898 1010.99 354 1024C342.313 1024 330.625 1024 318.54 1023.65C319.122 1019.95 322.174 1019.71 324.805 1018.8C327.109 1018.01 329.923 1017.98 331.599 1014.23C312.386 1018.23 293.707 1019.02 275 1019.4C275 1021.39 275 1022.7 275 1024C268.646 1024 262.292 1024 255.288 1023.72C249.448 1017.62 242.512 1015.46 235.158 1014.34C221.781 1012.31 208.695 1009.39 196.327 1003.61C190.781 1001.02 185.578 997.813 179.892 994.761C175.15 1004.22 172.816 1014.03 171 1024C164.979 1024 158.958 1024 152.469 1024ZM357.673 677.976C357.576 678.634 357.482 679.292 357.38 679.949C355.871 689.671 349.399 692.563 341.378 686.992C337.823 684.523 334.549 681.648 330.976 679.207C326.52 676.163 322.461 672.447 317.397 670.114C315.851 672.945 316.558 675.51 316.244 677.937C315.31 685.148 309.271 688.04 303.169 684.151C302.049 683.437 301.019 682.575 299.986 681.735C276.557 662.686 255.614 640.897 233.03 620.915C230.294 618.493 227.859 615.716 225.41 612.991C222.219 609.442 221.633 603.475 224.31 600.615C227.791 596.897 231.535 598.234 235.141 600.536C244.156 606.292 253.939 610.588 263.435 615.426C265.144 616.296 266.831 617.602 269.295 617.039C270.668 612.789 269.425 608.226 270.576 603.867C272.83 595.33 279.014 592.644 286.333 597.374C288.711 598.911 290.951 600.676 293.392 602.101C299.485 605.662 305.657 609.087 312.15 612.766C313.364 601.889 314.261 591.969 315.634 582.116C316.893 573.086 321.79 570.857 329.674 575.228C349.633 586.296 369.561 597.415 388.666 609.937C389.863 610.721 391 611.933 392.747 611.283C394.073 610.135 393.66 608.53 393.752 607.093C394.518 595.106 395.971 583.21 399.824 571.79C401.2 567.711 400.081 565.265 396.917 562.835C384.893 553.598 372.988 544.206 361.002 534.918C359.605 533.836 358.282 532.405 356.213 532.598C354.499 533.847 354.619 535.78 354.195 537.527C352.47 544.633 346.264 547.25 339.978 543.435C337.711 542.059 335.723 540.232 333.541 538.704C327.216 534.275 321.3 529.211 314.292 525.419C313.845 526.493 313.53 526.924 313.498 527.375C313.142 532.418 314.311 538.234 308.031 540.64C302.009 542.948 298.416 538.241 294.522 535.092C273.636 518.204 255.448 498.338 234.99 480.968C230.283 476.972 225.958 472.567 222.087 467.754C219.075 464.01 218.758 459.093 221.264 456.242C224.701 452.332 228.368 453.871 232.088 455.875C240.301 460.296 248.504 464.74 256.809 468.982C259.973 470.598 262.969 472.801 267.031 473.341C267.121 468.332 266.606 463.662 267.811 459.097C270.07 450.547 276.401 447.886 283.631 452.947C290.48 457.742 297.885 461.563 304.968 465.939C306.206 466.703 307.458 467.675 309.094 467.003C310.201 465.5 309.738 463.772 309.917 462.154C310.889 453.392 311.598 444.591 312.92 435.882C313.932 429.217 319.421 426.449 325.129 429.863C337.574 437.308 350.84 443.263 363.04 451.14C383.061 464.067 403.581 476.163 424.474 487.627C425.545 488.215 426.509 489.452 427.767 488.886C427.767 482.755 427.514 476.773 427.817 470.819C428.568 456.054 432.529 442.82 446.475 434.877C454.924 430.064 464.264 428.68 473.774 427.65C490.204 425.871 506.687 425.703 523.172 425.401C552.494 424.864 581.758 427.004 611.065 427.411C627.517 427.64 643.93 430.085 660.388 430.554C695.856 431.565 731.355 431.229 766.818 432.708C768.229 432.767 769.843 433.277 771.18 431.574C770.951 430.313 770.789 428.835 770.409 427.415C764.808 406.479 755.881 387.051 744.193 368.81C733.078 351.464 717.435 338.303 703.221 323.821C691.899 312.285 678.539 303.54 664.199 296.247C637.473 282.656 609.202 273.386 580.171 266.212C559.487 261.101 538.799 256.022 517.533 253.933C500.093 252.219 482.6 252.83 465.115 252.941C431.266 253.156 398.073 257.615 365.677 267.625C357.686 270.094 357.588 270.015 361.129 277.921C368.144 293.581 375.446 309.093 375.774 326.808C376.013 339.753 373.583 351.854 364.6 361.54C356.193 370.605 345.717 374.604 333.401 370.391C321.65 366.371 315.284 357.245 311.852 345.879C308.082 333.395 308.184 320.576 309.29 307.722C309.768 302.178 310.174 296.628 310.645 290.673C309.251 290.959 308.584 290.986 308.013 291.234C306.642 291.83 305.281 292.469 303.975 293.196C282.553 305.118 263.141 319.672 246.844 338.053C231.363 355.512 220.392 375.556 214.244 398.135C207.087 424.416 206.187 451.477 205.589 478.391C204.857 511.352 203.234 544.329 204.871 577.334C205.836 596.795 205.565 616.317 206.557 635.776C208.192 667.856 210.201 699.92 212.439 731.964C213.798 751.418 219.73 769.174 234.105 783.272C243.921 792.899 255.51 799.691 268.312 804.362C295.987 814.459 324.603 820.619 353.876 823.516C373.043 825.413 386.544 816.436 392.276 798.682C394.896 790.568 396.197 782.155 396.595 773.66C397.628 751.661 395.896 729.692 395.671 707.705C395.645 705.166 394.772 703.283 392.739 701.721C382.435 693.801 372.215 685.771 361.876 677.899C360.876 677.137 359.534 674.825 357.673 677.976ZM654.714 642.332C654.408 632.851 654.814 623.356 653.751 613.886C653.332 610.15 652.584 608.071 648.041 608.597C642.903 609.191 637.576 607.824 634.503 603.626C630.578 598.264 625.299 597.837 619.672 597.316C615.696 596.948 611.677 596.648 607.795 595.785C604.386 595.027 602.171 595.464 600.459 598.841C598.633 602.443 595.95 605.99 591.998 606.951C585.3 608.578 585.3 613.012 585.087 618.5C584.261 639.713 578.142 658.825 561.332 673.147C559.43 674.768 559.02 676.617 559.076 678.882C559.2 683.879 559.31 688.879 559.267 693.877C559.249 695.962 558.563 697.89 556.093 698.321C554.229 698.647 552.82 697.88 551.984 696.2C551.073 694.369 550.986 692.364 550.815 690.363C550.555 687.31 551.197 684.134 549.889 680.742C546.356 682.634 541.068 681.317 541.164 687.391C541.354 699.378 541.636 711.36 542.991 723.289C543.341 726.37 543.624 729.879 539.753 730.595C535.637 731.357 535.055 727.883 534.652 724.787C533.23 713.874 532.711 702.909 532.683 691.912C532.676 688.997 532.71 686.162 528.317 686.326C518.581 686.689 517.133 687.345 517.154 692.284C517.167 695.114 517.344 697.963 517.071 700.768C516.861 702.925 515.48 704.47 513.093 704.501C510.951 704.529 509.631 703.189 509.207 701.254C508.783 699.322 508.702 697.304 508.58 695.318C508.103 687.51 505.761 685.898 497.814 688.199C498.419 700.599 497.935 713.091 499.12 725.538C499.309 727.519 499.292 729.543 499.131 731.527C498.953 733.718 497.878 735.398 495.445 735.51C493.096 735.617 491.723 734.2 491.175 732.055C490.848 730.779 490.742 729.429 490.681 728.105C490.082 715.3 489.529 702.492 488.917 689.687C488.832 687.915 489.295 685.699 487.325 684.732C483.654 682.93 479.833 681.434 476.164 679.85C474.707 681.745 475.201 683.465 475.262 685.061C475.485 690.883 475.895 696.699 476.108 702.521C476.215 705.476 475.839 708.661 472.129 708.916C468.394 709.174 467.541 706.01 467.346 703.101C466.969 697.453 466.331 691.736 466.817 686.136C467.834 674.432 461.749 666.607 453.634 659.392C452.563 661.809 453.045 664.139 453.087 666.412C453.326 679.403 454.088 692.405 453.783 705.382C453.179 731.043 453.538 756.701 453.288 782.359C453.17 794.477 451.425 806.246 446.4 817.385C445.496 819.387 444.71 821.406 445.604 823.631C447.477 828.289 449.678 832.754 453.001 836.592C454.193 837.969 455.42 839.088 457.189 837.62C462.447 833.258 468.692 832.401 475.255 831.42C499.12 827.856 522.886 823.633 546.704 819.749C549.635 819.271 551.519 817.955 552.715 815.233C554.379 811.444 557.223 808.728 560.928 806.824C571.935 801.166 584.433 803.81 592.449 813.458C594.008 815.335 594.983 817.811 597.604 818.711C612.808 823.935 622.592 835.46 631 848.251C633.74 852.42 635.769 852.864 640.16 850.874C650.614 846.138 659.796 839.383 669.342 833.259C687.831 821.396 703.816 807.218 711.862 785.728C722.111 758.353 728.829 730.019 735.719 701.716C737.316 695.152 738.268 688.486 738.318 680.951C725.508 683.993 713.228 685.903 700.717 683.578C687.961 681.208 678.217 673.915 669.707 664.469C672.149 673.382 676.266 681.342 680.555 689.222C683.74 695.074 687.103 700.85 689.371 707.137C693.204 717.765 690.601 725.604 680.887 731.439C676.056 734.341 670.732 736.417 665.655 738.915C662.529 740.453 659.395 741.182 657.466 737.461C655.39 733.458 658.005 731.276 661.292 729.681C665.338 727.718 669.48 725.936 673.447 723.826C681.022 719.796 682.218 716.235 678.698 708.328C677.075 704.681 675.287 701.092 673.329 697.614C663.777 680.645 655.848 663.139 654.714 642.332ZM752.125 448.446C712.319 447.904 672.471 448.842 632.751 445.188C607.341 442.851 581.824 443.503 556.367 442.446C526.557 441.208 496.699 441.324 467.069 445.328C451.65 447.411 446.19 454.169 444.723 466.125C443.573 475.502 444.791 484.725 445.866 493.989C446.707 501.231 449.25 507.861 452.659 514.222C455.062 518.705 458.359 520.786 463.717 519.366C468.531 518.09 473.548 517.606 478.436 516.581C500.151 512.024 522.202 510.013 544.236 507.927C558.164 506.608 572.159 505.61 586.134 506.158C606.424 506.952 626.675 508.772 646.966 509.57C672.427 510.571 697.91 510.997 723.385 511.64C745.025 512.187 766.653 512.933 788.159 515.606C791.316 515.998 792.775 515.222 792.754 511.738C792.666 497.077 792.562 482.404 793.729 467.779C794.108 463.026 792.031 461.046 787.732 460.53C786.574 460.391 785.422 460.202 784.261 460.087C779.956 459.661 775.64 459.331 771.347 458.803C769.839 458.617 768.292 457.905 768.441 455.993C768.595 454.025 770.251 453.762 771.787 453.792C774.447 453.843 777.113 453.968 779.761 454.228C783.634 454.607 787.493 455.132 791.359 455.595C788.177 453.043 784.548 452.148 780.863 451.316C771.703 449.25 762.32 449.508 752.125 448.446ZM798.816 540.549C796.434 529.704 787.888 528.712 779.054 528.196C762.773 527.245 746.503 525.887 730.208 525.439C687.268 524.257 644.316 523.802 601.443 520.505C572.936 518.312 544.552 521.64 516.227 524.529C509.263 525.239 502.163 525.862 494.016 528.515C500.115 531.092 504.964 533.16 509.829 535.19C513.208 536.6 516.633 537.9 519.987 539.367C521.416 539.992 522.686 541.058 521.904 542.859C521.124 544.656 519.483 544.321 518.013 543.9C516.897 543.581 515.828 543.09 514.747 542.653C505.638 538.967 496.555 535.214 487.411 531.616C483.906 530.237 480.263 529.152 475.996 531.904C478.674 532.996 480.751 533.976 482.912 534.704C505.979 542.474 528.526 551.603 550.703 561.569C583.009 576.089 616.861 583.001 652.113 582.645C667.396 582.491 682.658 580.575 697.938 579.586C711.061 578.737 724.222 578.373 737.32 577.255C760.539 575.273 783.743 573.065 806.911 570.555C814.417 569.742 822.183 570.689 829.801 567.913C826.168 562.85 821.375 564.259 816.881 564.681C804.289 565.864 791.711 567.202 779.11 568.268C777.107 568.437 773.617 569.571 773.52 566.119C773.434 563.094 776.889 563.342 779.023 563.117C785.143 562.472 791.312 562.292 797.437 561.675C803.648 561.05 809.829 560.123 817.552 559.131C810.112 553.09 803.535 548.2 798.816 540.549ZM417.431 691.283C417.496 692.946 417.61 694.61 417.62 696.274C417.781 724.402 420.414 752.517 418.269 780.654C416.731 800.833 410.731 819.164 395.398 833.411C394.838 833.932 394.072 834.501 394.575 835.499C416.421 835.181 433.678 820.886 437.586 802.142C439.155 794.617 439.796 787.017 439.785 779.323C439.741 748.338 439.828 717.353 439.806 686.368C439.802 681.377 439.466 676.387 439.321 671.395C438.6 646.475 434.592 621.709 436.542 596.646C438.099 576.639 440.815 557.191 453.621 540.706C453.891 540.358 453.867 539.78 453.967 539.362C448.538 533.663 447.197 533.616 441.966 539.018C440.928 540.09 440.004 541.284 439.119 542.49C423.958 563.158 416.112 586.33 416.228 611.948C416.346 638.075 417.003 664.199 417.431 691.283ZM714.977 876.667C713.997 876.855 713.023 877.089 712.035 877.223C692.439 879.884 672.848 882.597 653.235 885.133C649.115 885.666 647.884 887.292 649.795 891.043C656.539 904.281 660.554 918.63 666.533 932.175C669.4 938.669 672.238 945.208 676.11 951.427C680.582 949.673 684.26 946.57 689.166 948.527C693.791 950.372 695.662 954.309 697.357 958.667C715.737 953.405 732.588 945.749 748.184 935.241C751.339 933.115 751.635 931.258 750.263 927.868C744.455 913.521 738.428 899.275 732.129 885.136C727.348 874.404 727.491 874.341 714.977 876.667ZM505.446 609.993C491.949 610.083 478.452 610.113 464.956 610.289C458.891 610.368 457.867 611.707 458.761 617.542C459.291 620.998 459.871 624.446 460.34 627.91C463.666 652.478 483.936 669.172 502.498 670.304C510.394 670.785 518.151 670.605 525.869 669.429C535.987 667.887 545.718 665.381 553.223 657.439C564.234 645.788 567.778 631.604 568.058 616.194C568.174 609.798 567.655 609.289 561.394 609.268C543.068 609.206 524.738 608.942 505.446 609.993ZM729.251 865.686C747.94 862.388 766.624 859.065 785.32 855.808C792.367 854.58 799.437 853.477 806.506 852.381C808.802 852.025 810.919 852.57 812.081 854.766C813.105 856.702 812.186 858.248 810.638 859.563C809.007 860.949 809.387 862.918 809.407 864.709C809.522 875.2 810.101 885.704 809.753 896.178C809.135 914.816 807.959 933.433 808.263 952.098C808.437 962.75 805.829 972.538 798.768 980.842C797.945 981.81 796.342 982.889 797.121 984.215C800.017 989.141 800.434 994.836 802.081 1000.51C805.23 999.156 808.104 998.229 810.672 996.765C820.028 991.428 827.88 985.205 829.109 973.085C830.635 958.044 828.945 943.139 828.436 928.197C827.392 897.546 828.364 866.901 828.114 836.256C828.035 826.513 831.494 819.47 841.917 817.266C845.945 816.414 847.629 813.601 846.925 809.42C846.194 805.081 842.866 804.245 839.47 804.384C829.724 804.785 820.911 808.36 813.164 814.034C809.054 817.045 808.422 822.163 808.195 827.141C808.039 830.542 809.062 832.832 812.305 834.262C813.736 834.893 814.169 836.547 813.677 838.183C813.113 840.053 811.586 840.711 809.879 840.964C796.708 842.919 783.731 845.967 770.456 847.408C755.756 849.004 741.131 851.297 726.503 853.283C726.152 855.638 728.146 858.286 724.738 859.044C720.852 859.91 721.704 856.037 720.497 854.486C717.715 854.269 715.234 854.175 712.801 855.389C713.956 856.3 715.93 856.591 715.499 858.541C715.068 860.497 713.273 860.865 711.615 861.134C705.701 862.093 699.784 863.03 693.856 863.898C691.95 864.177 689.325 864.987 688.806 862.341C688.201 859.259 691.205 859.219 693.204 858.868C697.754 858.069 702.344 857.502 706.918 856.841C700.795 855.543 695.068 857.745 689.187 858.433C673.819 860.23 658.505 862.484 643.171 864.571C639.744 865.037 638.783 866.695 639.966 870.129C642.599 877.777 643.886 878.679 651.974 877.395C653.617 877.134 655.274 876.969 656.921 876.734C680.791 873.326 704.94 871.755 729.251 865.686ZM700.183 606.835C691.019 606.934 681.854 607.109 672.689 607.094C669.221 607.088 667.884 608.525 668.172 611.933C668.917 620.744 669.918 629.524 672.628 637.972C681.72 666.322 719.688 678.351 743.1 659.766C758.931 647.201 761.557 628.97 761.282 610.101C761.246 607.621 759.852 606.246 757.097 606.244C738.437 606.233 719.774 605.879 700.183 606.835ZM782.883 676.497C782.674 652.625 784.671 628.753 783.442 604.679C778.258 604.748 775.896 606.527 776.208 611.598C776.493 616.229 775.946 620.882 775.485 625.531C774.774 632.697 771.532 639.465 771.489 646.556C771.389 663.043 770.107 679.452 769.225 695.887C768.128 716.306 767.407 736.795 763.25 756.894C760.172 771.773 755.812 786.281 746.653 798.772C744.501 801.706 741.699 804.164 738.464 807.625C740.25 807.134 740.889 807.006 741.493 806.781C742.427 806.433 743.335 806.016 744.255 805.631C763.478 797.573 771.176 781.314 774.624 762.311C779.71 734.28 782.403 705.99 782.883 676.497ZM258.975 982.63C243.732 975.993 228.848 968.717 215.701 957.135C212.678 967.034 210.406 976.016 209.028 985.234C208.682 987.55 209.615 988.543 211.643 989.251C216.834 991.066 222.042 992.793 227.471 993.749C240.092 995.971 252.92 997.531 263.547 1005.8C264.505 1006.54 266.033 1006.84 267.303 1006.85C287.137 1007.14 306.957 1007.08 326.506 1003.03C328.425 1002.63 331.416 1003.13 331.171 999.827C330.942 996.735 328.288 997.099 326.169 997.102C302.991 997.133 280.992 991.644 258.975 982.63ZM557.98 849.143C557.259 854.465 558.094 855.388 563.358 854.844C567.392 854.426 571.074 852.881 574.649 851.053C579.448 848.597 582.695 844.909 582.576 839.327C582.452 833.481 580.023 828.535 574.619 825.807C566.476 821.697 558.669 824.48 550.386 827.044C551.827 829.722 553.03 831.706 553.979 833.805C554.677 835.353 555.119 837.255 553.094 838.124C551.279 838.903 550.415 837.268 549.719 835.951C547.856 832.43 545.431 829.13 541.35 828.727C534.398 828.041 527.662 829.593 519.976 832.378C527.1 841.311 526.845 851.251 525.652 861.779C531.998 860.901 537.383 859.964 542.807 859.452C551.313 858.649 552.509 853.242 552.948 847.195C553.097 845.136 551.565 841.672 555.208 841.743C558.087 841.798 557.761 845.1 558.084 847.339C558.131 847.663 558.075 848.003 557.98 849.143ZM347.323 294.084C342.446 283.303 337.996 272.352 334.333 260.994C330.154 284.588 326.945 308.155 328.459 332.059C328.77 336.97 329.926 341.985 332.591 346.352C337.793 354.878 346.981 354.878 352.262 346.414C356.427 339.74 357.257 332.401 356.519 324.776C355.496 314.208 352.372 304.249 347.323 294.084ZM482.575 838.524C479.441 837.927 476.417 837.824 473.947 840.094C474.489 842.727 477.603 844.572 475.453 847.228C473.831 849.232 472.412 846.164 470.578 846.529C471.6 851.467 473.896 856.185 471.781 861.25C470.761 863.693 469.36 865.829 466.504 865.922C463.531 866.018 462.156 863.759 461.279 861.314C459.711 856.942 458.511 852.482 459.68 846.537C456.747 850.725 455.928 854.035 456.382 857.649C457.077 863.192 462.848 868.116 468.227 867.79C471.555 867.588 474.194 863.442 474.584 857.776C474.63 857.113 474.565 856.442 474.612 855.778C474.725 854.173 474.338 851.963 476.651 851.9C479.13 851.834 479.088 854.123 479.338 855.934C479.868 859.774 478.346 863.395 477.865 867.395C482.573 868.108 486.445 867.953 488.127 862.736C488.482 861.634 489.072 860.509 490.532 860.581C492.202 860.664 492.739 861.855 492.931 863.278C493.04 864.083 492.872 864.965 494.006 865.719C497.732 865.77 501.383 863.72 505.457 863.787C520.681 864.038 522.279 862.192 520.916 846.804C520.799 845.484 520.631 844.14 520.256 842.876C518.14 835.744 513.376 832.41 506.619 833.372C502.337 833.982 498.073 834.732 493.807 835.451C490.388 836.027 488.712 837.381 490.612 841.185C492.324 844.614 493.385 848.349 493.18 852.272C493.08 854.2 493.331 856.847 490.589 856.854C488.029 856.861 488.662 854.359 488.387 852.612C487.616 847.711 487.283 842.609 482.575 838.524ZM210.042 896.426C208.396 900.964 206.747 905.501 205.103 910.04C202.629 916.87 203.317 918.66 210.333 922.917C222.207 888.266 238.373 855.753 257.868 824.903C256.672 823.399 254.977 823.047 253.486 822.392C246.584 819.355 246.588 819.388 242.092 825.461C238.322 830.553 234.656 835.723 231.883 841.434C223.359 858.985 216.667 877.274 210.042 896.426ZM932.767 797.017C929.62 790.678 925.273 788.666 919.241 790.778C918.75 792.15 919.522 793.337 919.815 794.604C920.243 796.448 921.742 798.829 919.152 799.841C916.544 800.86 916.023 798.059 915.119 796.424C911.302 789.517 905.785 788.187 898.417 792.634C899.179 794.927 900.09 797.235 900.695 799.622C901.21 801.654 902.192 804.471 899.5 805.271C896.348 806.208 896.518 802.913 895.968 801.043C893.289 791.942 886.451 789.813 878.215 795.949C883.33 803.832 885.747 812.396 882.79 821.687C892.16 824.281 895.807 822.152 897.627 813.489C897.953 811.933 897.613 809.693 900.016 809.871C902.525 810.057 902.17 812.311 902.348 814.117C902.553 816.193 901 818.298 902.343 820.296C904.522 821.128 906.406 820.156 908.314 819.724C918.343 817.455 918.357 817.433 918.182 807.157C918.157 805.717 918.196 804.333 919.878 804.063C921.748 803.763 922.464 805.242 923.003 806.68C923.957 809.225 923.052 812.362 925.264 814.507C932.686 812.374 935.174 806.867 932.767 797.017ZM762.361 961.718C766.087 960.285 769.824 958.882 773.531 957.405C775.076 956.789 777.002 956.092 776.47 953.99C775.476 950.064 775.291 945.773 772.158 942.378C768.829 943.54 766.233 945.653 763.521 947.502C749.309 957.195 734.448 965.664 718.213 971.512C712.43 973.595 706.528 975.345 700.702 977.311C698.785 977.957 696.694 978.652 697.759 981.461C698.953 984.61 706.985 988.49 709.992 987.012C722.197 981.014 735.247 977.706 748.369 974.591C750.283 974.137 751.737 973.245 752.397 971.295C753.959 966.675 757.574 964.107 762.361 961.718ZM750.505 878.943C750.252 878.329 749.988 877.72 749.748 877.102C747.479 871.273 744.85 869.692 740.16 871.751C734.665 874.163 737.399 878.109 738.895 881.399C745.082 895.001 750.863 908.767 756.378 922.651C757.048 924.339 757.157 927.188 759.833 926.784C762.095 926.442 764.056 924.82 765.259 922.719C766.276 920.943 765.48 919.132 764.852 917.435C760.192 904.831 755.489 892.243 750.505 878.943ZM588.57 856.005C594.762 845.264 596.456 834.262 590.505 822.81C588.216 818.406 585.013 814.886 580.52 812.686C573.634 809.315 564.585 811.077 561.326 816.813C563.74 816.813 565.871 816.722 567.992 816.829C576.497 817.257 582.962 821.184 586.869 828.724C592.858 840.281 589.076 851.463 577.485 857.843C575.72 858.815 571.965 859.141 573.486 862.288C574.726 864.853 577.865 864.076 580.261 863.211C583.665 861.981 586.193 859.606 588.57 856.005ZM775.418 875.271C772.959 876.341 774.327 878.039 774.829 879.46C778.808 890.73 782.827 901.985 786.903 913.22C787.16 913.927 787.048 915.328 788.564 915.071C789.296 907.259 789.954 899.495 790.775 891.748C791.282 886.968 792.074 882.219 792.672 877.448C793.073 874.258 791.703 872.701 788.396 873.189C784.297 873.793 780.203 874.426 775.418 875.271ZM758.66 984.697C755.272 982.438 751.687 982.181 747.705 982.972C738.647 984.771 729.836 987.237 720.41 990.898C724.589 993.397 728.079 993.026 731.425 992.407C735.991 991.561 740.457 990.184 745.004 989.215C753.277 987.452 755.263 988.499 759.785 995.608C760.789 997.187 762.022 998.467 760.087 999.643C758.361 1000.69 757.653 998.949 756.859 997.595C755.12 994.633 752.947 992.35 748.917 994.106C755.225 1004.34 755.203 1004.18 763.653 1003C767.736 1002.43 768.182 1000.57 766.927 997.199C765.22 992.611 762.981 988.414 758.66 984.697ZM849.173 822.766C847.138 824.345 843.896 824.006 842.454 827.148C844.127 829.831 846.149 832.13 849.775 831.93C853.855 831.706 856.426 829.088 858.283 825.787C864.096 815.451 858.699 798.193 848.061 792.809C843.802 790.654 840.288 791.526 836.42 795.888C845.742 796.394 853.473 798.469 855.091 808.313C855.99 813.787 854.947 818.959 849.173 822.766ZM752.181 758.716C753.808 750.573 755.335 742.427 755.858 734.107C756.374 725.891 757.202 717.696 757.893 709.491C753.125 737.857 747 765.785 736.649 792.75C745.339 783.25 748.69 771.403 752.181 758.716ZM772.147 989.559C773.499 993.063 774.851 996.566 776.175 999.999C780.509 999.437 786.349 997.371 789.061 995.807C791.792 994.23 792.135 992.311 790.757 989.591C787.279 982.722 775.214 978.373 767.896 981.531C768.352 984.43 770.684 986.348 772.147 989.559ZM434.753 863.296C438.112 859.815 440.891 855.898 443.312 851.727C446.204 846.746 445.659 845.042 439.989 841.871C434.089 849.064 427.699 855.912 419.671 861.228C427.801 867.478 429.706 867.768 434.753 863.296ZM864.52 799.245C867.872 805.413 868.74 812.049 868.385 818.96C868.289 820.825 867.747 823.304 870.645 823.666C873.279 823.994 875.9 824.099 877.399 820.97C880.906 813.652 878.091 801.696 871.44 797.092C868.809 795.272 865.999 794.445 864.52 799.245ZM410.098 846.734C407.846 847.611 405.171 847.356 403.159 849.19C404.524 851.769 407.01 852.95 408.959 854.696C412.013 857.433 414.768 857.522 418.117 854.756C423.919 849.965 429.218 844.723 434.084 839.018C435.32 837.568 436.639 836.041 435.441 833.252C427.749 839.1 419.99 844.145 410.098 846.734ZM720.732 840.789C724.28 846.466 726.872 846.969 734.249 843.084C732.218 837.388 729.764 831.782 726.023 826.967C723.631 823.886 720.063 824.405 717.042 826.423C713.871 828.541 714.934 831.111 716.644 833.71C718.005 835.778 719.134 838 720.732 840.789ZM474.233 563.172C474.437 565.527 473.605 568.59 477.529 568.58C479.651 568.574 482.351 568.703 482.654 565.857C483.094 561.735 482.883 557.528 481.589 553.539C480.819 551.167 478.431 550.462 476.323 550.525C473.602 550.608 474.35 553.121 474.261 554.789C474.129 557.271 474.228 559.765 474.233 563.172ZM455.15 567.39C455.28 571.059 457.98 569.34 459.477 569.163C461.581 568.914 464.672 569.556 465.171 566.428C465.981 561.351 466.1 556.228 464.199 550.117C459.729 555.865 457.218 561.168 455.15 567.39ZM710.061 837.815C709.355 837.026 708.403 836.322 707.498 837.08C703.457 840.46 699.518 843.962 694.56 848.275C700.68 849.226 704.968 847.73 709.312 847.357C713.407 847.006 714.339 844.801 712.288 841.291C711.706 840.295 711.087 839.32 710.061 837.815ZM797.263 968.911C797.746 967.173 798.197 965.114 795.329 965.952C789.223 967.737 782.918 969.028 776.93 972.099C779.245 974.3 781.943 973.93 784.242 974.663C791.945 977.119 792.913 976.641 797.263 968.911ZM497.954 568.346C503.032 566.711 500.119 562.977 499.57 560.457C498.739 556.638 495.132 556.82 492.033 556.657C490.288 564.501 491.768 567.762 497.954 568.346ZM438.904 868.658C441.599 871.489 445.002 872.237 448.033 870.022C451.612 867.406 451.296 863.132 447.683 857.833C444.77 861.303 441.93 864.685 438.904 868.658ZM519.434 566.983C516.69 564.858 513.608 563.583 510.123 563.029C510.43 568.274 511.334 568.694 519.434 566.983ZM512.967 878.591C510.572 875.162 507.618 876.281 504.075 877.324C506.783 880.824 509.801 879.598 512.967 878.591ZM490.304 877.705C492.283 877.643 494.486 878.753 496.248 876.752C495.007 874.486 493.014 874.235 491.049 874.41C489.106 874.582 487.672 875.378 490.304 877.705ZM464.79 851.357C463.747 854.024 464.581 856.194 466.411 858.109C466.355 855.615 468.446 852.701 464.79 851.357Z" fill="black"/>
<path d="M1024 192.531C1022.05 188.797 1018.42 188.886 1014.65 189.338C1000.13 191.075 1002.48 188.876 1002.12 202.326C1001.55 223.907 997.432 244.911 992.088 265.772C987.333 284.336 981.813 302.631 975.112 320.575C973.831 324.007 972.351 327.366 971.129 330.817C968.24 338.981 966.258 340.342 957.048 340.13C955.825 338.506 956.849 336.939 957.34 335.444C964.914 312.375 973.415 289.569 979.115 265.949C984.379 244.137 989.677 222.238 989.079 199.502C988.867 191.416 988.463 191.018 980.462 191.774C980.13 191.805 979.799 191.836 979.466 191.859C966.983 192.704 966.857 192.681 964.72 204.755C959.436 234.622 948.485 262.669 937.355 290.663C926.889 316.985 915.437 342.848 901.348 367.472C898.12 373.114 894.672 378.612 890.688 383.761C888.26 386.9 885.534 387.709 882.105 385.213C878.655 382.702 880.097 379.958 881.687 377.344C908.138 333.828 926.658 286.787 942.898 238.784C947.102 226.359 950.39 213.574 952.449 200.55C953.508 193.855 952.356 192.608 945.758 193.664C939.848 194.609 933.981 195.817 928.092 196.892C923.632 197.707 921.226 200.325 920.377 204.817C916.718 224.181 910.745 242.875 903.48 261.153C896.96 277.557 889.708 293.648 882.006 309.533C880.732 312.159 878.815 314.229 876.643 310.721C873.769 306.078 869.697 305.585 864.979 305.927C862.695 306.092 860.324 306.538 858.023 305.209C857.189 302.237 858.856 299.782 859.891 297.238C867.359 278.889 875.953 261.006 882.571 242.306C888.075 226.754 892.406 210.87 895.692 194.717C897.719 184.756 903.246 177.973 912.555 173.994C921.589 170.134 931.292 169.487 940.778 167.853C947.999 166.61 948.065 166.848 948.955 159.37C949.309 156.399 949.438 153.4 949.811 150.432C950.397 145.776 948.747 143.969 943.767 144.039C923.944 144.317 904.115 144.278 884.288 144.222C867.635 144.174 850.94 144.022 834.688 139.814C822.19 136.577 816.072 128.263 816.789 116.808C816.962 114.037 818.075 111.637 819.206 109.253C820.442 106.649 820.192 105.012 817.309 103.76C802.208 97.2025 802.678 79.1206 813.549 69.4708C820.918 62.9292 829.611 59.9186 839.158 59.8466C854.307 59.7323 869.461 60.3012 884.615 60.438C888.574 60.4738 892.537 59.9811 896.175 59.7516C896.969 58.7901 896.865 58.1323 896.475 57.5748C889.467 47.5711 890.071 37.9621 898.768 29.3788C909.111 19.1704 922.154 14.9625 936.285 13.9112C960.209 12.1314 984.177 11.4436 1008.17 11.7461C1013.17 11.8091 1018.07 10.3132 1023.55 10.9209C1024 17.3545 1024 23.7089 1023.64 30.487C1003.15 31.3446 983.025 31.4644 962.928 32.3339C951.489 32.8288 939.909 32.4048 928.652 35.1663C923.024 36.5469 917.824 38.8453 913.739 43.062C915.165 45.5586 917.336 45.8455 918.967 46.9167C924.422 50.4996 928.336 55.1762 928.096 61.9895C927.849 68.9982 923.535 73.5011 917.629 76.7162C912.624 79.4409 907.158 79.924 901.65 79.9367C882.162 79.9814 862.673 79.9052 843.185 79.8986C839.354 79.8973 835.514 79.9221 831.83 81.2316C829.628 82.0146 827.605 82.9697 827.062 85.8482C829.398 86.8468 831.518 87.7589 833.643 88.6599C846.017 93.9068 848.433 102.945 840.313 113.623C836.196 119.037 836.801 120.486 843.659 121.778C854.659 123.849 865.857 124.136 876.95 124.466C897.586 125.08 918.259 124.892 938.907 124.515C948.198 124.345 957.838 124.75 965.296 116.894C967.793 114.265 971.836 113 975.315 111.425C990.801 104.415 1007.4 101.694 1024 99.0001C1024 107.688 1024 116.375 1023.57 125.566C1009.61 128.031 996.305 130.761 983.869 136.759C979.497 138.868 976.635 141.636 976.783 147.014C976.888 150.804 976.124 154.622 975.688 158.421C975.015 164.284 975.471 164.819 981.218 164.802C995.537 164.759 1009.74 162.905 1024 162C1024 172.021 1024 182.042 1024 192.531Z" fill="black"/>
<path d="M410.533 0C408.978 20.7505 411.369 41.1538 415.797 61.4026C417.785 70.4912 418.915 80.0442 424.494 87.7279C437.498 105.637 455.217 116.759 476.599 122.261C505.327 129.654 533.791 128.793 561.277 117.681C578.465 110.731 593.546 100.127 602.119 82.7707C607.179 72.5285 608.719 61.126 610.491 50.0008C613.078 33.7581 614.998 17.3777 612.941 0.429085C619.689 2.98023e-08 626.376 2.98023e-08 633.408 0.317144C633.081 2.85892 633.154 4.7181 635.848 5.57693C637.107 3.47563 636.613 1.7378 636.001 0C644.355 0 652.71 -2.98023e-08 661.381 0.371205C660.036 10.3751 660.379 10.7149 669.772 8.74759C669.935 8.71347 670.097 8.67682 670.26 8.64146C672.629 8.12636 674.639 8.48195 675.494 11.0906C676.353 13.7125 674.828 15.2979 672.71 16.2073C669.812 17.4518 666.773 18.3644 663.813 19.4689C661.735 20.2443 659.852 21.2059 660.676 23.9965C662.906 24.524 664.53 23.4683 666.09 22.6679C673.043 19.1 679.949 15.4369 686.824 11.7188C692.947 8.40712 699.238 5.31587 704.001 0C714.689 0 725.376 0 736.533 0C735.366 3.30443 731.852 4.1145 729.046 5.72223C711.002 16.0636 693.747 27.787 674.912 36.7473C670.539 38.8279 666.087 40.6744 661.253 41.3854C653.299 42.5555 648.133 39.8759 644.448 32.7937C643.858 31.659 643.94 29.6493 642.45 29.5634C636.207 29.2037 637.023 25.0892 637.523 20.9727C637.709 19.443 637.609 17.7282 635.611 17.5034C633.03 17.2129 633.264 19.2901 633.197 20.9097C632.611 35.0635 631.092 49.1126 628.188 62.981C627.206 67.669 625.629 72.2338 625.329 77.4001C627.555 77.88 629.712 78.3449 631.826 78.8005C633.205 77.1133 632.536 75.1063 633.193 73.4138C633.908 71.5751 634.873 70.0839 637.152 70.3776C639.435 70.6715 641.06 72.0189 640.852 74.3207C639.942 84.35 637.678 94.0412 632.611 102.872C631.661 104.528 629.977 105.612 627.947 104.843C625.619 103.961 625.467 101.891 625.871 99.8125C626.528 96.4318 629.363 93.666 628.695 89.6131C625.593 89.2248 622.649 88.3997 623.637 83.778C618.581 94.5768 612.994 104.428 604.351 112.399C585.557 129.729 563.578 139.668 538.418 144.279C510.848 149.332 483.995 146.755 458.456 136.939C432.74 127.055 410.663 111.22 401.249 83.4201C395.697 67.0242 392.653 49.931 391.697 32.5498C391.417 27.4502 390.885 22.3645 390.444 16.9833C385.957 17.0671 386.377 19.6933 386.629 22.4336C387.169 28.3115 386.42 29.1252 381.107 28.9679C375.662 41.6624 369.5 44.4332 356.245 39.6377C344.291 35.3124 333.402 28.8242 322.548 22.3028C312.279 16.1324 301.966 10.034 291.691 3.87324C290.136 2.94053 288.401 2.20553 287.184 0.286944C297.355 2.98023e-08 307.71 0 318.709 0.286618C333.083 10.067 347.441 18.3746 362.955 24.8395C364.375 21.4107 362.851 20.1618 360.88 19.3846C358.563 18.4712 356.137 17.8366 353.769 17.0499C350.344 15.912 347.813 14.0315 348.015 9.96371C348.004 9.9834 347.978 10.0197 348.299 9.86938C350.335 8.62842 352.075 8.13116 354.194 8.61735C362.713 10.5727 362.722 10.5213 362.862 1.95752C362.873 1.30443 362.953 0.652481 363.001 0C370.689 0 378.376 2.98023e-08 386.614 0.430963C387.39 4.15057 386.527 7.64506 388.934 10.8972C390.46 7.16254 391.226 3.67626 391.001 0C397.356 0 403.71 0 410.533 0Z" fill="black"/>
<path d="M0 99.4688C7.51126 100.441 15.0326 101.832 22.5298 103.342C26.6121 104.165 30.6626 104.798 34.8713 104.844C51.679 105.027 68.4844 105.432 85.2898 105.792C87.0907 105.831 88.9806 105.65 90.8319 107.021C90.6071 111.444 87.2963 112.542 83.7839 112.838C78.979 113.242 74.1304 113.096 69.306 113.309C65.1654 113.492 61.0324 113.848 55.3785 114.231C61.6827 118.585 65.2257 124.101 72.9673 124.152C88.2712 124.253 103.569 125.227 118.87 125.84C120.201 125.893 121.538 125.893 122.863 126.013C130.524 126.708 130.129 127.14 128.133 134.285C125.83 142.533 120.528 144.231 113.211 144.138C101.726 143.992 90.2361 144.237 78.7537 144.027C74.7386 143.954 72.9413 145.078 73.1305 149.344C73.3287 153.812 72.5722 158.286 73.8217 162.75C74.7064 165.91 76.3582 167.422 79.7044 167.76C90.0079 168.801 100.031 171.041 109.797 174.662C118.928 178.048 125.168 183.783 127.388 193.431C129.366 202.022 131.188 210.649 133.225 219.226C133.951 222.286 133.187 224.714 131.259 227.064C128.167 230.835 125.742 234.98 124.744 239.844C123.945 243.743 120.634 245.215 117.273 247.533C114.539 243.324 113.225 238.682 111.693 234.27C108.307 224.522 105.772 214.499 103.77 204.377C102.928 200.115 101.155 197.524 96.665 196.718C88.1939 195.197 79.7528 193.556 70.5843 192.798C70.9653 201.475 72.9463 209.308 74.7965 217.157C78.8128 234.194 84.5804 250.696 90.5226 267.118C93.0132 274.001 93.259 280.297 89.0559 286.66C85.8277 284.743 83.9459 281.731 82.4389 278.354C73.4614 258.233 67.0118 237.287 61.792 215.92C60.2495 209.606 59.0226 203.247 58.1834 196.818C57.7779 193.712 56.4657 192.193 53.2206 191.761C48.2312 191.099 43.2426 191.321 38.2556 191.13C35.262 191.016 34.693 193.06 34.6082 195.411C34.2958 204.073 34.7358 212.756 35.8787 221.294C40.6057 256.604 50.3055 290.637 63.0424 323.855C65.2461 329.602 66.9971 335.51 68.4855 341.506C69.4589 345.427 67.4208 347.185 64.447 348.356C61.2806 349.602 60.4672 346.822 59.4216 344.836C50.3666 327.634 45.1264 309.016 39.3521 290.596C33.0225 270.405 27.8504 249.933 24.4018 229.045C22.7143 218.824 22.5562 208.509 22.5409 198.175C22.5297 190.642 21.8917 190.102 14.4212 189.375C11.2762 189.068 8.09426 189.025 4.98265 188.527C2.36889 188.109 1.38863 189.632 0.223755 191.742C0 182.979 -5.96046e-08 173.958 0.359299 164.575C7.47015 164.591 14.2023 163.529 21.0065 164.598C28.3132 165.747 35.6282 166.843 43.2088 165.72C50.0393 164.708 51.3966 162.264 50.6281 155.556C50.2195 151.99 48.2763 148.621 47.6516 145.053C46.902 140.772 44.4228 138.33 40.7449 136.642C27.7885 130.694 14.056 127.731 0 126C0 117.313 0 108.625 0 99.4688Z" fill="black"/>
<path d="M0 10.4688C6.18786 11.4952 12.522 11.8127 18.8189 11.7274C41.645 11.4184 64.4226 12.4217 87.1894 13.8411C97.305 14.4717 106.855 17.2199 115.704 22.1654C132.218 31.3941 135.688 42.8666 126.792 59.2913C130.151 60.5179 133.599 60.6443 137.013 60.5962C152.662 60.3757 168.315 59.688 183.956 59.9018C194.699 60.0485 204.711 63.2682 212.144 71.6899C217.417 77.6644 219.599 84.6181 217.096 92.5394C215.026 99.0886 210.987 100.765 204.894 98.1534C201.559 96.7246 198.183 95.7712 195.404 93.0702C193.569 91.2865 190.895 92.6403 188.891 93.8552C186.658 95.2089 184.615 96.8753 182.285 98.5526C182.801 94.4551 185.619 91.6545 191.168 88.9319C193.266 87.9028 197.089 88.1249 196.864 85.0688C196.606 81.5659 192.722 81.1747 189.943 80.3345C183.917 78.512 177.674 79.1519 171.564 79.5368C154.418 80.6169 137.27 79.814 120.125 79.9839C115.268 80.032 110.559 78.7294 106.187 76.5195C99.8808 73.3317 96.0366 68.1703 95.9682 61.1224C95.9018 54.2858 100.358 49.9172 105.928 46.5962C107.311 45.7714 109.2 45.6609 110.188 43.247C105.218 37.6659 98.3281 34.9344 91.1918 34.354C70.3063 32.6554 49.4046 30.9304 28.3784 31.7576C19.2543 32.1165 10.0834 31.2831 0.46686 30.9958C5.96046e-08 24.3126 0 17.6249 0 10.4688Z" fill="black"/>
<path d="M6.97374e-06 533.45C2.82556 535.869 4.15369 541.012 10.0942 538.974C12.6484 538.098 14.4018 536.833 15.7624 534.532C19.5659 528.098 23.1926 528.626 29.5235 531.964C40.3012 537.646 43.2585 548.635 49.4213 557.426C53.335 563.008 56.6439 569.015 60.2197 574.834C61.952 577.653 62.0274 579.541 58.5705 581.64C54.1892 584.3 50.3277 587.665 45.2777 589.349C41.0341 590.763 41.501 597.521 45.8913 600.821C47.0828 601.716 48.4984 602.335 49.6103 603.31C50.8875 604.429 51.7779 605.929 51.5051 607.727C51.1585 610.011 49.0493 609.173 47.6138 609.226C48.3045 612.933 51.0114 615.404 51.3464 619.319C47.3478 618.129 45.6922 615.015 43.6033 612.423C41.5904 609.926 40.8213 606.364 37.5783 604.96C35.9482 605.952 36.7053 607.183 36.758 608.266C37.4619 622.732 39.2691 637.132 39.3395 651.637C39.3913 662.32 32.122 666.834 22.378 662.348C19.8608 661.19 18.6968 659.625 19.0098 656.969C19.4901 652.893 17.9693 649.437 15.7234 646.231C10.7746 639.168 6.63728 631.521 0.317052 625.108C6.94394e-06 619.312 6.98864e-06 613.624 0.244644 607.701C6.47983 615.416 10.7852 624.606 18.2694 631.759C17.5594 617.088 17.6474 602.627 17.8428 588.164C17.3763 587.965 16.9098 587.766 16.4432 587.567C10.9622 592.711 5.48109 597.856 9.0003e-06 603C7.0003e-06 598.643 7.00355e-06 594.287 0.347629 589.41C6.66931 585.436 10.9723 580.092 15.8579 575.414C17.1237 574.202 16.6805 572.678 15.9128 571.268C10.6025 561.515 5.30295 551.757 0 542C7e-06 539.3 6.97374e-06 536.6 6.97374e-06 533.45Z" fill="black"/>
<path d="M496.531 0C495.545 3.31902 493.373 6.02617 489.977 7.44242C487.268 8.5717 486.404 10.5086 486.305 13.3051C486.076 19.7859 485.67 26.2625 485.211 32.732C485.034 35.2141 485.129 37.9817 484.059 40.0909C477.023 53.9565 479.905 68.8039 479.402 83.3134C479.379 83.9752 479.549 84.6432 479.532 85.3058C479.485 87.1455 479.555 89.4563 477.075 89.3939C475.021 89.3422 474.857 87.1691 474.849 85.5058C474.803 76.3652 474.827 67.2242 473.716 57.9312C473.551 60.4783 473.338 63.0235 473.234 65.5732C473.132 68.0685 473.157 70.5687 473.095 73.0659C473.065 74.2586 472.865 75.4494 471.739 76.1219C469.943 77.1952 463.329 73.3113 463.023 71.0908C462.572 67.8167 463.808 64.2714 461.048 60.0448C459.637 65.825 460.572 70.5979 460.168 75.2521C459.947 77.8005 461.747 82.2728 457.92 82.2565C454.132 82.2403 455.991 77.7382 455.759 75.225C455.425 71.5914 455.74 67.9024 455.657 64.2398C455.618 62.5292 456.043 60.5319 453.275 59.2238C453.275 62.4692 453.293 65.3629 453.269 68.2563C453.25 70.6085 454.577 74.405 451.371 74.5337C447.574 74.6862 448.903 70.5902 448.791 68.2048C448.576 63.6197 448.837 59.0035 446.992 54.5959C445.659 59.7402 446.447 64.9705 446.159 70.1416C446.041 72.245 447.158 75.706 443.698 75.5869C440.687 75.4832 441.055 72.1678 441.139 69.9265C441.618 57.111 441.401 44.3289 439.7 31.5999C439.535 30.3627 440.063 28.9278 438.175 27.4423C438.175 37.3425 438.324 46.7302 438.079 56.1075C438.011 58.7314 439.911 63.4389 435.82 63.5131C432.014 63.5822 433.875 58.9743 433.701 56.4761C432.75 42.7696 434.796 29.0371 433.538 14.1084C432.796 22.9275 432.002 30.5243 432.189 38.1878C432.235 40.0408 432.731 42.8501 429.811 42.7407C427.377 42.6495 427.751 40.0597 427.821 38.3242C428.174 29.5101 428.255 20.6583 429.221 11.9067C429.715 7.42974 427.509 4.31199 426.02 0.355395C449.354 -2.98023e-08 472.708 0 496.531 0ZM457.042 37.3433C458.115 39.9498 458.951 43.0635 462.552 42.8026C466.209 42.5377 467.076 39.4774 467.845 36.4832C469.722 29.1787 469.57 21.7137 469.847 14.2648C470.045 8.94707 466.711 8.42187 462.745 8.35986C456.082 8.25569 454.555 9.1752 454.408 13.9691C454.176 21.6049 454.894 29.1654 457.042 37.3433Z" fill="black"/>
<path d="M598.531 0C597.706 4.0545 594.809 6.53159 590.761 7.10394C586.857 7.65595 585.829 9.78166 585.909 13.2542C586.085 20.9343 585.4 28.5688 584.053 36.1172C582.715 43.6124 580.362 50.8816 574.121 55.7254C563.192 64.2078 547.66 59.4253 542.001 45.9199C538.471 37.4951 538.112 28.4069 537.841 19.4337C537.674 13.889 537.523 8.85665 531.514 6.04475C529.515 5.10947 528.132 2.87659 527.148 0.306903C550.687 0 574.375 0 598.531 0ZM569.55 16.9234C568.595 9.92213 563.267 6.54325 556.474 8.54465C554.701 9.0673 554.073 10.2952 554.088 11.8906C554.168 20.378 554.18 28.8884 556.412 37.1653C557.175 39.9939 558.644 42.6961 562.033 42.6252C565.035 42.5624 565.955 39.809 566.688 37.4491C568.673 31.0583 569.468 24.4657 569.55 16.9234Z" fill="black"/>
<path d="M4.5123e-09 245.469C2.05861 256.087 3.94203 267.21 6.20817 278.254C13.4607 313.6 20.4261 349.045 34.7415 382.447C38.8021 391.922 43.385 401.172 47.7071 410.535C49.0075 413.352 50.664 416.073 50.7265 419.643C47.9118 420.123 44.8269 418.979 43.1484 422.396C36.4638 414.959 32.8117 406.359 28.7463 398.059C16.9007 373.875 9.28593 348.267 3.49805 322.052C2.78647 318.829 1.44145 315.746 0.194986 312.299C-8.9407e-07 289.979 -9.95488e-07 267.958 4.5123e-09 245.469Z" fill="black"/>
<path d="M1024 46.5491C1005.37 47.6723 986.736 48.1575 968.124 49.1211C961.653 49.4561 961.311 50.4921 962.262 56.8915C963.278 63.7349 961.218 69.4355 955.738 73.7039C953.419 75.5107 950.523 76.9177 948.119 74.2585C945.578 71.4491 947.504 68.9689 949.871 67.0647C953.633 64.0376 954.339 60.4649 952.778 55.9425C950.679 49.8577 953.217 44.9289 959.187 42.2931C964.675 39.8704 970.507 39.4432 976.323 39.5393C991.989 39.7981 1007.6 38.8496 1023.61 37.9844C1024 40.6991 1024 43.3991 1024 46.5491Z" fill="black"/>
<path d="M1024 311.531C1020.47 318.723 1019.87 326.27 1018.06 333.468C1017 337.662 1014.64 339.667 1010.43 339.961C1006.38 340.246 1004.63 339.072 1005.45 334.527C1007.97 320.441 1011.86 306.671 1014.8 292.687C1018.03 277.386 1020.4 261.955 1022.06 246.408C1022.3 244.119 1023.03 241.882 1023.77 239.311C1024 263.02 1024 287.041 1024 311.531Z" fill="black"/>
<path d="M175.438 1024C175.25 1018 176.766 1012.28 178.887 1006.72C179.665 1004.67 180.831 1002.47 183.543 1003.47C186.222 1004.47 185.727 1006.77 184.98 1008.94C183.37 1013.61 181.619 1018.26 181.925 1023.67C179.958 1024 177.917 1024 175.438 1024Z" fill="black"/>
<path d="M185.429 1024C185.299 1019.13 187.049 1014.65 188.789 1010.18C189.507 1008.33 190.832 1006.91 192.992 1007.77C195.034 1008.59 195.262 1010.45 194.678 1012.39C193.578 1016.03 192.432 1019.67 191.153 1023.65C189.286 1024 187.571 1024 185.429 1024Z" fill="black"/>
<path d="M198.436 1024C198.346 1021.38 198.528 1018.73 199.095 1016.16C199.567 1014.02 199.7 1010.97 202.947 1011.41C205.879 1011.8 205.291 1014.56 205.29 1016.64C205.289 1018.79 205.099 1020.93 204.995 1023.54C202.956 1024 200.915 1024 198.436 1024Z" fill="black"/>
<path d="M0 676.455C1.72328 675.271 3.51394 673.698 5.03763 676.261C6.24069 678.285 6.30901 680.298 4.54324 682.051C3.27885 683.307 1.89391 684.441 0.281378 685.815C2.98023e-08 682.97 0 679.939 0 676.455Z" fill="black"/>
<path d="M782.416 1024C782.27 1022.72 782.435 1021.41 782.836 1020.18C783.374 1018.53 783.709 1016.16 786.153 1016.85C788.271 1017.45 788.263 1019.47 787.652 1021.37C787.453 1021.99 787.341 1022.64 787.094 1023.64C785.61 1024 784.221 1024 782.416 1024Z" fill="black"/>
<path d="M0 461.449C1.5752 462.287 2.10744 464.225 3.06296 465.901C4.7372 468.837 3.07591 469.599 0.272392 469.907C2.98023e-08 467.299 0 464.599 0 461.449Z" fill="black"/>
<path d="M645.261 72.4953C647.849 62.28 653.301 60.278 661.199 66.3622C665.196 69.4409 669.719 71.6441 674.22 73.713C698.729 84.9777 721.854 98.968 746.4 110.148C749.123 111.389 751.792 112.851 753.649 115.324C757.875 120.948 755.922 128.105 749.453 131.059C744.647 133.254 739.495 133.784 734.356 133.959C703.585 135.007 673.198 132.173 643.258 124.785C638.689 123.658 634.131 123.185 631.735 118.159C630.133 114.798 630.169 111.845 632.004 108.714C638.536 97.5647 643.348 85.7761 645.261 72.4953ZM652.38 104.816C650.242 108.577 651.773 109.984 655.637 110.875C672.361 114.734 689.363 116.393 706.421 117.602C711.247 117.944 716.118 117.654 721.136 117.654C720.657 115.297 719.397 114.988 718.413 114.484C702.441 106.307 686.456 98.1531 670.459 90.0257C667.797 88.6733 665.081 87.4204 662.346 86.2202C661.227 85.7288 659.984 85.6332 659.459 87.1343C659.017 88.3982 659.44 89.4988 660.664 90.0485C662.479 90.8641 664.42 91.4135 666.199 92.2951C668.355 93.3634 670.469 94.7212 669.166 97.6607C667.943 100.422 665.684 100.139 663.234 99.4599C656.097 97.481 656.085 97.5269 652.38 104.816Z" fill="black"/>
<path d="M588.406 155.324C594.91 152.795 600.221 149.177 604.835 144.459C607.276 141.962 609.736 139.439 612.463 137.274C617.299 133.433 621.663 134.211 625.249 139.165C627.432 142.181 628.7 145.58 629.83 149.087C638.093 174.722 647.253 200.085 653.399 226.363C654.724 232.027 655.796 237.755 656.809 243.485C657.229 245.863 657.562 248.368 656.13 250.853C653.618 249.593 654.552 245.313 651.445 245.507C648.52 245.689 645.337 246.237 642.836 247.639C639.24 249.654 643.262 252.219 643.157 254.653C641.516 255.451 640.731 254.029 639.796 253.284C619.083 236.786 601.785 217.018 585.416 196.369C579.723 189.187 573.912 182.109 567.164 175.884C564.336 173.276 562.862 170.321 563.965 166.559C565.028 162.931 568.076 161.551 571.44 160.711C577.086 159.3 582.827 158.196 588.406 155.324ZM602.944 170.735C602.145 169.327 601.514 167.126 599.415 168.16C595.767 169.957 591.623 170.942 588.206 174.27C603.522 193.579 618.653 212.732 637.075 229.058C632.136 204.417 623.754 181.065 615.407 157.55C607.844 161.918 607.567 162.614 610.484 169.38C611.472 171.672 612.629 173.893 613.6 176.193C614.377 178.034 614.372 179.896 612.46 181.048C610.224 182.394 608.546 181.129 607.448 179.305C605.908 176.743 604.646 174.015 602.944 170.735Z" fill="black"/>
<path d="M357.724 87.858C338.496 97.0812 319.763 106.453 300.558 116.924C303.865 118.433 306.498 117.745 308.98 117.964C312.128 118.242 312.978 119.749 312.051 122.677C310.491 127.606 306.701 129.809 302.052 130.608C292.675 132.219 283.41 130.611 274.335 128.539C268.552 127.218 267.602 118.803 272.367 114.102C275.768 110.747 280.288 109.222 284.412 107.102C308.987 94.4668 333.625 81.9546 358.209 69.3389C360.411 68.2089 362.4 66.6556 364.464 65.2639C370.732 61.0368 377.013 63.5811 378.183 71.0476C380.269 84.3694 384.94 96.7306 391.404 108.497C394.397 113.945 393.559 118.185 389.062 121.739C385.002 124.948 377.43 125.36 374.331 121.672C369.421 115.828 364.043 113.672 356.77 116.635C355.227 117.263 353.239 117.554 350.74 115.713C358.724 113.572 366.075 111.6 373.094 109.717C373.504 107.267 372.411 106.076 371.819 104.745C368.552 97.3973 368.537 97.4168 360.94 99.1467C358.799 99.6344 356.433 100.246 355.363 97.5291C354.22 94.6285 356.316 93.2488 358.501 92.1827C359.838 91.5309 361.289 91.1113 362.697 90.611C364.446 89.9893 365.747 89.0965 364.892 86.9461C364.068 84.8707 362.634 85.4745 361.201 86.1635C360.151 86.6686 359.1 87.1723 357.724 87.858Z" fill="black"/>
<path d="M526.484 187.577C527.381 183.384 525.776 181.963 522.04 182.291C514.919 182.916 507.804 183.464 500.647 182.429C497.523 181.977 497.103 184.204 497.536 186.656C498.604 192.711 499.732 198.756 500.814 204.808C501.059 206.179 502.153 207.61 500.652 208.939C498.816 209.063 498.559 207.623 498.077 206.421C495.931 201.069 494.071 200.488 489.515 203.903C488.77 204.461 488.368 205.477 487.641 206.52C484.271 202.828 484.008 198.729 483.091 194.967C481.673 189.153 480.541 183.244 480.747 177.217C480.982 170.349 485.707 166.096 492.333 166.234C505.296 166.503 518.262 166.671 531.228 166.804C539.155 166.885 543.406 170.759 543.241 178.664C543.05 187.863 540.625 196.722 538.202 205.54C537.621 207.655 536.405 209.014 533.823 208.489C531.24 207.963 528.977 209.293 526.624 210.088C522.711 211.411 521.624 210.542 522.422 206.512C523.648 200.316 525.07 194.159 526.484 187.577Z" fill="black"/>
<path d="M171.308 348.416C176.756 335.97 184.676 325.803 194.372 316.945C196.343 315.144 198.348 313.335 200.894 312.413C204.77 311.011 208.48 310.932 211.15 314.759C213.437 318.036 212.721 322.552 209.137 325.452C204.588 329.134 200.322 333.07 196.571 337.55C191.177 343.994 187.172 351.25 184.127 359.062C183.403 360.918 182.703 362.819 181.695 364.522C179.363 368.461 175.231 369.975 171.452 368.125C167.462 366.171 166.077 362.713 167.356 358.521C168.371 355.191 169.866 352.008 171.308 348.416Z" fill="black"/>
<path d="M952.422 363.525C954.411 368.766 952.542 373.519 950.504 377.648C939.671 399.592 928.237 421.222 913.051 440.59C911.739 442.264 910.208 443.767 908.742 445.391C901.993 436.961 902.161 436.912 907.843 428.699C920.836 409.919 931.556 389.799 942.167 369.625C943.019 368.006 943.953 366.429 944.776 364.796C946.616 361.146 948.986 360.286 952.422 363.525Z" fill="black"/>
<path d="M438.974 178.259C437.87 172.689 434.115 170.712 429.378 169.505C425.773 168.587 423.31 166.103 422.446 162.363C419.988 151.727 412.714 144.965 404.015 139.347C403.457 138.987 402.734 138.883 401.424 138.432C406.869 134.291 410.195 136.349 412.962 139.315C419.266 146.074 426.314 151.71 434.689 155.735C440.594 158.572 447.015 159.663 453.139 161.739C460.798 164.336 462.245 170.015 456.385 175.547C452.818 178.913 449.75 182.897 444.697 185.715C445.294 181.033 442.078 179.929 438.974 178.259Z" fill="black"/>
<path d="M660.948 54.016C680.516 52.1597 699.736 48.0144 719.15 45.1386C729.683 43.5784 740.164 41.6724 750.692 40.0743C753.372 39.6676 756.93 38.7263 757.561 42.8015C758.196 46.9055 754.657 47.6191 751.696 48.0985C723.116 52.7265 694.52 57.2531 665.938 61.869C663.446 62.2714 661.244 62.2215 659.708 59.9657C658.332 57.9448 659.13 56.1743 660.794 54.2851C660.984 54.0011 660.948 54.016 660.948 54.016Z" fill="black"/>
<path d="M281.338 41.6353C307.696 45.7641 333.626 49.8212 359.548 53.9315C362.18 54.3489 365.471 54.8728 364.885 58.4613C364.303 62.0235 361.144 62.1495 358.13 61.6745C337.453 58.4163 316.772 55.1803 296.099 51.8963C288.877 50.7491 281.671 49.5055 274.465 48.2623C272.833 47.9808 271.198 47.6234 269.627 47.1115C267.713 46.4884 266.409 45.1611 266.755 43.0173C267.134 40.6669 268.889 39.5687 271.101 39.8336C274.392 40.2279 277.64 40.9793 281.338 41.6353Z" fill="black"/>
<path d="M647.709 151.338C655.26 170.04 664.933 187.4 671.62 206.066C672.533 208.616 672.946 210.836 670.223 212.464C667.823 211.797 667.079 209.842 666.217 208.106C657.491 190.533 648.908 172.892 641.323 154.785C640.359 152.484 638.867 149.923 641.97 148.248C644.762 146.742 646.167 149.053 647.709 151.338Z" fill="black"/>
<path d="M717.869 75.9883C722.414 77.7373 726.64 79.2378 730.737 81.0325C732.942 81.9989 734.952 83.6249 733.643 86.4611C732.422 89.1059 730.047 89.2155 727.682 88.1576C713.489 81.8102 698.22 78.9045 683.495 74.265C681.913 73.7666 680.307 73.2779 678.82 72.561C676.698 71.5381 675.239 70.0126 676.339 67.3992C677.374 64.9399 679.193 64.5138 681.647 65.2497C693.584 68.8288 705.543 72.3321 717.869 75.9883Z" fill="black"/>
<path d="M329.468 69.4571C333.494 68.1883 337.149 67.0835 340.769 65.8735C343.41 64.9905 346.392 64.0448 347.588 67.3927C348.877 71.0059 345.718 72.3392 343.031 73.2097C337.665 74.948 332.22 76.4432 326.791 77.9821C316.887 80.7897 307.014 83.6755 297.406 87.4161C294.991 88.3564 291.924 89.6819 290.504 86.2586C289.111 82.9026 291.906 81.6615 294.482 80.5925C305.704 75.9367 317.307 72.4913 329.468 69.4571Z" fill="black"/>
<path d="M182.376 322.939C180.467 326.51 178.763 329.744 176.938 332.908C174.206 337.645 169.735 339.318 165.687 337.217C161.847 335.224 160.559 330.902 162.774 325.928C164.321 322.453 166.205 319.077 168.333 315.924C171.11 311.81 175.592 310.369 179.153 312.316C183.343 314.608 184.091 318.266 182.376 322.939Z" fill="black"/>
<path d="M687.286 142.61C687.918 146.9 685.311 147.754 682.45 147.16C668.76 144.318 654.795 143.334 641.068 140.796C638.582 140.336 636.591 138.957 636.94 136.073C637.313 133 639.661 132.483 642.178 133.023C655.347 135.846 668.937 136.095 681.997 139.587C683.953 140.11 685.922 140.41 687.286 142.61Z" fill="black"/>
<path d="M510.281 156.339C514.216 157.469 518.073 156.302 521.952 155.43C524.522 154.852 527.295 154.438 528.143 157.655C529.068 161.161 525.936 161.68 523.601 162.306C516.753 164.145 509.78 164.12 502.835 163.028C499.668 162.531 495.15 162.311 495.938 157.772C496.705 153.353 500.764 155.042 504.631 155.767C503.023 153.913 501.012 152.618 502.325 150.342C503.507 148.292 505.451 148.069 507.503 148.058C510.664 148.042 513.829 147.943 516.985 148.061C519.459 148.153 521.862 148.921 521.942 151.875C522.022 154.811 519.513 155.012 517.327 155.286C515.018 155.576 512.707 155.85 510.281 156.339Z" fill="black"/>
<path d="M555.515 202.408C553.481 198.166 551.584 194.275 549.76 190.349C548.693 188.052 548.331 185.583 550.974 184.253C553.396 183.034 555.277 184.644 556.179 186.765C561.828 200.05 569.733 212.452 572.072 227.04C572.255 228.186 572.487 229.35 572.456 230.5C572.418 231.92 572.128 233.333 571.822 235.73C564.972 224.715 561.282 213.252 555.515 202.408Z" fill="black"/>
<path d="M339.469 37.5198C348.727 40.4848 357.614 43.296 366.474 46.1904C369.197 47.08 371.63 48.6596 370.467 51.9615C369.344 55.1526 366.507 54.4248 364.075 53.6525C354.553 50.6289 345.06 47.5138 335.545 44.4693C332.714 43.5634 329.628 42.4448 330.583 38.8438C331.618 34.944 334.924 36.2072 337.676 36.8921C338.158 37.0121 338.616 37.2269 339.469 37.5198Z" fill="black"/>
<path d="M384.799 84.0277C384.183 81.1903 383.631 78.7672 383.108 76.3376C382.524 73.6201 382.961 71.1025 385.907 70.2911C389.131 69.4032 390.223 71.9663 391.008 74.4299C391.404 75.6721 391.537 76.9982 391.868 78.6954C394.964 77.7397 396.102 80.1017 397.733 81.854C399.138 83.3634 400.684 84.7595 399.75 87.0048C398.708 89.5137 396.372 88.3959 394.443 88.5245C393.574 90.5198 394.853 92.0087 395.551 93.6131C396.279 95.2849 397.105 96.9194 397.736 98.6264C398.641 101.073 398.332 103.415 395.809 104.588C393.165 105.817 391.858 103.662 390.819 101.77C387.841 96.346 386.109 90.4727 384.799 84.0277Z" fill="black"/>
<path d="M660.997 53.9887C660.681 54.0091 660.349 54.026 660.022 54.0764C657.242 54.5047 654.331 54.5667 653.456 51.2889C652.505 47.7241 655.628 46.8714 658.093 46.0202C663.415 44.1822 668.799 42.5225 674.158 40.7915C678.413 39.4171 682.641 37.9476 686.935 36.7084C689.548 35.9543 692.481 35.4121 693.421 39.0516C694.258 42.2929 691.775 43.3634 689.309 44.2015C680.059 47.3456 670.804 50.4764 661.249 53.8139C660.947 54.0157 660.982 54.0007 660.997 53.9887Z" fill="black"/>
<path d="M862.365 878.051C862.311 881.667 861.929 885.061 857.829 884.789C853.888 884.527 853.488 881.039 853.835 877.951C854.428 872.679 854.342 867.306 855.858 862.157C857.245 857.451 859.796 853.729 864.716 852.129C866.64 851.504 868.43 851.793 869.667 853.435C870.888 855.056 871.18 857.361 869.503 858.405C862.058 863.041 863.474 870.752 862.365 878.051Z" fill="black"/>
<path d="M173.878 878.983C175.504 876.246 176.68 873.634 178.84 871.726C180.515 870.245 182.425 869.827 184.245 871.341C185.953 872.761 186.528 874.667 185.262 876.673C180.986 883.449 177.731 890.684 175.138 898.253C174.3 900.699 172.455 902.254 169.726 901.223C167.117 900.236 166.585 897.956 167.238 895.444C168.707 889.796 170.951 884.448 173.878 878.983Z" fill="black"/>
<path d="M586.535 143.542C591.869 140.675 596.355 137.261 600.568 133.459C602.328 131.872 604.341 130.075 606.634 132.256C609.121 134.621 607.413 136.983 605.66 138.769C599.055 145.499 591.372 150.693 582.468 153.886C580.051 154.752 577.153 154.833 576.03 151.895C574.811 148.703 577.477 147.603 579.838 146.575C581.972 145.646 584.081 144.66 586.535 143.542Z" fill="black"/>
<path d="M814.344 687.028C809.875 689.632 807.141 688.543 806.968 684.084C806.678 676.614 806.761 669.126 806.82 661.647C806.84 659.072 808.04 657.011 810.907 656.919C813.509 656.835 814.841 658.663 815.132 661.006C816.196 669.586 817.192 678.185 814.344 687.028Z" fill="black"/>
<path d="M422.795 142.214C420.875 140.353 419.121 138.809 417.65 137.032C416.514 135.661 416.283 133.944 417.659 132.5C419.119 130.967 420.86 131.396 422.109 132.618C428.983 139.338 437.019 144.172 445.868 147.784C447.353 148.39 448.277 149.673 447.9 151.379C447.48 153.28 446.042 154.014 444.195 154.041C441.413 154.083 439.063 152.758 436.72 151.535C431.853 148.992 427.26 146.017 422.795 142.214Z" fill="black"/>
<path d="M680.917 174.014C671.385 170.083 664.473 163.154 657.524 156.321C656.183 155.003 655.817 152.852 657.373 151.358C659.035 149.762 661.211 150.041 662.823 151.474C669.016 156.982 675.163 162.548 681.157 168.27C682.785 169.824 684.485 171.992 680.917 174.014Z" fill="black"/>
<path d="M470.464 184.335C474.172 184.145 475.612 186.098 474.413 188.964C470.648 197.962 466.367 206.726 461.119 215.184C458.547 214.325 457.56 212.406 458.161 210.487C461.027 201.325 464.048 192.192 470.464 184.335Z" fill="black"/>
<path d="M571.21 190.947C572.675 193.486 574.158 196.026 571.195 197.731C568.437 199.319 566.622 197.137 565.186 194.954C562.461 190.813 559.666 186.715 557.058 182.502C555.671 180.262 554.948 177.625 557.755 175.988C560.344 174.478 562.095 176.358 563.413 178.43C565.984 182.473 568.495 186.555 571.21 190.947Z" fill="black"/>
<path d="M455.515 197.795C451.552 198.063 450.457 195.906 451.971 193.187C454.949 187.841 458.42 182.764 461.807 177.655C462.936 175.952 464.703 175.335 466.565 176.575C468.522 177.879 468.199 179.819 467.213 181.443C463.785 187.09 460.742 193.023 455.515 197.795Z" fill="black"/>
<path d="M552.429 216.382C552.768 218.354 553.512 219.952 552.214 221.745C543.934 216.221 543.705 207.446 542.79 199.013C542.613 197.387 543.611 196.097 545.366 195.907C547.546 195.669 548.927 196.982 549.311 198.916C550.437 204.585 551.352 210.296 552.429 216.382Z" fill="black"/>
<path d="M160.175 890.744C157.238 889.568 156.446 887.468 156.874 884.956C157.49 881.336 158.678 877.86 160.545 874.686C161.74 872.653 163.534 871.494 165.985 872.485C168.249 873.401 169.008 875.586 168.151 877.432C165.993 882.086 167.22 888.746 160.175 890.744Z" fill="black"/>
<path d="M873.68 878.601C872.211 880.758 870.586 881.673 868.409 880.611C866.352 879.609 865.81 877.695 865.9 875.618C866.048 872.191 867.292 869.159 869.818 866.806C871.686 865.066 873.951 864.496 876.101 866.196C878.146 867.813 877.979 870.029 876.58 871.945C875.166 873.88 874.569 876.074 873.68 878.601Z" fill="black"/>
<path d="M90.0757 402.625C88.3791 399.415 86.5258 396.671 87.5292 393.021C88.0109 391.269 86.3904 390.503 85.0302 389.795C83.5008 389 82.1509 387.965 82.5462 385.97C82.8256 384.56 83.8311 383.662 85.2476 383.388C87.3666 382.977 89.0383 384.063 89.6362 385.836C91.0167 389.931 93.3853 393.494 95.3706 397.031C94.6323 399.469 92.3567 396.844 91.3111 399.373C90.7704 400.873 93.7669 400.826 93.996 402.829C92.9563 404.588 91.7786 405.309 90.0757 402.625Z" fill="black"/>
<path d="M582.277 134.139C584.388 133.101 586.139 132.179 587.942 131.374C589.819 130.536 591.525 130.78 592.676 132.638C593.741 134.356 593.013 136.029 591.764 137.093C588.74 139.669 585.212 141.54 581.432 142.712C579.654 143.264 577.738 142.587 576.766 140.759C575.679 138.718 576.913 137.272 578.465 136.168C579.528 135.413 580.776 134.918 582.277 134.139Z" fill="black"/>
<path d="M433.221 137.739C431.419 135.807 430.065 133.968 432.055 131.884C433.934 129.916 435.977 131.029 437.93 132.061C440.114 133.216 442.352 134.267 444.53 135.43C446.612 136.541 448.039 138.225 447.085 140.643C446.115 143.1 443.733 142.483 441.906 142.062C438.838 141.355 436.028 139.912 433.221 137.739Z" fill="black"/>
<path d="M821.558 662.15C826.145 659.703 828.503 660.728 829.134 665.204C829.41 667.164 829.359 669.201 829.204 671.183C829.016 673.577 827.805 675.391 825.196 675.447C822.582 675.504 821.255 673.702 820.98 671.353C820.635 668.406 820.145 665.398 821.558 662.15Z" fill="black"/>
<path d="M106.224 417.901C105.009 418.191 104.031 418.238 103.061 418.354C101.264 418.569 99.1972 419.146 98.7055 416.589C98.3129 414.547 99.8888 413.122 101.318 412.17C103.378 410.798 104.608 412.604 105.68 414.061C106.457 415.117 107.173 416.272 106.224 417.901Z" fill="black"/>
<path d="M344.353 106.709C342.239 107.286 340.625 107.216 340.081 105.117C339.645 103.439 340.576 102.3 341.993 101.528C343.54 100.685 345.392 98.9418 346.88 100.452C349.865 103.483 346.425 104.839 344.353 106.709Z" fill="black"/>
<path d="M478.551 204.083C475.044 202.687 474.196 199.264 476.465 197.019C477.222 196.27 478.139 195.915 479.161 196.299C480.38 196.757 480.943 197.76 480.847 199.024C480.708 200.858 480.193 202.576 478.551 204.083Z" fill="black"/>
<path d="M552.466 993.855C546.027 1000.02 537.98 1002.5 530.456 1005.92C528.877 1006.64 527.151 1005.77 525.624 1005.16C520.066 1002.95 514.578 1000.55 509.001 998.383C505.698 997.1 504.664 994.848 504.688 991.416C504.798 975.607 504.855 959.795 504.615 943.989C504.552 939.815 505.859 937.608 509.872 936.39C512.966 935.45 516.344 934.865 519.126 932.34C515.976 928.415 511.402 926.522 507.784 923.449C501.275 917.919 501.205 917.865 506.489 911.319C507.532 910.026 508.693 908.829 509.768 907.561C512.432 904.417 515.01 904.445 518.345 906.959C528.572 914.669 538.97 922.152 549.39 929.602C551.74 931.282 553.165 933.098 553.152 936.122C553.071 954.428 553.09 972.733 553.049 991.039C553.047 991.855 552.792 992.672 552.466 993.855ZM530.023 987.292C534.169 987.726 533.013 984.461 533.024 982.541C533.088 970.249 532.892 957.956 532.915 945.665C532.921 942.073 531.905 938.806 528.057 938.993C524.284 939.176 524.197 942.804 524.22 945.941C524.302 957.402 524.447 968.867 524.266 980.325C524.204 984.201 525.696 986.257 530.023 987.292Z" fill="black"/>
<path d="M599.436 933.554C603.07 934.934 604.251 937.491 604.253 940.777C604.257 947.94 604.193 955.104 604.27 962.266C604.303 965.336 602.762 967.174 600.261 968.621C594.91 971.717 589.197 974.025 583.577 976.547C581.25 977.591 578.165 978.128 578.212 981.641C578.261 985.354 581.454 985.402 583.902 986.096C588.865 987.503 593.852 988.845 598.874 990.021C602.675 990.911 603.866 992.383 601.752 996.247C595.875 1006.99 594.863 1007.63 582.941 1004.33C575.886 1002.37 568.933 1000.05 561.904 997.999C558.905 997.124 557.676 995.419 557.698 992.206C557.812 975.214 557.803 958.221 557.699 941.228C557.68 938.143 558.71 936.133 561.59 935.044C562.521 934.692 563.395 934.187 564.287 933.738C584.392 923.614 578.665 924.271 599.436 933.554ZM580.089 967.562C582.636 966.746 584.632 965.432 584.614 962.389C584.591 958.238 584.712 954.076 584.447 949.94C584.199 946.063 581.942 944.125 577.374 944.239C577.374 951.576 577.351 958.672 577.398 965.767C577.406 966.892 578.171 967.549 580.089 967.562Z" fill="black"/>
<path d="M465.775 947.326C468.469 956.05 463.719 964.679 455.273 967.286C452.447 968.159 451.768 966.359 451.04 964.417C449.3 959.771 448.764 954.718 446.132 949.639C444.71 952.107 444.531 954.332 444.448 956.532C444.135 964.854 444.452 973.164 444.965 981.474C445.122 984.003 446.08 985.462 448.618 986.022C452.515 986.882 456.386 987.87 460.244 988.892C465.715 990.342 466.281 991.551 463.263 996.501C461.544 999.32 459.315 1001.83 457.263 1004.44C456.153 1005.85 454.643 1006.57 452.853 1006.08C445.161 1003.98 437.225 1002.82 429.709 1000.01C426.14 998.674 424.58 996.541 424.634 992.546C424.83 978.235 424.681 963.921 424.711 949.608C424.716 946.883 424.881 944.237 421.697 942.93C421.02 942.652 420.363 941.839 420.1 941.124C418.512 936.822 427.097 926.756 431.571 927.599C439.555 929.104 442.173 930.529 445.408 935.197C448.605 933.514 450.23 930.251 452.719 927.873C456.349 924.403 457.624 924.522 459.352 929.077C461.592 934.982 463.55 940.994 465.775 947.326Z" fill="black"/>
<path d="M489.935 1006.24C475.802 1002.86 475.848 1002.86 475.772 989.205C475.708 977.556 475.812 965.918 476.58 954.285C476.834 950.435 476.315 946.672 473.073 943.81C471.207 942.163 471.217 939.825 472.302 937.817C473.799 935.048 475.665 932.477 477.398 929.837C478.219 928.585 479.424 928.238 480.873 928.417C485.583 929.001 489.91 930.808 493.957 933.082C496.419 934.465 495.992 937.453 496.003 939.913C496.064 954.399 496.079 968.886 496.08 983.372C496.08 986.415 495.904 989.433 499.357 991.037C500.457 991.548 500.923 992.62 500.831 993.957C500.582 997.552 494.208 1005.11 489.935 1006.24Z" fill="black"/>
<path d="M491.484 909.456C496.788 910.521 497.833 913.314 496.364 917.94C493.488 926.998 492.288 927.704 483.227 924.449C481.665 923.887 480.119 923.266 478.529 922.801C476.16 922.11 475.411 920.561 475.874 918.259C475.907 918.097 475.902 917.926 475.943 917.766C479.419 904.38 479.034 904.71 491.484 909.456Z" fill="black"/>
<path d="M486.977 80.4068C488.479 75.5064 491.868 73.8682 496.253 73.8523C506.736 73.8142 517.22 73.7499 527.701 73.8822C533.299 73.9529 537.005 77.1424 537.109 81.4924C537.219 86.1171 534.172 89.5309 528.46 89.9424C517.182 90.7548 505.86 90.8078 494.572 90.0708C489.631 89.7483 487.382 86.6901 486.977 80.4068Z" fill="black"/>
<path d="M584.016 87.9338C583.85 85.7104 585.019 84.4871 586.062 83.194C592.094 75.709 595.074 67.0735 595.785 57.5601C595.882 56.2675 596.134 54.9202 596.646 53.7429C597.207 52.4535 598.41 51.7516 599.902 51.9687C601.503 52.2019 602.182 53.4286 602.168 54.8168C602.041 67.5159 598.44 79.0029 589.825 88.5716C588.126 90.458 585.876 91.271 584.016 87.9338Z" fill="black"/>
<path d="M578.532 98.4769C577.948 99.2823 577.582 99.8731 577.056 100.226C575.72 101.122 573.884 102.6 572.833 100.665C571.579 98.3541 573.572 96.5393 575.474 95.6081C577.72 94.5088 578.858 95.7213 578.532 98.4769Z" fill="black"/>
<path d="M932.945 84.3167C934.391 78.8814 937.627 77.2027 942.675 79.5577C939.473 80.624 937.271 82.2747 935.865 84.9545C935.015 86.5743 933.805 86.3139 932.945 84.3167Z" fill="black"/>
<path d="M678.308 991.703C686.046 1003.38 697.081 1008.77 710.235 1010.54C712.177 1010.81 714.958 1010.67 714.778 1013.29C714.562 1016.44 711.571 1015.6 709.586 1015.36C696.493 1013.83 685.201 1008.83 677.072 997.987C673.077 992.657 668.841 987.486 665.672 981.591C664.779 979.93 663.095 977.766 665.599 976.386C667.792 975.178 668.681 977.596 669.67 979.03C672.507 983.14 675.28 987.294 678.308 991.703Z" fill="black"/>
<path d="M656.668 965.329C655.779 963.27 653.899 961.187 656.412 959.866C658.862 958.579 659.603 961.289 660.692 962.813C660.787 962.946 660.895 963.086 660.938 963.239C661.619 965.677 665.22 968.665 661.731 970.445C658.459 972.113 658.484 967.357 656.668 965.329Z" fill="black"/>
<path d="M683.071 10.3498C680.914 12.0534 678.996 12.7046 677.338 10.3449C676.488 9.13513 676.636 7.80235 677.808 6.83205C679.402 5.51221 681.199 4.70232 683.183 5.99435C685.084 7.23236 684.589 8.68303 683.071 10.3498Z" fill="black"/>
<path d="M348.014 9.9644C347.308 10.6263 346.674 11.4344 345.859 11.965C343.672 13.3893 341.713 12.8348 340.22 10.8498C338.968 9.18364 339.088 7.26082 340.502 5.85489C342.428 3.93904 344.477 4.96749 346.307 6.28046C347.296 6.99084 347.666 8.11919 347.93 9.652C347.978 10.0204 348.003 9.98409 348.014 9.9644Z" fill="black"/>
<path d="M788.032 1013.51C785.278 1012.88 784.97 1011.37 786.238 1009.47C786.841 1008.56 788.029 1008.26 788.813 1009.08C790.25 1010.58 790.688 1012.22 788.032 1013.51Z" fill="black"/>
<path d="M689.787 359.218C667.484 336.205 641.322 319.913 611.487 309.4C609.448 308.682 607.396 307.98 605.424 307.103C601.856 305.515 599.5 302.935 601.025 298.861C602.513 294.885 605.961 293.969 609.684 295.328C617.025 298.006 624.35 300.767 631.515 303.877C662.287 317.235 688.477 336.65 709.208 363.186C709.925 364.103 710.675 365.01 711.263 366.008C713.162 369.236 714.341 372.626 710.615 375.291C707.064 377.833 703.964 376.289 701.461 373.322C697.601 368.747 693.84 364.09 689.787 359.218Z" fill="black"/>
<path d="M233.479 691.794C235.159 695.617 235.152 699.287 235.103 702.957C234.93 716.017 236.838 728.788 239.867 741.478C242.001 750.416 246.849 756.681 255.202 760.516C261.286 763.309 263.125 766.489 261.427 770.079C259.618 773.904 255.515 774.192 249.584 771.538C235.88 765.406 229.736 753.95 226.866 740.077C223.856 725.522 222.025 710.856 222.643 695.946C222.761 693.102 223.225 690.623 226.18 689.408C229.071 688.22 231.367 689.137 233.479 691.794Z" fill="black"/>
<path d="M326.1 773.218C332.405 767.256 338.016 766.186 344.46 769.472C349.843 772.217 353.553 778.693 352.899 784.204C352.115 790.804 347.316 796.08 340.605 797.717C335.017 799.08 328.789 796.595 325.326 791.621C321.506 786.135 321.693 779.817 326.1 773.218ZM336.751 775.347C331.398 777.468 329.471 781.754 332.307 785.547C333.98 787.785 336.223 789.223 339.181 788.185C342.304 787.089 344.153 784.872 343.949 781.45C343.714 777.504 341.35 775.584 336.751 775.347Z" fill="black"/>
<path d="M722.694 384.003C728.727 389.169 731.946 395.704 734.391 402.665C735.647 406.24 734.122 408.929 730.803 410.389C727.631 411.784 725.013 410.208 723.685 407.528C721.091 402.293 718.096 397.348 714.84 392.513C713.244 390.144 713.202 387.367 715.153 385.059C717.122 382.728 719.654 382.445 722.694 384.003Z" fill="black"/>
<path d="M273.406 770.281C274.92 770.348 276.106 770.333 277.191 770.658C280.736 771.717 283.108 773.839 282.369 777.877C281.658 781.756 278.738 782.628 275.272 782.456C271.308 782.26 268.494 780.448 268.12 776.343C267.82 773.054 270.136 771.328 273.406 770.281Z" fill="black"/>
<path d="M633.683 802.258C629.017 795.286 628.765 789.678 632.65 784.457C636.097 779.825 642.249 777.734 647.78 779.315C653.279 780.887 657.352 785.782 658.039 791.645C658.624 796.634 655.27 802.57 650.376 805.207C644.778 808.224 639.662 807.395 633.683 802.258Z" fill="black"/>
<path d="M630.301 778.334C627.122 781.577 624.462 784.662 624.111 789.172C623.971 790.97 622.877 792.339 620.817 792.139C618.776 791.94 617.942 790.361 618.048 788.608C618.386 783.013 620.618 778.213 625.401 775.158C628.148 773.403 630.639 773.768 630.301 778.334Z" fill="black"/>
<path d="M661.782 788.523C661.082 787.773 660.637 787.277 660.315 786.71C659.367 785.043 658.801 783.292 660.453 781.759C661.565 780.728 662.89 780.872 664.067 781.779C665.612 782.97 666.482 784.566 666.11 786.515C665.69 788.717 664.273 789.514 661.782 788.523Z" fill="black"/>
<path d="M773.659 500.15C765.998 499.987 760.851 496.568 758.944 490.693C757.085 484.968 759.089 478.876 764.04 475.2C768.596 471.817 775.203 471.667 779.947 475.103C784.128 478.131 786.507 482.376 785.835 487.562C784.954 494.372 780.891 498.64 773.659 500.15Z" fill="black"/>
<path d="M484.378 474.556C490.815 482.357 490.361 490.524 483.489 495.75C477.145 500.575 468.333 499.074 463.824 492.401C460.325 487.222 461.097 479.484 465.565 474.948C470.505 469.933 477.161 469.701 484.378 474.556Z" fill="black"/>
<path d="M647.89 470.672C655.18 474.415 658.163 479.526 657.101 485.921C656.121 491.819 651.3 496.541 645.345 497.223C639.504 497.892 634.863 495.753 631.819 490.682C628.757 485.581 629.132 480.376 632.565 475.691C636.248 470.664 641.313 468.736 647.89 470.672Z" fill="black"/>
<path d="M483.543 452.776C478.118 453.208 473.115 453.219 468.216 454.406C458.186 456.837 453.274 463.002 453.301 473.346C453.305 474.841 453.376 476.347 453.571 477.827C453.783 479.433 453.857 481.015 451.897 481.385C449.682 481.802 449.033 480.096 448.712 478.388C446.713 467.763 450.338 455.111 462.723 450.694C467.345 449.046 472.125 448.558 476.896 447.974C480.689 447.511 484.535 447.439 488.361 447.309C490.175 447.247 492.57 447.158 492.776 449.476C493.026 452.295 490.417 452.129 488.472 452.339C486.983 452.5 485.487 452.594 483.543 452.776Z" fill="black"/>
<path d="M746.676 455.122C750.15 451.495 753.958 453.381 757.426 454.326C759.309 454.84 759.29 456.923 757.446 458.17C755.104 459.754 748.401 458.037 746.676 455.122Z" fill="black"/>
<path d="M501.53 451.295C499.659 451.044 498.489 450.403 498.626 448.751C498.737 447.413 499.847 446.843 501.063 446.632C503.97 446.127 506.939 445.037 509.676 447.128C510.381 447.667 510.707 448.71 510.226 449.374C508.069 452.353 504.773 450.917 501.53 451.295Z" fill="black"/>
<path d="M749.149 571.308C746.223 571.58 743.745 571.951 741.259 572.02C739.664 572.065 738.183 571.307 738.17 569.459C738.159 567.894 739.476 567.137 740.859 566.966C747.295 566.17 753.736 565.409 760.189 564.773C761.844 564.61 763.811 564.829 763.954 567.062C764.099 569.325 762.066 569.584 760.474 569.839C756.862 570.416 753.222 570.81 749.149 571.308Z" fill="black"/>
<path d="M534.709 544.998C536.226 545.758 537.492 546.228 538.518 547.011C539.069 547.432 539.551 548.433 539.468 549.099C539.235 550.989 537.668 551.603 536.181 551.016C533.43 549.93 529.384 549.832 529.302 545.828C529.25 543.338 531.602 543.626 533.449 544.45C533.749 544.584 534.054 544.708 534.709 544.998Z" fill="black"/>
<path d="M818.648 946.977C818.663 939.989 818.652 933.497 818.712 927.006C818.725 925.519 818.76 923.739 820.859 923.719C822.854 923.7 823.256 925.375 823.23 926.9C823.003 940.191 824.251 953.529 822.218 966.762C821.503 971.414 819.908 975.804 816.55 979.308C815.519 980.384 814.313 981.608 812.708 980.31C811.395 979.25 811.815 977.862 812.642 976.728C819.101 967.882 818.483 957.6 818.648 946.977Z" fill="black"/>
<path d="M816.681 828.118C817.029 819.906 817.993 812.517 826.617 809.24C828.3 808.6 829.982 808.182 830.847 810.247C831.589 812.02 830.354 813.238 828.893 813.739C822.324 815.991 821.963 821.697 821.444 827.161C821.083 830.96 821.32 834.814 821.243 838.642C821.212 840.147 821.196 841.958 819.212 842.083C816.874 842.23 816.728 840.285 816.698 838.586C816.637 835.257 816.675 831.926 816.681 828.118Z" fill="black"/>
<path d="M816.918 848.297C818.047 845.839 819.38 845.777 820.545 847.708C821.388 849.104 821.188 850.808 819.539 851.404C817.131 852.273 816.93 850.402 816.918 848.297Z" fill="black"/>
<path d="M806.002 983.829C806.696 981.346 808.011 980.432 810.078 981.776C811.023 982.391 811.125 983.507 810.386 984.386C808.915 986.135 807.401 986.377 806.002 983.829Z" fill="black"/>
<path d="M342.388 315.658C341.171 312.879 340.099 310.467 339.004 308.066C337.925 305.703 337.794 303.368 340.333 302.024C342.711 300.765 344.929 301.711 346.387 303.863C350.579 310.053 352.348 317.099 353.051 324.406C353.311 327.104 351.994 329.459 348.954 329.645C346.122 329.818 345.068 327.78 344.603 325.213C344.043 322.127 343.227 319.088 342.388 315.658Z" fill="black"/>
<path d="M349.639 334.27C353.141 336.73 353.156 339.517 350.518 341.932C348.661 343.633 346.287 342.979 344.94 340.86C343.198 338.118 343.971 335.741 346.858 334.253C347.512 333.915 348.459 334.143 349.639 334.27Z" fill="black"/>
<path d="M674.969 102.999C675.243 101.436 675.854 100.474 676.952 99.9278C679.787 98.5187 682.102 99.5619 684.015 101.682C685.385 103.2 685.65 105.129 684.098 106.571C681.935 108.581 679.488 107.761 677.232 106.497C676.036 105.827 675.316 104.716 674.969 102.999Z" fill="black"/>
<path d="M613.964 192.57C613.609 190.398 613.885 188.83 616.038 188.487C617.372 188.274 618.243 189.028 618.613 190.277C619.023 191.662 618.658 193.007 617.664 193.931C616.094 195.388 615.007 194.261 613.964 192.57Z" fill="black"/>
</svg>
