<svg width="3273" height="3273" viewBox="0 0 3273 3273" fill="none" xmlns="http://www.w3.org/2000/svg">
<path d="M489.344 3269.36C510.044 3269.36 529.254 3269.36 548.464 3269.36C554.254 3237.56 561.694 3206.27 576.824 3176.1C594.964 3185.83 611.554 3196.05 629.244 3204.32C668.697 3222.77 710.44 3232.06 753.108 3238.55C776.567 3242.12 798.693 3249 817.32 3268.47C839.661 3269.36 859.93 3269.36 880.2 3269.36C880.2 3265.2 880.2 3261.04 880.2 3254.69C939.869 3253.49 999.453 3250.97 1060.74 3238.2C1055.39 3250.15 1046.42 3250.24 1039.07 3252.78C1030.67 3255.67 1020.94 3256.46 1019.08 3268.24C1057.63 3269.36 1094.91 3269.36 1132.19 3269.36C1135.06 3227.88 1131.79 3186.52 1128.51 3145.26C1126.39 3118.71 1126.71 3092.19 1126.03 3065.65C1125.81 3057.12 1125.6 3048.65 1123.29 3040.39C1118.15 3022 1104.62 3011.77 1087.27 3013.12C1069.02 3014.54 1056.2 3027.03 1055.12 3046.63C1054.13 3064.64 1054.82 3082.75 1054.88 3100.82C1054.95 3122.49 1055 3122.15 1032.7 3122.5C961.839 3123.61 896.967 3101.21 833.314 3073.06C783.58 3051.07 739.004 3022.16 702.229 2981.7C696.77 2975.69 693.798 2970.57 696.541 2962.03C730.851 2855.21 778.576 2754.84 839.718 2660.76C848.643 2647.02 857.459 2643.99 873.872 2649.06C975.918 2680.59 1079.57 2705.68 1185.28 2721.69C1203.9 2724.51 1220.36 2729.58 1234.93 2743.47C1293.4 2799.22 1366.28 2825.24 1443.26 2843.99C1531.02 2865.37 1618.94 2863.31 1707.56 2853.37C1771.12 2846.24 1832.5 2828.77 1894.79 2815.55C1927 2808.72 1924.92 2809.74 1936.31 2840.48C1976.49 2948.95 2009.69 3060.34 2065.71 3162.38C2087.15 3201.44 2116.05 3234.66 2153.13 3260.18C2156.14 3262.25 2158.62 3265.09 2163.41 3268.47C2182.57 3269.36 2199.65 3269.36 2216.73 3269.36C2199.93 3259.31 2182.71 3249.89 2166.41 3239.1C2119.59 3208.09 2089.41 3163.32 2067.07 3113.22C2018.81 3004.98 1979.17 2893.48 1943.44 2780.53C1937.24 2760.94 1932.21 2740.34 1915.07 2726.3C1912.72 2724.38 1912.21 2721.72 1913.04 2719.1C1919.99 2697.24 1921.87 2674.66 1921.2 2652.59C1927.4 2649.61 1930.96 2652.16 1934.29 2654.79C1967.78 2681.24 1995.63 2711.87 2009.2 2753.56C2019.41 2784.91 2032.47 2815.08 2047.83 2844.31C2075.81 2897.57 2091.14 2956.19 2117.67 3010.09C2136.17 3047.69 2152.64 3086.28 2178.65 3119.89C2221.59 3175.36 2277.67 3199.43 2347.09 3194.01C2352.38 3193.59 2357.71 3193.48 2363.02 3193.53C2376.17 3193.66 2382.17 3203.06 2388.2 3212.78C2393.84 3221.85 2387.34 3227.78 2383.39 3234.35C2374.3 3249.43 2360.23 3258.9 2346.35 3268.42C2360.11 3269.36 2372.95 3269.36 2385.79 3269.36C2391.08 3263.42 2398.49 3258.34 2401.27 3251.39C2411.06 3226.9 2431 3226.45 2453.07 3227.41C2457.01 3241.65 2450.34 3254.09 2447.82 3268.15C2456.79 3269.36 2464.35 3269.36 2471.91 3269.36C2475.75 3258.9 2479.29 3248.13 2478.82 3237.01C2478.3 3224.84 2482.78 3218.16 2494.8 3215.9C2507.58 3213.49 2518.86 3205.47 2533.7 3204.62C2533.8 3227.63 2526.62 3247.68 2518.33 3268.27C2529.13 3269.36 2538.8 3269.36 2548.47 3269.36C2550.13 3263.5 2551.79 3257.63 2553.77 3250.63C2559.22 3256.81 2559.59 3268.24 2569.77 3263.81C2577.72 3260.36 2574.75 3251.94 2573.85 3245.38C2572.96 3238.84 2570.41 3232.49 2571.66 3224.09C2579.75 3238.45 2580.65 3253.51 2587.57 3268.29C2594.95 3269.36 2600.42 3269.36 2605.88 3269.36C2591.58 3231.15 2589.58 3215.76 2599.37 3207.95C2606.91 3227.22 2609.19 3247 2613.52 3268.03C2626.98 3269.36 2638.76 3269.36 2650.73 3268.04C2649.04 3255.21 2647.85 3243.53 2645.08 3232.24C2642.26 3220.72 2644.5 3212.7 2654.05 3204.65C2681.11 3181.82 2696.05 3151.59 2702.58 3117.19C2706.65 3095.79 2709.35 3074.02 2708.44 3052.27C2705.56 2983.23 2706.02 2914.17 2705.76 2845.11C2705.62 2805.78 2705.17 2766.45 2704.88 2727.11C2704.81 2718.31 2704.56 2709.27 2717.22 2709.3C2735.55 2709.35 2751.34 2702.27 2765.98 2692C2771.35 2688.25 2777.07 2686.16 2783.73 2685.87C2816.19 2684.47 2848.32 2679.88 2879.96 2672.96C2917.7 2664.72 2956.93 2660.86 2991.16 2640.75C3029.42 2618.26 3044.81 2577.81 3031.42 2536.96C3016.35 2490.98 2978.42 2464.74 2933.68 2469.33C2887.73 2474.04 2841.82 2479.21 2795.81 2483.27C2770.91 2485.47 2747.18 2487.55 2721.75 2475.99C2684.54 2459.07 2633.25 2482.85 2615.13 2519.64C2612.16 2525.69 2608.81 2530.4 2602.28 2532.81C2557.71 2549.3 2532.66 2581.59 2525.93 2628.28C2524.91 2635.33 2522.97 2640.58 2515.16 2641.72C2482.61 2646.48 2450.16 2652.29 2417.45 2655.6C2401.14 2657.25 2400.9 2640 2395.94 2629.9C2391.1 2620.03 2402.01 2619.34 2407.27 2616.44C2429.71 2604.08 2451.28 2590.68 2468.81 2571.6C2503.35 2533.99 2517.49 2487.15 2526.27 2438.81C2545.96 2330.39 2553.47 2220.75 2554.8 2110.69C2555.66 2038.93 2555.73 1967.17 2555.54 1895.41C2555.51 1882.75 2559.45 1876.75 2572.41 1876.2C2588.86 1875.5 2605.25 1873.76 2621.68 1872.55C2650.81 1870.42 2679.97 1868.61 2709.07 1866.13C2723.64 1864.89 2736.14 1858.78 2741.87 1844.45C2747.67 1829.93 2742.73 1817.24 2731.67 1807.02C2723.89 1799.83 2715.89 1792.72 2707.24 1786.64C2684.63 1770.76 2662.17 1754.56 2638.64 1740.13C2598.61 1715.58 2583.05 1679.8 2584.53 1634.05C2586.26 1580.43 2587.26 1526.76 2587.12 1473.12C2587.05 1448.43 2583.64 1422.81 2558.95 1409.35C2545 1401.75 2539.95 1391.27 2536.86 1377.11C2516.78 1285.11 2479.14 1200.72 2425.88 1123.17C2391.88 1073.67 2346.41 1034.77 2305.06 992.051C2245.96 930.976 2174.08 889.666 2096.92 856.182C2004.13 815.913 1907.36 788.537 1809.03 766.065C1760.34 754.936 1711.26 745.112 1661.7 739.684C1589.79 731.808 1517.26 734.554 1445.3 737.949C1344.41 742.707 1244.42 756.711 1147.54 787.653C1124.69 794.952 1124.86 794.272 1120.3 771.094C1114.27 740.432 1111.65 709.018 1100.72 679.411C1093.74 660.486 1081.88 651.898 1065.38 653.462C1050.25 654.895 1039.69 666.409 1036.07 684.701C1026.58 732.514 1016.58 780.229 1007.59 828.134C1005.77 837.788 1001.52 843.311 992.9 846.825C975.149 854.058 958.377 863.259 941.762 872.78C857.673 920.965 780.518 977.743 719.141 1053.76C638.805 1153.26 602.464 1269.36 592.784 1394.96C586.284 1479.19 585.544 1563.71 583.684 1648.11C580.294 1802.74 584.694 1957.29 592.884 2111.72C594.184 2136.1 596.074 2160.45 597.834 2184.81C601.264 2232.45 605.964 2280.04 608.044 2327.74C612.124 2421.6 642.517 2503.34 714.646 2566.34C726.255 2576.48 726.088 2583.48 716.866 2594.97C691.743 2626.25 673.962 2661.72 658.655 2698.82C631.894 2763.69 609.734 2830.25 583.944 2895.42C575.394 2917.02 577.744 2933.06 591.824 2949.38C605.004 2964.67 617.934 2980.2 631.534 2995.11C639.087 3003.4 641.327 3011.26 637.545 3022.47C628.734 3048.61 621.644 3075.3 615.824 3102.31C614.464 3108.62 614.954 3116.34 607.284 3120.64C604.194 3118.7 601.004 3116.88 597.994 3114.8C570.034 3095.46 550.524 3098.53 533.164 3127.85C507.394 3171.4 494.444 3219.46 489.344 3269.36ZM1143.91 2165.61C1149.85 2155.56 1154.12 2162.94 1157.32 2165.37C1190.3 2190.48 1222.9 2216.09 1255.76 2241.36C1262.25 2246.34 1265.03 2252.35 1265.12 2260.44C1265.83 2330.58 1271.36 2400.66 1268.06 2470.83C1266.79 2497.92 1262.64 2524.76 1254.29 2550.64C1236 2607.28 1192.94 2635.91 1131.8 2629.86C1038.42 2620.62 947.144 2600.97 858.866 2568.76C818.029 2553.86 781.063 2532.2 749.75 2501.49C703.896 2456.52 684.976 2399.88 680.641 2337.83C673.501 2235.61 667.093 2133.33 661.878 2031.01C658.715 1968.94 659.578 1906.66 656.499 1844.59C651.277 1739.31 656.455 1634.12 658.791 1528.98C660.698 1443.13 663.568 1356.81 686.397 1272.98C706.009 1200.95 741.006 1137.02 790.386 1081.33C842.371 1022.69 904.291 976.272 972.622 938.243C976.789 935.924 981.129 933.884 985.504 931.983C987.324 931.191 989.451 931.105 993.9 930.194C992.397 949.189 991.1 966.892 989.578 984.576C986.048 1025.58 985.724 1066.47 997.749 1106.29C1008.7 1142.55 1029 1171.66 1066.48 1184.48C1105.77 1197.92 1139.19 1185.16 1166 1156.24C1194.66 1125.35 1202.41 1086.75 1201.65 1045.46C1200.6 988.949 1177.31 939.469 1154.93 889.519C1143.64 864.299 1143.95 864.551 1169.44 856.675C1272.78 824.744 1378.66 810.522 1486.63 809.836C1542.4 809.482 1598.2 807.534 1653.83 812.999C1721.66 819.663 1787.66 835.863 1853.63 852.168C1946.24 875.053 2036.42 904.621 2121.67 947.974C2167.41 971.236 2210.03 999.132 2246.14 1035.93C2291.48 1082.12 2341.38 1124.1 2376.83 1179.44C2414.12 1237.62 2442.59 1299.59 2460.46 1366.37C2461.67 1370.9 2462.18 1375.62 2462.92 1379.64C2458.65 1385.07 2453.5 1383.45 2449 1383.26C2335.88 1378.54 2222.65 1379.61 2109.51 1376.39C2057.01 1374.89 2004.66 1367.09 1952.18 1366.36C1858.7 1365.06 1765.35 1358.24 1671.82 1359.95C1619.24 1360.91 1566.66 1361.45 1514.25 1367.12C1483.91 1370.41 1454.12 1374.82 1427.17 1390.18C1382.69 1415.51 1370.05 1457.73 1367.65 1504.82C1366.69 1523.82 1367.49 1542.9 1367.49 1562.45C1363.48 1564.26 1360.41 1560.31 1356.99 1558.44C1290.35 1521.87 1224.89 1483.29 1161.03 1442.05C1122.11 1416.92 1079.8 1397.93 1040.1 1374.18C1021.89 1363.29 1004.38 1372.12 1001.16 1393.38C996.939 1421.16 994.678 1449.24 991.578 1477.18C991.005 1482.35 992.484 1487.86 988.952 1492.65C983.734 1494.79 979.738 1491.7 975.79 1489.26C953.195 1475.3 929.578 1463.11 907.728 1447.82C884.668 1431.67 864.472 1440.16 857.268 1467.43C853.422 1481.99 855.067 1496.89 854.778 1512.87C841.82 1511.15 832.265 1504.12 822.171 1498.97C795.68 1485.43 769.514 1471.26 743.318 1457.15C731.45 1450.76 719.754 1445.85 708.791 1458.33C700.798 1467.42 701.81 1483.1 711.417 1495.05C723.764 1510.4 737.559 1524.45 752.575 1537.2C817.831 1592.6 875.847 1655.97 942.47 1709.84C954.891 1719.89 966.352 1734.9 985.562 1727.54C1005.59 1719.87 1001.86 1701.31 1003 1685.23C1003.1 1683.79 1004.1 1682.42 1005.53 1678.99C1027.89 1691.08 1046.76 1707.24 1066.93 1721.37C1073.89 1726.24 1080.23 1732.07 1087.47 1736.46C1107.52 1748.62 1127.31 1740.28 1132.81 1717.61C1134.17 1712.04 1133.78 1705.87 1139.25 1701.89C1145.85 1701.27 1150.07 1705.84 1154.53 1709.29C1192.76 1738.91 1230.74 1768.87 1269.09 1798.34C1279.18 1806.09 1282.75 1813.89 1278.36 1826.9C1266.07 1863.33 1261.44 1901.27 1258.99 1939.51C1258.7 1944.1 1260.02 1949.22 1255.79 1952.88C1250.22 1954.95 1246.59 1951.09 1242.77 1948.58C1181.83 1908.64 1118.26 1873.17 1054.6 1837.87C1029.45 1823.93 1013.83 1831.04 1009.81 1859.84C1005.43 1891.27 1002.57 1922.91 998.699 1957.61C977.99 1945.87 958.301 1934.95 938.864 1923.59C931.08 1919.04 923.935 1913.41 916.348 1908.51C893.001 1893.42 873.277 1901.99 866.087 1929.22C862.414 1943.13 866.379 1957.68 862 1971.24C854.141 1973.03 848.76 1968.87 843.308 1966.09C813.017 1950.66 781.812 1936.96 753.055 1918.6C741.554 1911.25 729.609 1906.99 718.508 1918.85C709.969 1927.97 711.838 1947 722.015 1958.33C729.828 1967.02 737.595 1975.88 746.322 1983.6C818.359 2047.34 885.164 2116.84 959.899 2177.6C963.195 2180.28 966.479 2183.04 970.05 2185.31C989.515 2197.72 1008.78 2188.49 1011.76 2165.49C1012.76 2157.75 1010.51 2149.57 1015.44 2140.54C1031.59 2147.98 1044.53 2159.83 1058.75 2169.54C1070.15 2177.33 1080.59 2186.5 1091.93 2194.37C1117.52 2212.15 1138.16 2202.92 1142.97 2171.91C1143.3 2169.81 1143.6 2167.71 1143.91 2165.61ZM2091.41 2051.92C2095.03 2118.29 2120.32 2174.13 2150.79 2228.26C2157.04 2239.35 2162.74 2250.8 2167.92 2262.43C2179.14 2287.65 2175.33 2299.01 2151.17 2311.87C2138.51 2318.6 2125.3 2324.28 2112.39 2330.54C2101.91 2335.63 2093.57 2342.59 2100.19 2355.36C2106.34 2367.23 2116.34 2364.9 2126.31 2360C2142.51 2352.03 2159.49 2345.41 2174.9 2336.15C2205.89 2317.54 2214.19 2292.54 2201.96 2258.63C2194.73 2238.58 2184 2220.15 2173.84 2201.49C2160.16 2176.35 2147.03 2150.96 2139.24 2122.53C2166.38 2152.66 2197.46 2175.92 2238.15 2183.49C2278.06 2190.9 2317.23 2184.81 2358.09 2175.1C2357.93 2199.14 2354.9 2220.4 2349.8 2241.34C2327.82 2331.62 2306.4 2422 2273.7 2509.32C2248.04 2577.87 2197.05 2623.1 2138.07 2660.94C2107.62 2680.47 2078.33 2702.02 2044.99 2717.13C2030.98 2723.47 2024.51 2722.06 2015.77 2708.76C1988.95 2667.96 1957.74 2631.19 1909.24 2614.53C1900.88 2611.66 1897.77 2603.76 1892.8 2597.78C1867.23 2567 1827.36 2558.57 1792.25 2576.62C1780.43 2582.69 1771.36 2591.35 1766.06 2603.44C1762.24 2612.12 1756.23 2616.32 1746.88 2617.84C1670.91 2630.23 1595.1 2643.7 1518.97 2655.07C1498.04 2658.2 1478.12 2660.93 1461.34 2674.85C1455.7 2679.53 1451.79 2675.96 1447.99 2671.57C1437.39 2659.33 1430.37 2645.08 1424.39 2630.23C1421.54 2623.13 1424.05 2616.69 1426.93 2610.3C1442.96 2574.77 1448.52 2537.23 1448.9 2498.58C1449.7 2416.73 1448.55 2334.89 1450.48 2253.04C1451.46 2211.64 1449.02 2170.17 1448.26 2128.73C1448.13 2121.48 1446.59 2114.05 1450.01 2106.34C1475.89 2129.35 1495.3 2154.31 1492.06 2191.64C1490.51 2209.51 1492.54 2227.74 1493.75 2245.76C1494.37 2255.04 1497.09 2265.13 1509 2264.31C1520.84 2263.49 1522.04 2253.34 1521.69 2243.91C1521.01 2225.34 1519.71 2206.79 1518.99 2188.22C1518.8 2183.13 1517.22 2177.64 1521.87 2171.59C1533.58 2176.65 1545.76 2181.42 1557.47 2187.16C1563.76 2190.25 1562.28 2197.32 1562.55 2202.97C1564.51 2243.82 1566.27 2284.67 1568.18 2325.52C1568.37 2329.74 1568.71 2334.05 1569.75 2338.12C1571.5 2344.96 1575.88 2349.48 1583.38 2349.14C1591.14 2348.78 1594.57 2343.42 1595.13 2336.43C1595.65 2330.1 1595.7 2323.65 1595.1 2317.33C1591.32 2277.62 1592.86 2237.78 1590.93 2198.22C1616.28 2190.89 1623.75 2196.03 1625.27 2220.93C1625.66 2227.27 1625.92 2233.7 1627.27 2239.87C1628.62 2246.04 1632.83 2250.31 1639.67 2250.23C1647.28 2250.13 1651.69 2245.2 1652.36 2238.32C1653.23 2229.37 1652.66 2220.28 1652.62 2211.26C1652.55 2195.5 1657.18 2193.41 1688.23 2192.25C1702.24 2191.73 1702.14 2200.77 1702.16 2210.07C1702.25 2245.15 1703.9 2280.12 1708.44 2314.93C1709.72 2324.81 1711.58 2335.89 1724.71 2333.46C1737.06 2331.18 1736.15 2319.98 1735.04 2310.15C1730.72 2272.1 1729.81 2233.88 1729.21 2195.65C1728.9 2176.27 1745.77 2180.47 1757.04 2174.44C1761.21 2185.26 1759.16 2195.39 1760 2205.13C1760.54 2211.51 1760.82 2217.91 1763.72 2223.75C1766.39 2229.11 1770.89 2231.55 1776.83 2230.51C1784.71 2229.14 1786.9 2222.99 1786.96 2216.34C1787.09 2200.4 1786.74 2184.45 1786.35 2168.51C1786.17 2161.28 1787.47 2155.38 1793.54 2150.21C1847.16 2104.53 1866.68 2043.56 1869.31 1975.9C1870 1958.39 1870 1944.25 1891.36 1939.06C1903.97 1935.99 1912.52 1924.68 1918.35 1913.19C1923.81 1902.42 1930.88 1901.02 1941.75 1903.44C1954.13 1906.2 1966.95 1907.15 1979.63 1908.33C1997.58 1909.99 2014.42 1911.35 2026.94 1928.45C2036.74 1941.84 2053.74 1946.21 2070.13 1944.31C2084.62 1942.63 2087 1949.26 2088.34 1961.18C2091.73 1991.39 2090.44 2021.68 2091.41 2051.92ZM2402.13 1433.46C2434.66 1436.85 2464.59 1436.02 2493.8 1442.61C2505.56 1445.27 2517.13 1448.12 2527.28 1456.26C2514.95 1454.79 2502.64 1453.11 2490.29 1451.9C2481.84 1451.07 2473.34 1450.67 2464.85 1450.51C2459.95 1450.42 2454.67 1451.25 2454.18 1457.53C2453.7 1463.63 2458.64 1465.9 2463.45 1466.49C2477.14 1468.18 2490.91 1469.23 2504.64 1470.59C2508.34 1470.96 2512.02 1471.56 2515.71 1472.01C2529.43 1473.65 2536.05 1479.97 2534.84 1495.13C2531.12 1541.78 2531.45 1588.58 2531.73 1635.35C2531.8 1646.46 2527.15 1648.94 2517.07 1647.69C2448.47 1639.16 2379.49 1636.78 2310.46 1635.04C2229.2 1632.98 2147.91 1631.63 2066.7 1628.43C2001.97 1625.89 1937.38 1620.08 1872.65 1617.55C1828.08 1615.8 1783.44 1618.98 1739.01 1623.19C1668.73 1629.84 1598.39 1636.26 1529.12 1650.8C1513.53 1654.07 1497.52 1655.61 1482.17 1659.68C1465.08 1664.21 1454.56 1657.57 1446.9 1643.27C1436.02 1622.98 1427.91 1601.83 1425.23 1578.73C1421.8 1549.18 1417.91 1519.76 1421.58 1489.85C1426.26 1451.71 1443.68 1430.16 1492.86 1423.51C1587.37 1410.74 1682.62 1410.37 1777.7 1414.32C1858.91 1417.69 1940.3 1415.61 2021.35 1423.07C2148.05 1434.72 2275.16 1431.73 2402.13 1433.46ZM2551.07 1727.25C2566.12 1751.65 2587.1 1767.25 2610.83 1786.52C2586.2 1789.69 2566.48 1792.64 2546.67 1794.64C2527.13 1796.6 2507.46 1797.18 2487.93 1799.24C2481.13 1799.96 2470.11 1799.16 2470.38 1808.81C2470.69 1819.83 2481.82 1816.21 2488.21 1815.67C2528.41 1812.27 2568.53 1808 2608.69 1804.23C2623.03 1802.88 2638.31 1798.39 2649.9 1814.54C2625.61 1823.39 2600.83 1820.37 2576.89 1822.96C2502.99 1830.97 2428.97 1838.01 2354.91 1844.33C2313.13 1847.9 2271.15 1849.06 2229.29 1851.77C2180.55 1854.92 2131.87 1861.04 2083.12 1861.53C1970.67 1862.66 1862.69 1840.61 1759.64 1794.3C1688.9 1762.51 1616.98 1733.39 1543.4 1708.6C1536.5 1706.28 1529.88 1703.16 1521.34 1699.67C1534.95 1690.9 1546.57 1694.36 1557.75 1698.76C1586.92 1710.23 1615.89 1722.2 1644.95 1733.96C1648.39 1735.36 1651.8 1736.92 1655.36 1737.94C1660.05 1739.28 1665.29 1740.35 1667.77 1734.62C1670.27 1728.87 1666.22 1725.47 1661.66 1723.48C1650.96 1718.8 1640.03 1714.65 1629.26 1710.16C1613.74 1703.68 1598.27 1697.08 1578.82 1688.86C1604.8 1680.4 1627.45 1678.41 1649.67 1676.15C1740.02 1666.93 1830.56 1656.32 1921.49 1663.31C2058.24 1673.83 2195.25 1675.28 2332.22 1679.05C2384.2 1680.48 2436.1 1684.81 2488.03 1687.85C2516.21 1689.49 2543.47 1692.66 2551.07 1727.25ZM1334.53 2208.06C1333.16 2121.67 1331.07 2038.34 1330.69 1955C1330.32 1873.28 1355.34 1799.37 1403.71 1733.44C1406.53 1729.6 1409.48 1725.78 1412.79 1722.37C1429.47 1705.14 1433.75 1705.28 1451.07 1723.47C1450.75 1724.8 1450.83 1726.64 1449.96 1727.75C1409.12 1780.33 1400.45 1842.37 1395.49 1906.19C1389.26 1986.14 1402.05 2065.13 1404.35 2144.62C1404.81 2160.55 1405.88 2176.46 1405.9 2192.38C1405.97 2291.22 1405.69 2390.06 1405.83 2488.89C1405.86 2513.44 1403.82 2537.68 1398.82 2561.68C1386.35 2621.47 1331.3 2667.07 1261.62 2668.08C1260.02 2664.9 1262.46 2663.08 1264.24 2661.42C1313.15 2615.98 1332.29 2557.51 1337.2 2493.14C1344.04 2403.39 1335.64 2313.7 1335.13 2223.98C1335.1 2218.67 1334.73 2213.37 1334.53 2208.06ZM2283.64 2799.4C2323.56 2791.98 2323.1 2792.18 2338.35 2826.41C2358.44 2871.52 2377.67 2916.96 2396.19 2962.72C2400.57 2973.53 2399.63 2979.46 2389.56 2986.24C2339.81 3019.76 2286.06 3044.18 2227.43 3060.96C2222.03 3047.06 2216.06 3034.51 2201.31 3028.62C2185.66 3022.38 2173.93 3032.28 2159.66 3037.87C2147.31 3018.03 2138.26 2997.17 2129.11 2976.46C2110.04 2933.25 2097.23 2887.48 2075.72 2845.26C2069.62 2833.29 2073.55 2828.11 2086.7 2826.41C2149.26 2818.32 2211.75 2809.66 2274.26 2801.17C2277.41 2800.75 2280.51 2800 2283.64 2799.4ZM1615.28 1948.76C1676.81 1945.41 1735.28 1946.25 1793.74 1946.45C1813.71 1946.52 1815.37 1948.14 1814.99 1968.54C1814.1 2017.7 1802.8 2062.94 1767.67 2100.11C1743.73 2125.44 1712.7 2133.43 1680.42 2138.35C1655.8 2142.1 1631.06 2142.68 1605.87 2141.14C1546.66 2137.53 1482.01 2084.28 1471.4 2005.91C1469.9 1994.87 1468.05 1983.87 1466.36 1972.84C1463.51 1954.23 1466.77 1949.96 1486.12 1949.71C1529.17 1949.15 1572.22 1949.05 1615.28 1948.76ZM2329.17 2764.37C2251.62 2783.73 2174.59 2788.74 2098.45 2799.61C2093.2 2800.36 2087.91 2800.89 2082.67 2801.72C2056.87 2805.82 2052.77 2802.94 2044.37 2778.55C2040.6 2767.59 2043.66 2762.3 2054.59 2760.81C2103.5 2754.16 2152.35 2746.97 2201.37 2741.24C2220.13 2739.04 2238.4 2732.02 2257.93 2736.16C2243.34 2738.27 2228.7 2740.08 2214.19 2742.62C2207.81 2743.74 2198.23 2743.87 2200.16 2753.7C2201.81 2762.14 2210.19 2759.56 2216.27 2758.67C2235.18 2755.9 2254.05 2752.91 2272.92 2749.85C2278.2 2749 2283.93 2747.82 2285.31 2741.58C2286.68 2735.36 2280.38 2734.43 2276.7 2731.53C2284.46 2727.66 2292.37 2727.96 2301.25 2728.65C2305.1 2733.59 2302.38 2745.95 2314.78 2743.19C2325.65 2740.77 2319.29 2732.32 2320.4 2724.81C2367.07 2718.48 2413.72 2711.16 2460.61 2706.07C2502.95 2701.47 2544.35 2691.75 2586.36 2685.51C2591.8 2684.71 2596.68 2682.61 2598.47 2676.64C2600.04 2671.42 2598.66 2666.15 2594.1 2664.14C2583.75 2659.58 2580.49 2652.27 2580.99 2641.42C2581.71 2625.54 2583.73 2609.22 2596.84 2599.61C2621.55 2581.52 2649.66 2570.11 2680.74 2568.83C2691.58 2568.39 2702.19 2571.06 2704.52 2584.9C2706.77 2598.23 2701.4 2607.21 2688.55 2609.92C2655.3 2616.95 2644.27 2639.42 2644.52 2670.5C2645.32 2768.25 2642.22 2866 2645.55 2963.77C2647.17 3011.43 2652.56 3058.98 2647.7 3106.95C2643.78 3145.62 2618.73 3165.47 2588.89 3182.49C2580.7 3187.16 2571.53 3190.11 2561.48 3194.43C2556.23 3176.34 2554.9 3158.17 2545.66 3142.46C2543.18 3138.23 2548.29 3134.79 2550.92 3131.7C2573.44 3105.21 2581.76 3073.99 2581.21 3040.01C2580.23 2980.47 2583.99 2921.09 2585.96 2861.63C2587.07 2828.23 2585.22 2794.72 2584.85 2761.26C2584.79 2755.54 2583.58 2749.26 2588.78 2744.84C2593.72 2740.65 2596.65 2735.72 2593.38 2729.54C2589.68 2722.54 2582.92 2720.8 2575.6 2721.93C2553.05 2725.43 2530.5 2728.95 2508.02 2732.86C2448.38 2743.25 2388.78 2753.85 2329.17 2764.37ZM2236.45 1938.69C2298.94 1935.64 2358.47 1936.77 2417.99 1936.81C2426.78 1936.81 2431.23 1941.2 2431.34 1949.11C2432.22 2009.3 2423.84 2067.45 2373.35 2107.53C2298.67 2166.81 2177.56 2128.44 2148.55 2038.01C2139.91 2011.06 2136.72 1983.06 2134.34 1954.95C2133.42 1944.08 2137.69 1939.5 2148.75 1939.51C2177.98 1939.56 2207.22 1939.01 2236.45 1938.69ZM2500.25 2160.9C2498.71 2254.97 2490.13 2345.21 2473.9 2434.63C2462.9 2495.24 2438.35 2547.11 2377.03 2572.81C2374.1 2574.04 2371.2 2575.37 2368.22 2576.48C2366.29 2577.2 2364.25 2577.6 2358.56 2579.17C2368.88 2568.13 2377.82 2560.29 2384.68 2550.93C2413.89 2511.09 2427.8 2464.81 2437.62 2417.35C2450.88 2353.24 2453.18 2287.88 2456.68 2222.75C2459.49 2170.32 2463.58 2117.98 2463.9 2065.39C2464.04 2042.77 2474.38 2021.18 2476.65 1998.33C2478.12 1983.5 2479.86 1968.65 2478.95 1953.88C2477.96 1937.71 2485.49 1932.03 2502.03 1931.81C2505.95 2008.6 2499.58 2084.75 2500.25 2160.9ZM829.082 3137.4C899.311 3166.15 969.483 3183.66 1043.42 3183.56C1050.18 3183.55 1058.64 3182.39 1059.37 3192.26C1060.15 3202.8 1050.61 3201.19 1044.49 3202.46C982.135 3215.39 918.912 3215.58 855.648 3214.67C851.596 3214.62 846.72 3213.68 843.666 3211.3C809.768 3184.93 768.85 3179.96 728.59 3172.87C711.271 3169.82 694.659 3164.31 678.101 3158.52C671.633 3156.26 668.656 3153.09 669.761 3145.71C674.157 3116.3 681.403 3087.65 691.046 3056.08C732.982 3093.02 780.458 3116.23 829.082 3137.4ZM1782.85 2711.6C1783.15 2707.97 1783.33 2706.88 1783.18 2705.85C1782.15 2698.71 1783.19 2688.17 1774.01 2688C1762.39 2687.77 1767.27 2698.82 1766.8 2705.39C1765.4 2724.68 1761.58 2741.92 1734.45 2744.49C1717.15 2746.12 1699.97 2749.11 1679.73 2751.91C1683.53 2718.33 1684.35 2686.62 1661.62 2658.13C1686.14 2649.24 1707.63 2644.29 1729.8 2646.48C1742.82 2647.77 1750.55 2658.29 1756.5 2669.52C1758.72 2673.72 1761.48 2678.94 1767.26 2676.46C1773.72 2673.68 1772.31 2667.61 1770.09 2662.68C1767.06 2655.98 1763.22 2649.65 1758.63 2641.11C1785.05 2632.94 1809.95 2624.06 1835.93 2637.17C1853.16 2645.87 1860.91 2661.64 1861.31 2680.29C1861.68 2698.1 1851.33 2709.86 1836.02 2717.69C1824.62 2723.53 1812.87 2728.46 1800 2729.79C1783.21 2731.53 1780.55 2728.58 1782.85 2711.6ZM1110.9 941.074C1127 973.497 1136.96 1005.27 1140.23 1038.98C1142.58 1063.3 1139.93 1086.71 1126.65 1108C1109.8 1134.99 1080.49 1134.99 1063.9 1107.8C1055.4 1093.87 1051.71 1077.87 1050.72 1062.21C1045.89 985.956 1056.13 910.785 1069.46 835.523C1081.14 871.755 1095.34 906.684 1110.9 941.074ZM1542.32 2677.73C1557.34 2690.76 1558.4 2707.03 1560.86 2722.67C1561.74 2728.24 1559.72 2736.22 1567.89 2736.2C1576.63 2736.18 1575.83 2727.74 1576.15 2721.59C1576.8 2709.07 1573.42 2697.16 1567.96 2686.22C1561.9 2674.09 1567.24 2669.77 1578.15 2667.93C1591.76 2665.64 1605.36 2663.24 1619.02 2661.3C1640.57 2658.23 1655.77 2668.86 1662.52 2691.61C1663.71 2695.65 1664.25 2699.93 1664.62 2704.14C1668.97 2753.23 1663.87 2759.12 1615.31 2758.32C1602.32 2758.1 1590.67 2764.64 1578.79 2764.48C1575.17 2762.07 1575.7 2759.26 1575.36 2756.69C1574.74 2752.15 1573.03 2748.35 1567.7 2748.09C1563.05 2747.86 1561.16 2751.45 1560.03 2754.96C1554.67 2771.6 1542.32 2772.1 1527.3 2769.82C1528.83 2757.07 1533.69 2745.51 1532 2733.27C1531.2 2727.49 1531.33 2720.19 1523.42 2720.4C1516.05 2720.6 1517.28 2727.65 1516.92 2732.77C1516.77 2734.88 1516.98 2737.03 1516.83 2739.14C1515.59 2757.21 1507.17 2770.44 1496.55 2771.08C1479.4 2772.12 1460.99 2756.42 1458.77 2738.74C1457.32 2727.21 1459.93 2716.65 1469.29 2703.29C1465.56 2722.25 1469.39 2736.48 1474.39 2750.43C1477.19 2758.23 1481.58 2765.43 1491.06 2765.12C1500.17 2764.83 1504.64 2758.01 1507.89 2750.22C1514.64 2734.07 1507.31 2719.02 1504.05 2703.27C1509.9 2702.1 1514.43 2711.89 1519.6 2705.5C1526.46 2697.02 1516.53 2691.14 1514.8 2682.74C1522.68 2675.5 1532.32 2675.83 1542.32 2677.73ZM672.995 2862.43C694.128 2801.34 715.472 2743 742.662 2687.01C751.509 2668.8 763.202 2652.3 775.228 2636.06C789.57 2616.69 789.556 2616.59 811.573 2626.27C816.329 2628.36 821.735 2629.49 825.552 2634.28C763.366 2732.69 711.8 2836.4 673.924 2946.93C651.545 2933.35 649.348 2927.64 657.241 2905.85C662.486 2891.37 667.743 2876.9 672.995 2862.43ZM2978.34 2545.33C2986.02 2576.75 2978.09 2594.32 2954.41 2601.12C2947.35 2594.28 2950.24 2584.27 2947.2 2576.15C2945.48 2571.57 2943.19 2566.85 2937.23 2567.81C2931.86 2568.67 2931.74 2573.09 2931.82 2577.68C2932.38 2610.46 2932.34 2610.53 2900.35 2617.77C2894.26 2619.14 2888.25 2622.24 2881.3 2619.59C2877.01 2613.22 2881.97 2606.5 2881.31 2599.88C2880.75 2594.12 2881.88 2586.93 2873.87 2586.34C2866.21 2585.77 2867.3 2592.91 2866.25 2597.87C2860.45 2625.51 2848.82 2632.3 2818.93 2624.02C2828.36 2594.39 2820.65 2567.07 2804.33 2541.93C2830.61 2522.35 2852.42 2529.14 2860.96 2558.18C2862.72 2564.14 2862.18 2574.65 2872.23 2571.66C2880.81 2569.11 2877.68 2560.12 2876.04 2553.64C2874.11 2546.03 2871.2 2538.67 2868.77 2531.35C2892.28 2517.17 2909.87 2521.41 2922.05 2543.44C2924.93 2548.66 2926.6 2557.59 2934.92 2554.34C2943.18 2551.11 2938.4 2543.52 2937.03 2537.63C2936.09 2533.6 2933.63 2529.81 2935.2 2525.43C2954.44 2518.7 2968.3 2525.11 2978.34 2545.33ZM2434.79 3070.7C2419.52 3078.32 2407.98 3086.51 2403 3101.24C2400.9 3107.47 2396.26 3110.31 2390.15 3111.76C2348.3 3121.69 2306.67 3132.25 2267.74 3151.38C2258.15 3156.09 2232.53 3143.72 2228.72 3133.67C2225.32 3124.71 2231.99 3122.5 2238.11 3120.43C2256.69 3114.16 2275.52 3108.58 2293.96 3101.94C2345.75 3083.28 2393.15 3056.27 2438.49 3025.35C2447.14 3019.45 2455.42 3012.71 2466.04 3009.01C2476.03 3019.83 2476.62 3033.52 2479.79 3046.05C2481.49 3052.75 2475.34 3054.97 2470.42 3056.94C2458.59 3061.65 2446.67 3066.13 2434.79 3070.7ZM2396.97 2806.66C2412.86 2849.08 2427.87 2889.24 2442.73 2929.44C2444.73 2934.85 2447.27 2940.63 2444.03 2946.3C2440.19 2953 2433.94 2958.17 2426.72 2959.26C2418.19 2960.55 2417.84 2951.46 2415.7 2946.08C2398.11 2901.79 2379.67 2857.88 2359.93 2814.5C2355.16 2804 2346.44 2791.41 2363.97 2783.72C2378.93 2777.15 2387.31 2782.19 2394.55 2800.79C2395.32 2802.76 2396.16 2804.7 2396.97 2806.66ZM1880.43 2733.49C1872.84 2744.98 1864.78 2752.55 1853.92 2756.48C1846.28 2759.24 1836.27 2761.72 1832.31 2753.53C1827.46 2743.5 1839.44 2742.45 1845.07 2739.35C1882.04 2719 1894.1 2683.34 1875 2646.47C1862.54 2622.42 1841.92 2609.9 1814.78 2608.53C1808.02 2608.19 1801.22 2608.48 1793.52 2608.48C1803.92 2590.18 1832.78 2584.56 1854.75 2595.31C1869.08 2602.33 1879.3 2613.56 1886.6 2627.61C1905.58 2664.14 1900.18 2699.23 1880.43 2733.49ZM2476.43 2794.95C2491.7 2792.25 2504.76 2790.23 2517.83 2788.3C2528.38 2786.75 2532.75 2791.72 2531.47 2801.89C2529.56 2817.11 2527.04 2832.26 2525.42 2847.51C2522.8 2872.22 2520.7 2896.98 2518.37 2921.9C2513.53 2922.72 2513.89 2918.25 2513.07 2916C2500.07 2880.16 2487.25 2844.26 2474.56 2808.31C2472.95 2803.77 2468.59 2798.36 2476.43 2794.95ZM2422.98 3144C2436.76 3155.85 2443.91 3169.24 2449.35 3183.87C2453.35 3194.64 2451.93 3200.56 2438.91 3202.38C2411.95 3206.15 2412.02 3206.66 2391.9 3174.01C2404.76 3168.41 2411.69 3175.69 2417.24 3185.14C2419.77 3189.46 2422.03 3195.01 2427.53 3191.67C2433.71 3187.92 2429.77 3183.84 2426.57 3178.8C2412.14 3156.12 2405.81 3152.78 2379.42 3158.41C2364.92 3161.5 2350.67 3165.89 2336.1 3168.59C2325.43 3170.56 2314.3 3171.75 2300.97 3163.77C2331.04 3152.1 2359.14 3144.23 2388.03 3138.49C2400.74 3135.97 2412.17 3136.79 2422.98 3144ZM2711.7 2627.47C2730.11 2615.32 2733.44 2598.83 2730.57 2581.36C2725.41 2549.96 2700.75 2543.35 2671.02 2541.73C2683.35 2527.82 2694.56 2525.04 2708.15 2531.91C2742.08 2549.08 2759.3 2604.13 2740.75 2637.1C2734.83 2647.63 2726.63 2655.98 2713.62 2656.7C2702.05 2657.34 2695.6 2650 2690.26 2641.44C2694.86 2631.42 2705.21 2632.5 2711.7 2627.47ZM2402.31 2423.16C2391.18 2463.63 2380.49 2501.42 2352.77 2531.72C2385.79 2445.71 2405.33 2356.62 2420.53 2266.14C2418.33 2292.31 2415.69 2318.46 2414.04 2344.66C2412.37 2371.2 2407.5 2397.19 2402.31 2423.16ZM2466 3159.5C2461.34 3149.26 2453.9 3143.14 2452.44 3133.9C2475.78 3123.82 2514.27 3137.69 2525.36 3159.61C2529.76 3168.28 2528.67 3174.4 2519.95 3179.43C2511.3 3184.42 2492.67 3191.01 2478.85 3192.8C2474.62 3181.85 2470.31 3170.68 2466 3159.5ZM1389.78 2756.75C1373.68 2771.01 1367.6 2770.09 1341.67 2750.15C1367.28 2733.19 1387.66 2711.35 1406.48 2688.41C1424.57 2698.52 1426.31 2703.96 1417.08 2719.85C1409.36 2733.15 1400.49 2745.64 1389.78 2756.75ZM2760.65 2552.44C2765.37 2537.13 2774.33 2539.77 2782.72 2545.57C2803.94 2560.26 2812.92 2598.39 2801.73 2621.74C2796.95 2631.72 2788.59 2631.39 2780.19 2630.34C2770.94 2629.18 2772.67 2621.28 2772.98 2615.33C2774.11 2593.28 2771.34 2572.12 2760.65 2552.44ZM1311.13 2703.92C1342.69 2695.66 1367.44 2679.57 1391.97 2660.91C1395.79 2669.81 1391.59 2674.68 1387.64 2679.31C1372.12 2697.5 1355.22 2714.22 1336.71 2729.51C1326.03 2738.33 1317.24 2738.05 1307.5 2729.32C1301.28 2723.75 1293.35 2719.98 1289 2711.75C1295.42 2705.9 1303.95 2706.72 1311.13 2703.92ZM2302 2684.95C2296.9 2676.06 2293.3 2668.97 2288.96 2662.37C2283.5 2654.08 2280.11 2645.89 2290.23 2639.13C2299.86 2632.7 2311.24 2631.04 2318.88 2640.87C2330.81 2656.23 2338.64 2674.11 2345.11 2692.28C2321.58 2704.67 2313.31 2703.07 2302 2684.95ZM1515.71 1799.41C1515.7 1788.55 1515.38 1780.59 1515.8 1772.67C1516.09 1767.35 1513.7 1759.33 1522.38 1759.07C1529.1 1758.87 1536.72 1761.12 1539.18 1768.69C1543.31 1781.41 1543.98 1794.83 1542.57 1807.98C1541.61 1817.05 1532.99 1816.64 1526.23 1816.66C1513.71 1816.7 1516.36 1806.92 1515.71 1799.41ZM1454.84 1812.87C1461.44 1793.02 1469.45 1776.1 1483.71 1757.77C1489.77 1777.26 1489.39 1793.6 1486.81 1809.8C1485.22 1819.78 1475.35 1817.73 1468.64 1818.52C1463.87 1819.09 1455.26 1824.57 1454.84 1812.87ZM2267.96 2675.47C2271.23 2680.27 2273.21 2683.38 2275.06 2686.56C2281.6 2697.75 2278.63 2704.79 2265.57 2705.91C2251.71 2707.1 2238.04 2711.87 2218.51 2708.84C2234.33 2695.08 2246.89 2683.91 2259.78 2673.12C2262.67 2670.71 2265.71 2672.95 2267.96 2675.47ZM2546.12 3093.64C2532.24 3118.3 2529.15 3119.82 2504.58 3111.99C2497.25 3109.65 2488.64 3110.83 2481.26 3103.81C2500.36 3094.01 2520.47 3089.9 2539.95 3084.2C2549.09 3081.53 2547.66 3088.1 2546.12 3093.64ZM1591.38 1815.92C1571.65 1814.05 1566.93 1803.65 1572.49 1778.63C1582.38 1779.15 1593.88 1778.57 1596.53 1790.75C1598.28 1798.79 1607.58 1810.7 1591.38 1815.92ZM1403.02 2773.85C1412.67 2761.18 1421.73 2750.39 1431.02 2739.32C1442.55 2756.23 1443.56 2769.86 1432.14 2778.2C1422.47 2785.27 1411.62 2782.88 1403.02 2773.85ZM1659.9 1811.57C1634.06 1817.03 1631.17 1815.69 1630.19 1798.96C1641.31 1800.72 1651.14 1804.79 1659.9 1811.57ZM1639.27 2805.54C1629.17 2808.75 1619.54 2812.66 1610.9 2801.49C1622.21 2798.17 1631.63 2794.6 1639.27 2805.54ZM1566.98 2802.71C1558.58 2795.29 1563.16 2792.75 1569.35 2792.2C1575.62 2791.64 1581.98 2792.44 1585.94 2799.67C1580.31 2806.05 1573.29 2802.51 1566.98 2802.71ZM1485.59 2718.67C1497.25 2722.95 1490.58 2732.25 1490.76 2740.2C1484.92 2734.09 1482.26 2727.17 1485.59 2718.67Z" stroke="#00EEFF" stroke-width="5.5" stroke-linecap="square"/>
<path d="M3269.36 617.14C3269.36 583.68 3269.36 551.71 3269.36 519.75C3223.87 522.64 3178.57 528.55 3132.9 528.69C3114.56 528.74 3113.11 527.03 3115.26 508.33C3116.65 496.22 3119.08 484.04 3118.75 471.95C3118.28 454.79 3127.41 445.96 3141.35 439.24C3181.02 420.1 3223.46 411.39 3267.98 403.53C3269.36 374.21 3269.36 346.5 3269.36 318.79C3216.41 327.39 3163.46 336.06 3114.07 358.43C3102.97 363.45 3090.07 367.48 3082.11 375.87C3058.32 400.93 3027.57 399.64 2997.93 400.18C2932.07 401.38 2866.13 401.98 2800.3 400.02C2764.92 398.97 2729.2 398.05 2694.11 391.45C2672.23 387.33 2670.3 382.71 2683.44 365.43C2709.34 331.38 2701.63 302.54 2662.16 285.81C2655.38 282.93 2648.62 280.02 2641.17 276.84C2642.9 267.66 2649.35 264.61 2656.38 262.11C2668.13 257.94 2680.38 257.86 2692.6 257.86C2754.76 257.88 2816.93 258.13 2879.09 257.98C2896.66 257.94 2914.09 256.4 2930.06 247.71C2948.9 237.45 2962.66 223.09 2963.45 200.73C2964.21 179 2951.73 164.08 2934.33 152.66C2929.12 149.24 2922.2 148.32 2917.65 140.36C2930.68 126.91 2947.27 119.58 2965.22 115.17C3001.13 106.37 3038.07 107.72 3074.55 106.14C3138.66 103.37 3202.87 102.98 3268.2 100.25C3269.36 78.6301 3269.36 58.36 3267.92 37.84C3250.45 35.9 3234.81 40.67 3218.87 40.47C3142.33 39.5 3065.88 41.7001 2989.57 47.3701C2944.49 50.7301 2902.89 64.15 2869.9 96.71C2842.15 124.09 2840.23 154.74 2862.58 186.65C2863.83 188.43 2864.16 190.53 2861.62 193.6C2850.02 194.33 2837.38 195.9 2824.75 195.79C2776.41 195.35 2728.07 193.53 2679.75 193.9C2649.3 194.13 2621.57 203.73 2598.06 224.6C2563.39 255.38 2561.89 313.06 2610.06 333.98C2619.25 337.97 2620.05 343.19 2616.11 351.5C2612.5 359.1 2608.95 366.76 2608.4 375.6C2606.11 412.14 2625.63 438.66 2665.49 448.98C2717.33 462.4 2770.59 462.89 2823.71 463.04C2886.95 463.22 2950.2 463.34 3013.44 462.46C3029.32 462.23 3034.58 468 3032.71 482.85C3031.52 492.32 3031.11 501.88 3029.98 511.36C3027.14 535.21 3026.93 534.45 3003.9 538.42C2973.64 543.63 2942.69 545.7 2913.87 558.01C2884.18 570.7 2866.55 592.34 2860.09 624.11C2849.6 675.634 2835.79 726.301 2818.23 775.909C2797.12 835.559 2769.71 892.603 2745.89 951.132C2742.58 959.247 2737.27 967.079 2739.93 976.559C2747.27 980.799 2754.83 979.376 2762.12 978.848C2777.17 977.758 2790.15 979.331 2799.32 994.139C2806.25 1005.33 2812.36 998.727 2816.43 990.35C2841 939.682 2864.13 888.354 2884.93 836.029C2908.1 777.724 2927.15 718.094 2938.82 656.327C2941.53 642 2949.21 633.65 2963.43 631.05C2982.22 627.62 3000.93 623.77 3019.78 620.75C3040.83 617.38 3044.51 621.36 3041.13 642.716C3034.56 684.26 3024.07 725.042 3010.66 764.676C2958.86 917.797 2899.78 1067.85 2815.41 1206.65C2810.34 1214.99 2805.74 1223.75 2816.74 1231.76C2827.68 1239.72 2836.38 1237.14 2844.12 1227.12C2856.83 1210.7 2867.83 1193.16 2878.13 1175.17C2923.07 1096.62 2959.6 1014.12 2992.98 930.161C3028.48 840.864 3063.41 751.398 3080.27 656.128C3087.08 617.62 3087.49 617.69 3127.31 614.99C3128.37 614.92 3129.43 614.82 3130.48 614.72C3156.01 612.31 3157.29 613.58 3157.97 639.373C3159.88 711.897 3142.98 781.75 3126.19 851.326C3108 926.67 3080.89 999.417 3056.73 1073C3055.16 1077.77 3051.9 1082.77 3055.8 1087.95C3085.18 1088.63 3091.5 1084.29 3100.71 1058.24C3104.61 1047.23 3109.33 1036.52 3113.42 1025.57C3134.79 968.334 3152.4 909.978 3167.57 850.76C3184.61 784.218 3197.75 717.221 3199.58 648.38C3200.73 605.48 3193.21 612.49 3239.52 606.95C3251.58 605.51 3263.14 605.23 3269.36 617.14Z" fill="#C800FF" stroke="white" stroke-width="5.5" stroke-linecap="square"/>
<path d="M1312.51 3C1290.75 3 1270.48 3 1250.21 3C1250.93 14.73 1248.49 25.85 1243.62 37.76C1235.94 27.39 1238.7 16.24 1236.22 4.38C1209.94 3 1185.42 3 1160.9 3C1160.75 5.08 1160.49 7.15999 1160.46 9.23999C1160.01 36.56 1159.98 36.73 1132.8 30.49C1126.05 28.94 1120.49 30.52 1114 34.48C1112.98 34.96 1113.06 34.85 1113.09 34.78C1112.45 47.76 1120.53 53.76 1131.45 57.39C1139 59.9 1146.74 61.92 1154.13 64.83C1160.42 67.31 1165.28 71.3 1160.75 82.23C1111.27 61.61 1065.46 35.11 1019.61 3.91003C984.529 3.00003 951.501 2.99992 919.055 3.91992C922.937 10.0399 928.472 12.38 933.434 15.36C966.209 35.01 999.104 54.46 1031.86 74.14C1066.48 94.94 1101.22 115.64 1139.35 129.44C1181.63 144.73 1201.28 135.9 1218.65 95.4C1235.6 95.9 1237.99 93.3099 1236.26 74.5599C1235.46 65.8199 1234.12 57.4399 1248.44 57.1699C1249.84 74.3399 1251.54 90.56 1252.43 106.83C1255.48 162.27 1265.19 216.79 1282.9 269.09C1312.93 357.77 1383.35 408.28 1465.38 439.81C1546.85 471.12 1632.5 479.34 1720.44 463.22C1800.7 448.51 1870.81 416.81 1930.76 361.53C1958.33 336.11 1976.15 304.68 1992.28 270.24C1989.12 284.98 1998.51 287.61 2008.41 288.85C2010.54 301.78 2001.5 310.6 1999.4 321.38C1998.11 328.01 1998.6 334.62 2006.02 337.43C2012.5 339.88 2017.87 336.43 2020.9 331.14C2037.06 302.97 2044.29 272.06 2047.19 240.07C2047.85 232.73 2042.67 228.43 2035.39 227.49C2028.12 226.55 2025.04 231.31 2022.76 237.18C2020.66 242.58 2022.8 248.98 2018.4 254.36C2011.66 252.91 2004.77 251.42 1997.67 249.89C1998.63 233.41 2003.66 218.85 2006.79 203.9C2016.06 159.66 2020.9 114.85 2022.77 69.7C2022.99 64.53 2022.24 57.91 2030.47 58.83C2036.84 59.55 2037.16 65.02 2036.57 69.9C2034.98 83.03 2032.37 96.1499 2052.29 97.2999C2057.04 97.5799 2056.78 103.99 2058.66 107.61C2070.41 130.2 2086.89 138.74 2112.27 135.01C2127.68 132.74 2141.88 126.85 2155.83 120.22C2215.91 91.64 2270.95 54.24 2328.51 21.25C2337.46 16.13 2348.67 13.54 2352.39 3C2316.81 3 2282.71 3 2248.62 3C2233.43 19.96 2213.36 29.82 2193.83 40.38C2171.9 52.24 2149.87 63.9299 2127.69 75.3099C2122.72 77.8599 2117.54 81.23 2110.42 79.54C2107.8 70.64 2113.8 67.58 2120.43 65.1C2129.87 61.58 2139.57 58.67 2148.81 54.7C2155.57 51.8 2160.43 46.74 2157.69 38.38C2154.96 30.06 2148.55 28.9199 2140.99 30.5699C2140.47 30.6799 2139.96 30.79 2139.44 30.9C2109.48 37.18 2108.38 36.0999 2112.67 4.17993C2085.01 2.99993 2058.36 3 2031.72 3C2033.67 8.54 2035.24 14.09 2031.23 20.79C2022.63 18.05 2022.4 12.12 2023.45 4.01001C2001.01 3.00001 1979.68 3 1958.16 4.37C1964.72 58.43 1958.6 110.68 1950.34 162.49C1944.69 197.98 1939.78 234.35 1923.64 267.02C1896.29 322.39 1848.19 356.21 1793.36 378.38C1705.68 413.83 1614.89 416.57 1523.25 392.99C1455.05 375.44 1398.53 339.96 1357.05 282.84C1339.25 258.33 1335.65 227.85 1329.31 198.86C1315.18 134.27 1307.56 69.19 1312.51 3Z" fill="black" stroke="white" stroke-width="5.5" stroke-linecap="square"/>
<path d="M3 320.289C3 349.489 3 377.199 3 404.919C47.83 410.439 91.6401 419.889 132.97 438.859C144.7 444.249 152.61 452.039 155 465.689C156.99 477.069 163.19 487.819 164.49 499.199C166.94 520.589 162.61 528.389 140.83 531.609C116.65 535.199 93.31 531.699 70.01 528.039C48.3 524.629 26.83 528.019 4.14001 527.959C3.00001 557.889 3.00008 586.669 3.71008 614.619C7.43008 607.889 10.55 603.029 18.89 604.359C28.82 605.949 38.97 606.089 49 607.069C72.83 609.389 74.86 611.109 74.9 635.139C74.95 668.102 75.4501 701.007 80.8401 733.608C91.8401 800.236 108.33 865.54 128.52 929.945C146.94 988.701 163.66 1048.09 192.54 1102.96C195.88 1109.3 198.47 1118.16 208.57 1114.19C218.06 1110.45 224.56 1104.85 221.45 1092.34C216.71 1073.21 211.12 1054.37 204.09 1036.04C163.46 930.076 132.52 821.516 117.44 708.883C113.8 681.651 112.4 653.954 113.39 626.319C113.66 618.819 115.48 612.299 125.03 612.669C140.93 613.279 156.85 612.569 172.76 614.679C183.11 616.059 187.3 620.899 188.59 630.809C191.27 651.317 195.18 671.601 200.1 691.743C216.75 759.9 237.33 826.714 265.96 890.894C270.77 901.667 276.77 911.275 287.07 917.388C300.48 897.094 299.69 877.01 291.75 855.054C272.79 802.672 254.4 750.035 241.59 695.688C235.68 670.651 229.36 645.666 228.15 617.989C257.39 620.409 284.32 625.639 311.34 630.489C325.66 633.059 331.32 641.327 334.01 654.924C340.39 687.209 348.48 719.181 359.28 750.275C364.16 764.349 368.35 779.156 377.08 792.583C387.8 785.188 398.36 780.493 400.91 768.057C404.09 752.541 411.83 739.317 421.69 727.29C427.84 719.793 430.28 712.049 427.96 702.287C421.46 674.929 415.65 647.41 409.34 620.009C402.26 589.229 382.36 570.939 353.23 560.139C322.08 548.589 290.11 541.439 257.24 538.119C246.57 537.049 241.3 532.219 238.48 522.139C234.49 507.899 236.9 493.629 236.27 479.379C235.67 465.769 241.4 462.189 254.21 462.419C290.83 463.089 327.49 462.309 364.12 462.769C387.46 463.069 404.37 457.649 411.72 431.339C418.08 408.549 419.34 407.169 394.91 404.959C390.68 404.569 386.42 404.579 382.17 404.399C333.36 402.449 284.57 399.339 235.75 399.019C211.06 398.859 199.75 381.259 179.65 367.369C197.68 366.149 210.86 365.019 224.07 364.429C239.46 363.749 254.93 364.219 270.25 362.929C281.46 361.989 292.02 358.489 292.73 344.379C286.83 339.999 280.8 340.579 275.06 340.459C221.45 339.309 167.84 338.019 114.23 337.429C100.81 337.289 87.8901 335.269 74.8601 332.639C50.9501 327.819 26.96 323.389 3 320.289Z" fill="#EBAF00" stroke="#EBE900" stroke-width="5.5" stroke-linecap="square"/>
<path d="M3 36.3906C3 59.2206 3.00011 80.5506 4.49011 101.871C35.1601 102.791 64.42 105.451 93.52 104.301C160.59 101.661 227.26 107.161 293.88 112.581C316.65 114.431 338.62 123.151 354.48 140.951C351.33 148.651 345.3 149.001 340.89 151.631C323.12 162.231 308.91 176.161 309.12 197.971C309.34 220.451 321.6 236.911 341.72 247.081C355.66 254.131 370.68 258.291 386.18 258.131C440.86 257.591 495.56 260.151 550.26 256.711C569.75 255.481 589.66 253.441 608.88 259.251C617.74 261.931 630.13 263.181 630.96 274.351C631.67 284.101 619.48 283.391 612.79 286.681C595.09 295.361 586.1 304.291 584.45 317.361C591.88 312.011 598.4 306.701 605.52 302.381C611.92 298.501 620.45 294.191 626.3 299.881C635.16 308.491 645.934 311.531 656.57 316.091C676.008 324.421 688.891 319.071 695.493 298.181C703.478 272.921 696.517 250.731 679.698 231.681C655.989 204.811 624.05 194.541 589.78 194.071C539.89 193.391 489.96 195.591 440.04 196.291C429.15 196.441 418.16 196.041 407.44 192.131C435.82 139.741 424.75 103.141 372.07 73.7006C343.85 57.9306 313.38 49.1606 281.12 47.1506C208.49 42.6206 135.84 39.4206 63.03 40.4106C42.94 40.6806 22.74 39.6706 3 36.3906Z" fill="black" stroke="white" stroke-width="5.5" stroke-linecap="square"/>
<path d="M1586.84 3C1510.85 3 1436.35 3 1361.92 4.13C1366.67 16.75 1373.71 26.7 1372.13 40.98C1369.05 68.9 1368.79 97.13 1367.67 125.25C1367.45 130.78 1366.25 139.04 1374.02 139.34C1383.33 139.68 1381.75 130.72 1381.6 124.81C1381 100.37 1383.54 76.13 1385.91 48C1389.92 95.62 1383.39 139.43 1386.43 183.15C1386.98 191.12 1381.04 205.82 1393.18 205.6C1406.23 205.36 1400.17 190.34 1400.39 181.97C1401.17 152.06 1400.7 122.12 1400.7 90.54C1406.72 95.27 1405.03 99.8499 1405.56 103.8C1410.99 144.4 1411.68 185.17 1410.15 226.05C1409.88 233.2 1408.71 243.78 1418.31 244.11C1429.35 244.49 1425.79 233.45 1426.16 226.74C1427.08 210.24 1424.57 193.56 1428.82 177.15C1434.71 191.21 1433.87 205.94 1434.56 220.56C1434.92 228.17 1430.68 241.24 1442.79 240.75C1453.01 240.34 1448.78 228.23 1448.84 220.72C1448.92 211.5 1448.86 202.27 1448.86 191.91C1457.69 196.09 1456.34 202.46 1456.46 207.91C1456.72 219.6 1455.72 231.36 1456.79 242.95C1457.52 250.97 1451.59 265.33 1463.68 265.38C1475.88 265.43 1470.15 251.17 1470.85 243.04C1472.14 228.19 1469.16 212.97 1473.66 194.53C1482.46 208.01 1478.52 219.32 1479.96 229.77C1480.93 236.85 1502.03 249.24 1507.76 245.81C1511.35 243.67 1511.99 239.87 1512.08 236.07C1512.28 228.1 1512.2 220.13 1512.53 212.17C1512.86 204.03 1513.54 195.91 1514.06 187.79C1517.61 217.43 1517.53 246.59 1517.68 275.75C1517.7 281.05 1518.23 287.99 1524.78 288.15C1532.69 288.35 1532.47 280.98 1532.62 275.11C1532.67 273 1532.13 270.87 1532.2 268.75C1533.81 222.47 1524.61 175.11 1547.06 130.88C1550.47 124.15 1550.17 115.33 1550.73 107.41C1552.2 86.77 1553.49 66.1099 1554.22 45.4399C1554.54 36.5199 1557.29 30.34 1565.93 26.74C1576.77 22.22 1583.7 13.59 1586.84 3ZM1460.88 122.12C1454.03 96.03 1451.74 71.9199 1452.48 47.5599C1452.94 32.2699 1457.82 29.3299 1479.07 29.6699C1491.72 29.8599 1502.35 31.54 1501.72 48.5C1500.84 72.26 1501.32 96.07 1495.34 119.38C1492.89 128.93 1490.12 138.69 1478.45 139.53C1466.97 140.36 1464.3 130.43 1460.88 122.12Z" stroke="#D229FF" stroke-width="5.5" stroke-linecap="square"/>
<path d="M1912.2 3C1835.14 3 1759.58 2.99998 1684.5 3.97998C1687.64 12.18 1692.05 19.3 1698.42 22.28C1717.59 31.25 1718.08 47.3 1718.61 64.99C1719.47 93.61 1720.62 122.6 1731.88 149.48C1749.93 192.56 1799.47 207.81 1834.33 180.75C1854.24 165.3 1861.75 142.12 1866.01 118.21C1870.31 94.13 1872.5 69.78 1871.93 45.28C1871.68 34.2 1874.96 27.42 1887.41 25.66C1900.32 23.84 1909.57 15.93 1912.2 3ZM1819.75 56.98C1819.49 81.04 1816.96 102.07 1810.62 122.46C1808.29 129.98 1805.35 138.77 1795.77 138.97C1784.96 139.19 1780.28 130.57 1777.85 121.55C1770.73 95.1499 1770.69 67.9999 1770.43 40.9299C1770.38 35.8399 1772.39 31.92 1778.04 30.26C1799.71 23.87 1816.71 34.65 1819.75 56.98Z" stroke="#8F00FF" stroke-width="5.5" stroke-linecap="square"/>
<path d="M3 785.996C3 857.734 3 927.976 3.62 999.172C7.6 1010.17 11.89 1020 14.16 1030.28C32.62 1113.9 56.9101 1195.59 94.6901 1272.73C107.66 1299.21 119.31 1326.64 140.63 1350.36C145.99 1339.46 155.83 1343.11 164.81 1341.58C164.61 1330.19 159.32 1321.51 155.18 1312.53C141.39 1282.66 126.77 1253.15 113.82 1222.93C68.1501 1116.39 45.94 1003.32 22.8 890.575C15.57 855.346 9.57 819.866 3 785.996Z" fill="black" stroke="white" stroke-width="5.5" stroke-linecap="square"/>
<path d="M3269.36 151.492C3269.36 141.442 3269.36 132.832 3268.12 124.172C3217.06 126.932 3167.25 129.952 3117.28 129.132C3098.73 128.822 3080.12 130.182 3062.62 137.912C3043.58 146.322 3035.48 162.042 3042.18 181.452C3047.16 195.882 3044.9 207.272 3032.9 216.932C3025.35 223.002 3019.21 230.912 3027.31 239.872C3034.98 248.362 3044.22 243.872 3051.62 238.102C3069.1 224.492 3075.67 206.312 3072.43 184.482C3069.4 164.062 3070.49 160.762 3091.13 159.692C3150.5 156.622 3209.94 155.072 3269.36 151.492Z" fill="#FF0000" stroke="white" stroke-width="5.5" stroke-linecap="square"/>
<path d="M3269.36 996.724C3269.36 918.607 3269.36 841.985 3268.62 766.355C3266.27 774.558 3263.95 781.693 3263.17 788.993C3257.88 838.587 3250.31 887.807 3240.02 936.615C3230.62 981.221 3218.23 1025.15 3210.18 1070.08C3207.58 1084.57 3213.16 1088.32 3226.08 1087.41C3239.5 1086.47 3247.04 1080.08 3250.41 1066.7C3256.17 1043.74 3258.1 1019.66 3269.36 996.724Z" fill="black" stroke="white" stroke-width="5.5" stroke-linecap="square"/>
<path d="M562.613 3269.36C570.523 3269.36 577.033 3269.36 583.303 3268.3C582.333 3251.05 587.913 3236.23 593.053 3221.31C595.433 3214.4 597.013 3207.07 588.473 3203.89C579.823 3200.67 576.093 3207.71 573.613 3214.23C566.853 3231.98 562.013 3250.24 562.613 3269.36Z" fill="black" stroke="white" stroke-width="5.5" stroke-linecap="square"/>
<path d="M594.482 3269.36C601.312 3269.36 606.782 3269.36 612.742 3268.25C616.822 3255.54 620.472 3243.95 623.982 3232.32C625.852 3226.15 625.122 3220.21 618.602 3217.6C611.712 3214.83 607.492 3219.39 605.202 3225.27C599.652 3239.53 594.072 3253.83 594.482 3269.36Z" fill="black" stroke="white" stroke-width="5.5" stroke-linecap="square"/>
<path d="M635.977 3269.36C643.881 3269.36 650.394 3269.36 656.897 3267.89C657.229 3259.58 657.833 3252.73 657.836 3245.89C657.839 3239.27 659.715 3230.45 650.363 3229.2C640.007 3227.82 639.581 3237.53 638.075 3244.36C636.266 3252.55 635.687 3261.02 635.977 3269.36Z" fill="black" stroke="white" stroke-width="5.5" stroke-linecap="square"/>
<path d="M2498.76 3269.36C2504.52 3269.36 2508.95 3269.36 2513.68 3268.2C2514.47 3265.02 2514.83 3262.95 2515.46 3260.97C2517.41 3254.92 2517.44 3248.48 2510.68 3246.57C2502.89 3244.36 2501.82 3251.93 2500.1 3257.19C2498.82 3261.12 2498.29 3265.3 2498.76 3269.36Z" fill="black" stroke="white" stroke-width="5.5" stroke-linecap="square"/>
<path d="M2061.26 234.241C2055.16 276.611 2039.81 314.211 2018.97 349.771C2013.12 359.761 2013 369.181 2018.11 379.901C2025.75 395.931 2040.3 397.441 2054.87 401.041C2150.37 424.611 2247.3 433.641 2345.46 430.301C2361.85 429.741 2378.28 428.051 2393.61 421.051C2414.24 411.631 2420.47 388.801 2407 370.861C2401.07 362.971 2392.56 358.311 2383.87 354.351C2305.58 318.691 2231.81 274.061 2153.63 238.131C2139.27 231.531 2124.85 224.501 2112.1 214.681C2086.9 195.271 2069.51 201.661 2061.26 234.241ZM2083.97 337.341C2095.78 314.091 2095.82 313.941 2118.59 320.261C2126.4 322.421 2133.61 323.321 2137.51 314.521C2141.67 305.141 2134.92 300.811 2128.05 297.401C2122.37 294.591 2116.18 292.841 2110.39 290.241C2106.49 288.481 2105.14 284.971 2106.55 280.941C2108.22 276.151 2112.19 276.461 2115.76 278.021C2124.48 281.851 2133.14 285.851 2141.63 290.161C2192.66 316.091 2243.65 342.101 2294.6 368.181C2297.74 369.791 2301.76 370.771 2303.29 378.291C2287.28 378.291 2271.74 379.221 2256.35 378.131C2201.94 374.271 2147.7 368.981 2094.36 356.671C2082.03 353.831 2077.15 349.341 2083.97 337.341Z" stroke="white" stroke-width="5.5" stroke-linecap="square"/>
<path d="M1879.9 498.448C1862.1 507.608 1843.79 511.138 1825.78 515.628C1815.05 518.308 1805.33 522.718 1801.94 534.288C1798.42 546.288 1803.12 555.708 1812.14 564.028C1833.67 583.888 1852.2 606.468 1870.36 629.378C1922.58 695.24 1977.75 758.298 2043.82 810.922C2046.81 813.299 2049.31 817.836 2054.55 815.291C2054.88 807.526 2042.05 799.344 2053.52 792.916C2061.5 788.445 2071.65 786.696 2080.98 786.115C2090.89 785.498 2087.91 799.148 2095.93 803.167C2100.49 795.243 2099.43 787.25 2098.09 779.665C2094.86 761.388 2091.44 743.117 2087.22 725.049C2067.61 641.229 2038.39 560.328 2012.03 478.558C2008.43 467.368 2004.38 456.528 1997.42 446.908C1985.98 431.108 1972.06 428.618 1956.64 440.878C1947.94 447.778 1940.09 455.828 1932.3 463.788C1917.59 478.838 1900.65 490.388 1879.9 498.448ZM1926.27 547.608C1931.7 558.068 1935.73 566.778 1940.64 574.938C1944.14 580.758 1949.5 584.798 1956.63 580.498C1962.73 576.828 1962.74 570.888 1960.26 565.018C1957.17 557.678 1953.48 550.598 1950.32 543.288C1941.02 521.708 1941.9 519.488 1966.03 505.548C1992.65 580.558 2019.39 655.045 2035.14 733.645C1976.38 681.569 1928.12 620.478 1879.26 558.888C1890.16 548.268 1903.38 545.128 1915.02 539.398C1921.71 536.098 1923.72 543.118 1926.27 547.608Z" stroke="white" stroke-width="5.5" stroke-linecap="square"/>
<path d="M1144.07 283.25C1148.46 281.06 1151.81 279.46 1155.16 277.85C1159.73 275.65 1164.3 273.719 1166.94 280.339C1169.66 287.199 1165.51 290.05 1159.93 292.03C1155.44 293.63 1150.81 294.969 1146.55 297.049C1139.58 300.449 1132.89 304.85 1136.54 314.1C1139.95 322.77 1147.5 320.82 1154.33 319.26C1178.56 313.74 1178.61 313.68 1189.03 337.12C1190.92 341.36 1194.4 345.16 1193.1 352.98C1170.71 358.98 1147.26 365.27 1121.79 372.1C1129.76 377.98 1136.11 377.05 1141.03 375.04C1164.23 365.59 1181.38 372.47 1197.04 391.11C1206.93 402.88 1231.08 401.559 1244.03 391.329C1258.37 379.989 1261.05 366.459 1251.5 349.089C1230.88 311.549 1215.98 272.12 1209.33 229.63C1205.6 205.81 1185.56 197.699 1165.57 211.179C1158.98 215.619 1152.64 220.569 1145.62 224.179C1067.2 264.419 988.606 304.33 910.217 344.64C897.062 351.4 882.644 356.259 871.797 366.959C856.598 381.959 859.627 408.8 878.074 413.02C907.022 419.62 936.575 424.76 966.485 419.62C981.315 417.07 993.406 410.039 998.381 394.319C1001.34 384.979 998.628 380.17 988.584 379.28C980.669 378.58 972.268 380.779 961.72 375.969C1022.98 342.569 1082.73 312.67 1144.07 283.25Z" fill="black" stroke="white" stroke-width="5.5" stroke-linecap="square"/>
<path d="M1682.38 601.329C1677.86 622.329 1673.33 641.968 1669.42 661.731C1666.87 674.586 1670.34 677.357 1682.82 673.139C1690.33 670.604 1697.55 666.36 1705.79 668.037C1714.02 669.713 1717.9 665.377 1719.75 658.63C1727.48 630.499 1735.22 602.239 1735.83 572.899C1736.35 547.689 1722.8 535.329 1697.51 535.069C1656.15 534.649 1614.79 534.109 1573.44 533.249C1552.3 532.809 1537.23 546.379 1536.48 568.289C1535.83 587.509 1539.44 606.359 1543.96 624.909C1546.89 636.906 1547.72 649.981 1558.48 661.757C1560.79 658.43 1562.08 655.19 1564.45 653.408C1578.99 642.516 1584.92 644.368 1591.76 661.439C1593.3 665.277 1594.12 669.869 1599.98 669.472C1604.76 665.235 1601.28 660.669 1600.49 656.297C1597.04 636.99 1593.45 617.709 1590.04 598.399C1588.66 590.569 1589.99 583.469 1599.96 584.909C1622.79 588.209 1645.49 586.469 1668.2 584.469C1680.12 583.419 1685.24 587.959 1682.38 601.329Z" fill="#FF0000" stroke="white" stroke-width="5.5" stroke-linecap="square"/>
<path d="M549.441 1114.38C544.841 1125.84 540.071 1136 536.831 1146.62C532.751 1159.99 537.171 1171.02 549.901 1177.25C561.951 1183.15 575.131 1178.32 582.571 1165.76C585.791 1160.33 588.021 1154.26 590.331 1148.34C600.041 1123.42 612.821 1100.28 630.021 1079.72C641.989 1065.43 655.597 1052.88 670.109 1041.13C681.539 1031.88 683.824 1017.48 676.529 1007.02C668.012 994.818 656.179 995.068 643.816 999.541C635.691 1002.48 629.301 1008.25 623.011 1014C592.081 1042.25 566.821 1074.68 549.441 1114.38Z" fill="black" stroke="white" stroke-width="5.5" stroke-linecap="square"/>
<path d="M3041.04 1162.57C3030.08 1152.24 3022.52 1154.98 3016.65 1166.63C3014.03 1171.84 3011.05 1176.87 3008.33 1182.03C2974.48 1246.38 2940.29 1310.56 2898.84 1370.47C2880.72 1396.67 2880.19 1396.82 2901.71 1423.71C2906.39 1418.53 2911.27 1413.74 2915.46 1408.4C2963.9 1346.62 3000.37 1277.62 3034.92 1207.62C3041.42 1194.45 3047.39 1179.29 3041.04 1162.57Z" fill="black" stroke="white" stroke-width="5.5" stroke-linecap="square"/>
<path d="M1403.25 571.612C1413.15 576.942 1423.4 580.462 1421.5 595.392C1437.62 586.402 1447.41 573.702 1458.78 562.962C1477.48 545.312 1472.86 527.202 1448.43 518.922C1428.89 512.292 1408.41 508.812 1389.58 499.762C1362.86 486.932 1340.38 468.952 1320.27 447.392C1311.45 437.932 1300.84 431.362 1283.47 444.572C1287.65 446.012 1289.96 446.342 1291.73 447.492C1319.48 465.412 1342.69 486.982 1350.52 520.902C1353.28 532.842 1361.14 540.762 1372.64 543.692C1387.75 547.542 1399.72 553.842 1403.25 571.612Z" fill="black" stroke="white" stroke-width="5.5" stroke-linecap="square"/>
<path d="M2111.3 175.299C2111.3 175.299 2111.41 175.249 2110.8 176.159C2105.5 182.179 2102.95 187.829 2107.34 194.279C2112.24 201.469 2119.27 201.629 2127.21 200.349C2218.38 185.619 2309.6 171.179 2400.77 156.419C2410.21 154.889 2421.5 152.619 2419.47 139.529C2417.46 126.529 2406.11 129.529 2397.56 130.829C2363.98 135.919 2330.55 141.999 2296.95 146.979C2235.02 156.149 2173.72 169.379 2111.3 175.299Z" fill="black" stroke="white" stroke-width="5.5" stroke-linecap="square"/>
<path d="M900.413 135.808C888.619 133.708 878.257 131.318 867.759 130.058C860.704 129.208 855.106 132.718 853.896 140.208C852.793 147.048 856.954 151.288 863.057 153.268C868.07 154.908 873.284 156.048 878.489 156.948C901.474 160.908 924.462 164.878 947.497 168.538C1013.44 179.008 1079.41 189.328 1145.37 199.728C1154.98 201.238 1165.06 200.838 1166.91 189.478C1168.78 178.028 1158.28 176.358 1149.89 175.028C1067.2 161.918 984.491 148.978 900.413 135.808Z" fill="black" stroke="white" stroke-width="5.5" stroke-linecap="square"/>
<path d="M2069.06 485.739C2064.15 478.449 2059.67 471.079 2050.76 475.879C2040.86 481.219 2045.62 489.389 2048.7 496.729C2072.89 554.489 2100.27 610.759 2128.1 666.816C2130.85 672.352 2133.23 678.589 2140.88 680.717C2149.57 675.524 2148.25 668.441 2145.34 660.306C2124.01 600.769 2093.15 545.389 2069.06 485.739Z" fill="black" stroke="white" stroke-width="5.5" stroke-linecap="square"/>
<path d="M2292.86 245.389C2253.54 233.729 2215.4 222.549 2177.32 211.139C2169.49 208.789 2163.69 210.149 2160.39 217.989C2156.88 226.329 2161.53 231.199 2168.3 234.459C2173.04 236.749 2178.17 238.299 2183.21 239.889C2230.18 254.689 2278.89 263.959 2324.16 284.209C2331.71 287.579 2339.28 287.229 2343.18 278.799C2347.35 269.749 2340.94 264.559 2333.91 261.479C2320.84 255.759 2307.36 250.969 2292.86 245.389Z" fill="black" stroke="white" stroke-width="5.5" stroke-linecap="square"/>
<path d="M1053.94 224.561C1015.15 234.241 978.137 245.231 942.344 260.081C934.125 263.491 925.21 267.451 929.652 278.151C934.184 289.071 943.965 284.841 951.668 281.841C982.317 269.911 1013.81 260.711 1045.4 251.751C1062.72 246.841 1080.09 242.071 1097.2 236.531C1105.78 233.751 1115.85 229.501 1111.74 217.971C1107.93 207.291 1098.41 210.311 1089.99 213.131C1078.44 216.991 1066.78 220.511 1053.94 224.561Z" fill="black" stroke="white" stroke-width="5.5" stroke-linecap="square"/>
<path d="M584.737 1033.11C590.207 1018.21 587.827 1006.54 574.457 999.227C563.097 993.014 548.797 997.611 539.947 1010.73C533.157 1020.79 527.147 1031.56 522.207 1042.65C515.147 1058.51 519.257 1072.3 531.507 1078.66C544.417 1085.36 558.677 1080.02 567.387 1064.91C573.217 1054.82 578.647 1044.5 584.737 1033.11Z" fill="black" stroke="white" stroke-width="5.5" stroke-linecap="square"/>
<path d="M2195.31 457.902C2190.95 450.882 2184.67 449.932 2178.44 448.262C2136.78 437.122 2093.43 436.332 2051.42 427.322C2043.39 425.602 2035.9 427.252 2034.71 437.052C2033.6 446.252 2039.95 450.652 2047.88 452.112C2091.67 460.212 2136.21 463.352 2179.88 472.412C2189.01 474.312 2197.32 471.582 2195.31 457.902Z" fill="black" stroke="white" stroke-width="5.5" stroke-linecap="square"/>
<path d="M1630.7 501.689C1638.43 500.129 1645.8 499.259 1653.17 498.329C1660.14 497.459 1668.15 496.819 1667.89 487.449C1667.64 478.029 1659.97 475.579 1652.08 475.289C1642.01 474.909 1631.92 475.229 1621.83 475.279C1615.29 475.309 1609.09 476.019 1605.32 482.559C1601.13 489.819 1607.55 493.959 1612.67 499.869C1600.34 497.549 1587.39 492.169 1584.95 506.259C1582.43 520.739 1596.84 521.439 1606.94 523.029C1629.1 526.509 1651.34 526.589 1673.19 520.729C1680.63 518.729 1690.62 517.079 1687.67 505.889C1684.97 495.629 1676.12 496.949 1667.92 498.789C1655.55 501.579 1643.25 505.299 1630.7 501.689Z" fill="black" stroke="white" stroke-width="5.5" stroke-linecap="square"/>
<path d="M1774.98 648.644C1793.38 683.235 1805.15 719.798 1827 754.934C1827.97 747.289 1828.9 742.781 1829.02 738.251C1829.12 734.585 1828.38 730.872 1827.79 727.215C1820.33 680.682 1795.12 641.122 1777.1 598.749C1774.22 591.979 1768.22 586.849 1760.5 590.729C1752.07 594.979 1753.22 602.849 1756.62 610.179C1762.44 622.699 1768.49 635.109 1774.98 648.644Z" fill="black" stroke="white" stroke-width="5.5" stroke-linecap="square"/>
<path d="M1085.84 122.681C1083.12 121.751 1081.66 121.061 1080.12 120.681C1071.34 118.491 1060.8 114.462 1057.5 126.902C1054.45 138.392 1064.29 141.961 1073.32 144.851C1103.67 154.561 1133.95 164.501 1164.33 174.141C1172.09 176.601 1181.13 178.931 1184.72 168.751C1188.42 158.211 1180.66 153.181 1171.98 150.341C1143.72 141.111 1115.37 132.141 1085.84 122.681Z" fill="#960FFF" stroke="white" stroke-width="5.5" stroke-linecap="square"/>
<path d="M1230.43 271.031C1234.61 291.591 1240.14 310.331 1249.64 327.631C1252.95 333.661 1257.12 340.541 1265.55 336.621C1273.6 332.881 1274.59 325.411 1271.7 317.601C1269.69 312.151 1267.05 306.941 1264.73 301.611C1262.5 296.491 1258.43 291.741 1261.2 285.381C1267.35 284.971 1274.8 288.531 1278.13 280.531C1281.1 273.371 1276.17 268.911 1271.69 264.101C1266.49 258.511 1262.86 250.981 1252.98 254.021C1251.93 248.611 1251.5 244.38 1250.24 240.42C1247.74 232.56 1244.25 224.381 1233.97 227.221C1224.57 229.801 1223.18 237.831 1225.04 246.501C1226.71 254.251 1228.47 261.981 1230.43 271.031Z" fill="black" stroke="white" stroke-width="5.5" stroke-linecap="square"/>
<path d="M2111.46 175.211C2111.41 175.251 2111.3 175.301 2112.26 174.651C2142.74 164.011 2172.26 154.021 2201.76 143.991C2209.63 141.321 2217.55 137.911 2214.88 127.571C2211.88 115.961 2202.53 117.691 2194.19 120.091C2180.49 124.041 2167.01 128.731 2153.44 133.121C2136.34 138.641 2119.17 143.931 2102.19 149.791C2094.33 152.511 2084.37 155.231 2087.4 166.601C2090.19 177.061 2099.48 176.861 2108.34 175.491C2109.39 175.331 2110.45 175.281 2111.46 175.211Z" fill="#B708FF" stroke="white" stroke-width="5.5" stroke-linecap="square"/>
<path d="M2753.78 2803.81C2757.31 2780.53 2752.8 2755.93 2776.54 2741.15C2781.89 2737.82 2780.96 2730.46 2777.07 2725.29C2773.12 2720.05 2767.41 2719.13 2761.27 2721.13C2745.58 2726.23 2737.44 2738.1 2733.02 2753.11C2728.18 2769.54 2728.46 2786.68 2726.57 2803.49C2725.46 2813.34 2726.73 2824.47 2739.31 2825.3C2752.38 2826.17 2753.6 2815.35 2753.78 2803.81Z" fill="black" stroke="white" stroke-width="5.5" stroke-linecap="square"/>
<path d="M557.641 2806.79C548.301 2824.22 541.141 2841.28 536.461 2859.3C534.371 2867.31 536.071 2874.58 544.391 2877.73C553.101 2881.02 558.981 2876.06 561.661 2868.26C569.931 2844.11 580.311 2821.04 593.951 2799.42C597.991 2793.02 596.151 2786.94 590.711 2782.41C584.901 2777.58 578.811 2778.92 573.461 2783.64C566.571 2789.73 562.821 2798.06 557.641 2806.79Z" fill="black" stroke="white" stroke-width="5.5" stroke-linecap="square"/>
<path d="M1873.94 460.871C1866.11 464.431 1859.38 467.581 1852.57 470.541C1845.04 473.821 1836.54 477.331 1840.43 487.511C1844.01 496.881 1853.25 496.631 1860.96 493.861C1889.37 483.681 1913.87 467.111 1934.94 445.641C1940.53 439.951 1945.98 432.411 1938.05 424.871C1930.73 417.911 1924.31 423.651 1918.7 428.711C1905.26 440.831 1890.95 451.731 1873.94 460.871Z" fill="black" stroke="white" stroke-width="5.5" stroke-linecap="square"/>
<path d="M2600.6 2194.48C2609.68 2166.28 2606.51 2138.85 2603.11 2111.48C2602.18 2104.01 2597.94 2098.17 2589.64 2098.44C2580.49 2098.74 2576.66 2105.31 2576.6 2113.52C2576.41 2137.38 2576.15 2161.27 2577.07 2185.09C2577.62 2199.32 2586.34 2202.79 2600.6 2194.48Z" fill="black" stroke="white" stroke-width="5.5" stroke-linecap="square"/>
<path d="M1351.63 456.64C1365.88 468.77 1380.53 478.26 1396.05 486.37C1403.52 490.27 1411.02 494.5 1419.89 494.36C1425.79 494.27 1430.37 491.93 1431.71 485.87C1432.92 480.43 1429.97 476.34 1425.23 474.4C1397.01 462.88 1371.37 447.46 1349.45 426.03C1345.46 422.13 1339.91 420.76 1335.25 425.65C1330.86 430.26 1331.6 435.73 1335.22 440.11C1339.92 445.78 1345.51 450.7 1351.63 456.64Z" fill="black" stroke="white" stroke-width="5.5" stroke-linecap="square"/>
<path d="M2174.99 558.071C2186.37 551.621 2180.95 544.711 2175.76 539.751C2156.64 521.501 2137.03 503.74 2117.28 486.17C2112.13 481.6 2105.2 480.71 2099.89 485.8C2094.93 490.57 2096.1 497.431 2100.37 501.631C2122.54 523.431 2144.59 545.531 2174.99 558.071Z" fill="black" stroke="white" stroke-width="5.5" stroke-linecap="square"/>
<path d="M1503.69 590.998C1483.22 616.058 1473.59 645.19 1464.44 674.413C1462.53 680.534 1465.68 686.657 1473.88 689.396C1490.62 662.416 1504.28 634.458 1516.28 605.758C1520.11 596.618 1515.52 590.388 1503.69 590.998Z" fill="black" stroke="white" stroke-width="5.5" stroke-linecap="square"/>
<path d="M1825.05 612.081C1816.39 598.071 1808.38 585.061 1800.18 572.161C1795.97 565.551 1790.39 559.551 1782.13 564.371C1773.17 569.591 1775.48 578.001 1779.9 585.151C1788.22 598.591 1797.14 611.661 1805.83 624.871C1810.41 631.831 1816.2 638.791 1825 633.721C1834.45 628.281 1829.72 620.181 1825.05 612.081Z" fill="black" stroke="white" stroke-width="5.5" stroke-linecap="square"/>
<path d="M1456 633.93C1472.68 618.71 1482.38 599.78 1493.32 581.77C1496.46 576.59 1497.5 570.4 1491.25 566.24C1485.31 562.28 1479.68 564.26 1476.07 569.69C1465.27 585.98 1454.2 602.18 1444.7 619.23C1439.87 627.9 1443.36 634.79 1456 633.93Z" fill="black" stroke="white" stroke-width="5.5" stroke-linecap="square"/>
<path d="M1765.14 693.216C1761.7 673.804 1758.79 655.586 1755.19 637.503C1753.97 631.329 1749.56 627.149 1742.61 627.899C1737.01 628.509 1733.83 632.629 1734.39 637.812C1737.31 664.713 1738.04 692.701 1764.46 710.324C1768.6 704.603 1766.22 699.506 1765.14 693.216Z" fill="black" stroke="white" stroke-width="5.5" stroke-linecap="square"/>
<path d="M513.928 2844.31C536.398 2837.93 532.488 2816.69 539.368 2801.84C542.108 2795.95 539.678 2788.98 532.458 2786.06C524.638 2782.9 518.918 2786.6 515.108 2793.08C509.158 2803.21 505.368 2814.3 503.398 2825.84C502.038 2833.86 504.558 2840.55 513.928 2844.31Z" fill="black" stroke="white" stroke-width="5.5" stroke-linecap="square"/>
<path d="M2789.87 2805.57C2792.71 2797.51 2794.61 2790.51 2799.12 2784.34C2803.59 2778.23 2804.12 2771.16 2797.6 2766C2790.74 2760.58 2783.51 2762.4 2777.55 2767.95C2769.5 2775.45 2765.53 2785.13 2765.06 2796.06C2764.77 2802.68 2766.5 2808.79 2773.06 2811.98C2780 2815.37 2785.19 2812.45 2789.87 2805.57Z" fill="black" stroke="white" stroke-width="5.5" stroke-linecap="square"/>
<path d="M1860.35 430.88C1855.56 433.36 1851.58 434.94 1848.19 437.35C1843.24 440.87 1839.3 445.48 1842.77 451.99C1845.87 457.83 1851.98 459.98 1857.65 458.22C1869.71 454.48 1880.96 448.52 1890.61 440.3C1894.59 436.9 1896.91 431.57 1893.52 426.09C1889.85 420.16 1884.4 419.38 1878.42 422.06C1872.67 424.63 1867.08 427.57 1860.35 430.88Z" fill="black" stroke="white" stroke-width="5.5" stroke-linecap="square"/>
<path d="M1384.89 442.358C1393.85 449.288 1402.81 453.888 1412.59 456.148C1418.42 457.488 1426.02 459.458 1429.11 451.618C1432.16 443.908 1427.61 438.538 1420.97 434.988C1414.02 431.288 1406.88 427.928 1399.91 424.248C1393.68 420.958 1387.17 417.408 1381.17 423.678C1374.82 430.328 1379.14 436.198 1384.89 442.358Z" fill="black" stroke="white" stroke-width="5.5" stroke-linecap="square"/>
<path d="M2623.61 2115.13C2619.1 2125.49 2620.66 2135.09 2621.76 2144.49C2622.64 2151.98 2626.87 2157.73 2635.21 2157.55C2643.53 2157.37 2647.4 2151.58 2648 2143.94C2648.49 2137.62 2648.65 2131.12 2647.77 2124.87C2645.76 2110.59 2638.24 2107.32 2623.61 2115.13Z" fill="black" stroke="white" stroke-width="5.5" stroke-linecap="square"/>
<path d="M1101.42 343.38C1108.03 337.42 1119 333.09 1109.48 323.42C1104.73 318.61 1098.82 324.17 1093.89 326.85C1089.37 329.32 1086.4 332.95 1087.79 338.3C1089.53 345 1094.67 345.22 1101.42 343.38Z" fill="#FF0000" stroke="white" stroke-width="5.5" stroke-linecap="square"/>
<path d="M1529.48 653.989C1534.72 649.181 1536.36 643.701 1536.81 637.851C1537.11 633.821 1535.32 630.621 1531.43 629.161C1528.17 627.931 1525.24 629.071 1522.83 631.461C1515.59 638.617 1518.3 649.536 1529.48 653.989Z" fill="black" stroke="white" stroke-width="5.5" stroke-linecap="square"/>
<path d="M1765.26 3173.2C1766.29 3169.43 1767.11 3166.83 1767.11 3164.22C1767.24 3105.83 1767.18 3047.44 1767.44 2989.05C1767.48 2979.4 1762.94 2973.61 1755.44 2968.25C1722.21 2944.49 1689.04 2920.62 1656.42 2896.02C1645.78 2888 1637.55 2887.91 1629.05 2897.94C1625.63 2901.99 1621.92 2905.81 1618.6 2909.93C1601.74 2930.81 1601.96 2930.98 1622.73 2948.62C1634.27 2958.42 1648.86 2964.46 1658.91 2976.98C1650.03 2985.04 1639.26 2986.9 1629.39 2989.9C1616.59 2993.79 1612.42 3000.83 1612.62 3014.14C1613.38 3064.56 1613.2 3115 1612.85 3165.42C1612.77 3176.37 1616.07 3183.56 1626.61 3187.65C1644.4 3194.56 1661.9 3202.2 1679.63 3209.28C1684.5 3211.22 1690.01 3213.99 1695.05 3211.7C1719.05 3200.78 1744.72 3192.88 1765.26 3173.2ZM1693.66 3152.27C1679.86 3148.97 1675.1 3142.41 1675.3 3130.05C1675.88 3093.5 1675.42 3056.93 1675.15 3020.37C1675.08 3010.36 1675.36 2998.79 1687.4 2998.2C1699.67 2997.61 1702.91 3008.03 1702.89 3019.49C1702.82 3058.69 1703.44 3097.91 1703.24 3137.11C1703.2 3143.24 1706.89 3153.65 1693.66 3152.27Z" stroke="#0E00FF" stroke-width="5.5" stroke-linecap="square"/>
<path d="M1915.09 2980.86C1848.83 2951.25 1867.1 2949.15 1802.97 2981.45C1800.12 2982.88 1797.33 2984.49 1794.36 2985.61C1785.18 2989.08 1781.89 2995.5 1781.95 3005.34C1782.28 3059.54 1782.31 3113.75 1781.95 3167.95C1781.88 3178.2 1785.8 3183.63 1795.36 3186.43C1817.79 3192.97 1839.96 3200.38 1862.47 3206.61C1900.5 3217.14 1903.73 3215.12 1922.47 3180.84C1929.21 3168.51 1925.42 3163.82 1913.29 3160.98C1897.27 3157.23 1881.37 3152.94 1865.53 3148.46C1857.73 3146.24 1847.54 3146.09 1847.38 3134.25C1847.23 3123.04 1857.07 3121.33 1864.5 3118C1882.42 3109.95 1900.65 3102.59 1917.72 3092.72C1925.69 3088.1 1930.61 3082.24 1930.5 3072.44C1930.26 3049.6 1930.46 3026.75 1930.45 3003.9C1930.44 2993.42 1926.68 2985.26 1915.09 2980.86ZM1853.37 3089.34C1847.25 3089.3 1844.81 3087.2 1844.79 3083.61C1844.64 3060.98 1844.71 3038.35 1844.71 3014.94C1859.28 3014.58 1866.48 3020.76 1867.27 3033.13C1868.12 3046.32 1867.73 3059.6 1867.81 3072.84C1867.86 3082.54 1861.5 3086.74 1853.37 3089.34Z" stroke="#FF1919" stroke-width="5.5" stroke-linecap="square"/>
<path d="M1488.73 3024.79C1481.64 3004.59 1475.39 2985.41 1468.25 2966.58C1462.73 2952.05 1458.67 2951.67 1447.09 2962.74C1439.15 2970.32 1433.97 2980.73 1423.77 2986.1C1413.45 2971.21 1405.1 2966.66 1379.63 2961.86C1365.36 2959.17 1337.97 2991.28 1343.04 3005.01C1343.88 3007.29 1345.97 3009.88 1348.13 3010.77C1358.29 3014.94 1357.77 3023.38 1357.75 3032.07C1357.65 3077.72 1358.13 3123.38 1357.5 3169.03C1357.33 3181.78 1362.31 3188.58 1373.69 3192.84C1397.67 3201.81 1422.98 3205.49 1447.51 3212.22C1453.23 3213.78 1458.04 3211.48 1461.58 3206.97C1468.13 3198.65 1475.24 3190.64 1480.72 3181.65C1490.35 3165.86 1488.54 3162 1471.09 3157.38C1458.78 3154.12 1446.44 3150.96 1434.01 3148.22C1425.91 3146.44 1422.85 3141.78 1422.36 3133.71C1420.72 3107.21 1419.71 3080.7 1420.71 3054.15C1420.97 3047.14 1421.54 3040.04 1426.08 3032.17C1434.47 3048.37 1436.18 3064.49 1441.73 3079.31C1444.05 3085.5 1446.22 3091.24 1455.24 3088.46C1482.18 3080.14 1497.33 3052.62 1488.73 3024.79Z" fill="#75FF00" stroke="#FF00E0" stroke-width="5.5" stroke-linecap="square"/>
<path d="M1565.79 3212.72C1579.42 3209.09 1599.76 3185 1600.55 3173.53C1600.84 3169.27 1599.36 3165.85 1595.85 3164.22C1584.83 3159.1 1585.39 3149.47 1585.39 3139.77C1585.39 3093.56 1585.34 3047.35 1585.15 3001.14C1585.11 2993.3 1586.47 2983.77 1578.62 2979.35C1565.71 2972.1 1551.91 2966.34 1536.89 2964.47C1532.26 2963.9 1528.42 2965.01 1525.8 2969C1520.27 2977.42 1514.32 2985.62 1509.55 2994.46C1506.09 3000.86 1506.05 3008.32 1512.01 3013.57C1522.35 3022.7 1524 3034.71 1523.19 3046.99C1520.74 3084.09 1520.41 3121.22 1520.62 3158.38C1520.86 3201.92 1520.71 3201.92 1565.79 3212.72Z" fill="#FFFE0A" stroke="#EB0000" stroke-width="5.5" stroke-linecap="square"/>
<path d="M1570.74 2903.99C1531.03 2888.85 1532.26 2887.8 1521.17 2930.5C1521.03 2931.01 1521.05 2931.55 1520.95 2932.07C1519.47 2939.41 1521.86 2944.35 1529.41 2946.56C1534.49 2948.04 1539.42 2950.02 1544.4 2951.81C1573.3 2962.2 1577.13 2959.95 1586.31 2931.05C1590.99 2916.3 1587.66 2907.39 1570.74 2903.99Z" fill="black" stroke="white" stroke-width="5.5" stroke-linecap="square"/>
<path d="M1556.36 259.482C1557.65 279.532 1564.83 289.282 1580.59 290.312C1616.6 292.662 1652.71 292.492 1688.68 289.902C1706.9 288.592 1716.62 277.702 1716.27 262.952C1715.94 249.072 1704.12 238.902 1686.26 238.672C1652.83 238.252 1619.39 238.462 1585.95 238.582C1571.96 238.632 1561.15 243.852 1556.36 259.482Z" fill="black" stroke="white" stroke-width="5.5" stroke-linecap="square"/>
<path d="M1865.89 283.489C1871.83 294.129 1879 291.539 1884.42 285.519C1911.91 254.999 1923.39 218.359 1923.8 177.849C1923.84 173.419 1921.68 169.509 1916.57 168.769C1911.81 168.079 1907.97 170.308 1906.18 174.428C1904.55 178.178 1903.74 182.479 1903.44 186.599C1901.17 216.949 1891.66 244.489 1872.42 268.369C1869.1 272.499 1865.36 276.399 1865.89 283.489Z" fill="black" stroke="white" stroke-width="5.5" stroke-linecap="square"/>
<path d="M1848.4 317.121C1849.44 308.331 1845.81 304.461 1838.65 307.971C1832.58 310.941 1826.23 316.731 1830.23 324.101C1833.58 330.271 1839.43 325.561 1843.7 322.701C1845.37 321.571 1846.54 319.691 1848.4 317.121Z" fill="black" stroke="white" stroke-width="5.5" stroke-linecap="square"/>
<path d="M2978.91 271.96C2981.65 278.33 2985.51 279.16 2988.23 273.99C2992.71 265.44 2999.73 260.181 3009.95 256.781C2993.85 249.261 2983.52 254.62 2978.91 271.96Z" fill="#FF0000" stroke="#0B00F8" stroke-width="5.5" stroke-linecap="square"/>
<path d="M2166.67 3166.34C2157.02 3152.28 2148.17 3139.03 2139.12 3125.92C2135.97 3121.35 2133.13 3113.63 2126.14 3117.49C2118.15 3121.89 2123.52 3128.79 2126.37 3134.09C2136.48 3152.89 2149.99 3169.39 2162.73 3186.39C2188.66 3220.99 2224.68 3236.94 2266.45 3241.82C2272.78 3242.56 2282.32 3245.26 2283.01 3235.21C2283.58 3226.85 2274.71 3227.28 2268.52 3226.44C2226.56 3220.78 2191.36 3203.6 2166.67 3166.34Z" fill="black" stroke="white" stroke-width="5.5" stroke-linecap="square"/>
<path d="M2097.64 3082.22C2103.43 3088.68 2103.35 3103.86 2113.79 3098.53C2124.92 3092.86 2113.43 3083.33 2111.26 3075.55C2111.12 3075.06 2110.78 3074.62 2110.48 3074.19C2107 3069.33 2104.64 3060.68 2096.83 3064.79C2088.81 3069.01 2094.81 3075.65 2097.64 3082.22Z" fill="black" stroke="white" stroke-width="5.5" stroke-linecap="square"/>
<path d="M2181.86 36.0106C2186.71 30.7006 2188.28 26.0706 2182.22 22.1206C2175.89 18.0006 2170.16 20.5806 2165.08 24.7906C2161.34 27.8906 2160.87 32.1406 2163.58 36.0006C2168.87 43.5306 2174.98 41.4506 2181.86 36.0106Z" fill="black" stroke="white" stroke-width="5.5" stroke-linecap="square"/>
<path d="M1113.1 34.7786C1113.06 34.8486 1112.98 34.9586 1112.83 33.7886C1111.99 28.8986 1110.81 25.2986 1107.65 23.0286C1101.81 18.8386 1095.28 15.5585 1089.13 21.6685C1084.62 26.1585 1084.24 32.2886 1088.24 37.6086C1093 43.9386 1099.25 45.7086 1106.22 41.1586C1108.82 39.4686 1110.85 36.8886 1113.1 34.7786Z" fill="black" stroke="white" stroke-width="5.5" stroke-linecap="square"/>
<path d="M2516.67 3235.88C2525.14 3231.8 2523.75 3226.57 2519.16 3221.76C2516.66 3219.14 2512.87 3220.11 2510.95 3223C2506.9 3229.08 2507.89 3233.88 2516.67 3235.88Z" fill="black" stroke="white" stroke-width="5.5" stroke-linecap="square"/>
<path d="M2203.29 1148.83C2216.22 1164.37 2228.21 1179.23 2240.53 1193.82C2248.51 1203.29 2258.4 1208.21 2269.73 1200.1C2281.61 1191.6 2277.85 1180.79 2271.79 1170.49C2269.92 1167.31 2267.52 1164.42 2265.24 1161.49C2199.11 1076.85 2115.57 1014.92 2017.41 972.307C1994.56 962.386 1971.19 953.581 1947.78 945.036C1935.9 940.701 1924.9 943.625 1920.15 956.307C1915.29 969.303 1922.81 977.532 1934.19 982.596C1940.48 985.395 1947.02 987.633 1953.53 989.924C2048.69 1023.46 2132.15 1075.43 2203.29 1148.83Z" fill="black" stroke="white" stroke-width="5.5" stroke-linecap="square"/>
<path d="M747.751 2209.69C741.014 2201.22 733.691 2198.29 724.468 2202.08C715.041 2205.96 713.564 2213.86 713.187 2222.94C711.214 2270.5 717.056 2317.28 726.658 2363.71C735.811 2407.96 755.41 2444.5 799.122 2464.06C818.041 2472.52 831.13 2471.61 836.9 2459.41C842.316 2447.95 836.45 2437.81 817.044 2428.9C790.4 2416.67 774.934 2396.69 768.128 2368.17C758.466 2327.7 752.379 2286.96 752.933 2245.3C753.088 2233.59 753.108 2221.88 747.751 2209.69Z" fill="black" stroke="white" stroke-width="5.5" stroke-linecap="square"/>
<path d="M1043.2 2469.42C1029.14 2490.46 1028.54 2510.62 1040.73 2528.12C1051.77 2543.98 1071.64 2551.91 1089.46 2547.56C1110.87 2542.34 1126.18 2525.51 1128.68 2504.46C1130.76 2486.88 1118.93 2466.22 1101.76 2457.47C1081.21 2446.99 1063.31 2450.4 1043.2 2469.42ZM1077.17 2476.21C1091.84 2476.96 1099.38 2483.09 1100.13 2495.67C1100.78 2506.59 1094.88 2513.66 1084.92 2517.16C1075.49 2520.47 1068.33 2515.88 1062.99 2508.74C1053.95 2496.64 1060.09 2482.97 1077.17 2476.21Z" stroke="white" stroke-width="5.5" stroke-linecap="square"/>
<path d="M2308.26 1227.9C2298.56 1222.92 2290.48 1223.83 2284.2 1231.26C2277.98 1238.63 2278.11 1247.48 2283.2 1255.04C2293.59 1270.46 2303.14 1286.24 2311.42 1302.94C2315.65 1311.48 2324 1316.51 2334.12 1312.06C2344.71 1307.4 2349.57 1298.83 2345.57 1287.42C2337.77 1265.22 2327.5 1244.37 2308.26 1227.9Z" fill="black" stroke="white" stroke-width="5.5" stroke-linecap="square"/>
<path d="M875.108 2460.05C864.679 2463.39 857.292 2468.89 858.247 2479.39C859.44 2492.48 868.417 2498.26 881.061 2498.89C892.118 2499.43 901.433 2496.65 903.698 2484.28C906.055 2471.4 898.491 2464.63 887.183 2461.25C883.722 2460.22 879.939 2460.26 875.108 2460.05Z" fill="black" stroke="white" stroke-width="5.5" stroke-linecap="square"/>
<path d="M2024.32 2562.05C2043.4 2578.43 2059.72 2581.08 2077.57 2571.46C2093.18 2563.04 2103.88 2544.11 2102.02 2528.19C2099.83 2509.49 2086.83 2493.88 2069.29 2488.87C2051.65 2483.82 2032.03 2490.49 2021.03 2505.27C2008.64 2521.92 2009.44 2539.81 2024.32 2562.05Z" fill="black" stroke="white" stroke-width="5.5" stroke-linecap="square"/>
<path d="M2013.54 2485.74C2014.61 2471.17 2006.67 2470.01 1997.91 2475.61C1982.65 2485.35 1975.53 2500.66 1974.45 2518.51C1974.11 2524.1 1976.77 2529.14 1983.28 2529.77C1989.85 2530.41 1993.34 2526.05 1993.79 2520.31C1994.91 2505.92 2003.4 2496.08 2013.54 2485.74Z" fill="black" stroke="white" stroke-width="5.5" stroke-linecap="square"/>
<path d="M2113.95 2518.24C2121.9 2521.4 2126.41 2518.86 2127.76 2511.83C2128.94 2505.62 2126.17 2500.52 2121.24 2496.73C2117.48 2493.83 2113.26 2493.37 2109.71 2496.66C2104.44 2501.55 2106.25 2507.14 2109.27 2512.46C2110.3 2514.26 2111.72 2515.84 2113.95 2518.24Z" fill="black" stroke="white" stroke-width="5.5" stroke-linecap="square"/>
<path d="M2470.82 1598.38C2493.89 1593.57 2506.85 1579.95 2509.66 1558.23C2511.8 1541.69 2504.22 1528.15 2490.88 1518.49C2475.75 1507.53 2454.67 1508.01 2440.14 1518.8C2424.35 1530.52 2417.96 1549.96 2423.88 1568.22C2429.97 1586.96 2446.39 1597.86 2470.82 1598.38Z" fill="black" stroke="white" stroke-width="5.5" stroke-linecap="square"/>
<path d="M1548.07 1516.74C1525.05 1501.26 1503.82 1502 1488.06 1517.99C1473.81 1532.46 1471.34 1557.15 1482.5 1573.67C1496.89 1594.95 1525 1599.74 1545.23 1584.35C1567.15 1567.68 1568.6 1541.63 1548.07 1516.74Z" fill="black" stroke="white" stroke-width="5.5" stroke-linecap="square"/>
<path d="M2069.64 1504.35C2048.66 1498.18 2032.51 1504.33 2020.76 1520.36C2009.81 1535.31 2008.61 1551.91 2018.38 1568.18C2028.09 1584.36 2042.89 1591.18 2061.53 1589.05C2080.52 1586.87 2095.9 1571.81 2099.02 1553C2102.41 1532.6 2092.9 1516.29 2069.64 1504.35Z" fill="black" stroke="white" stroke-width="5.5" stroke-linecap="square"/>
<path d="M1545.41 1447.27C1551.61 1446.69 1556.38 1446.39 1561.13 1445.88C1567.34 1445.21 1575.66 1445.74 1574.86 1436.74C1574.2 1429.35 1566.56 1429.63 1560.78 1429.83C1548.57 1430.25 1536.31 1430.47 1524.21 1431.95C1508.99 1433.82 1493.74 1435.37 1479 1440.63C1439.49 1454.72 1427.93 1495.08 1434.3 1528.97C1435.33 1534.41 1437.4 1539.86 1444.46 1538.53C1450.72 1537.35 1450.48 1532.3 1449.8 1527.18C1449.18 1522.46 1448.95 1517.65 1448.94 1512.89C1448.86 1479.89 1464.53 1460.22 1496.52 1452.47C1512.15 1448.68 1528.1 1448.65 1545.41 1447.27Z" fill="black" stroke="white" stroke-width="5.5" stroke-linecap="square"/>
<path d="M2384.75 1454.75C2390.25 1464.05 2411.64 1469.53 2419.11 1464.48C2424.99 1460.5 2425.05 1453.85 2419.04 1452.22C2407.98 1449.2 2395.83 1443.19 2384.75 1454.75Z" fill="black" stroke="white" stroke-width="5.5" stroke-linecap="square"/>
<path d="M1602.78 1442.54C1613.13 1441.34 1623.64 1445.92 1630.52 1436.41C1632.05 1434.3 1631.02 1430.97 1628.76 1429.25C1620.04 1422.58 1610.57 1426.06 1601.29 1427.67C1597.41 1428.34 1593.87 1430.16 1593.52 1434.43C1593.08 1439.7 1596.81 1441.74 1602.78 1442.54Z" fill="black" stroke="white" stroke-width="5.5" stroke-linecap="square"/>
<path d="M2392.64 1825.36C2405.63 1823.77 2417.24 1822.51 2428.76 1820.67C2433.84 1819.86 2440.33 1819.03 2439.86 1811.82C2439.41 1804.69 2433.13 1803.99 2427.85 1804.51C2407.27 1806.54 2386.72 1808.97 2366.19 1811.51C2361.78 1812.06 2357.58 1814.47 2357.62 1819.46C2357.66 1825.36 2362.38 1827.77 2367.47 1827.63C2375.4 1827.41 2383.31 1826.23 2392.64 1825.36Z" fill="black" stroke="white" stroke-width="5.5" stroke-linecap="square"/>
<path d="M1708.61 1741.44C1706.52 1740.52 1705.55 1740.12 1704.59 1739.69C1698.7 1737.07 1691.2 1736.15 1691.36 1744.09C1691.62 1756.86 1704.53 1757.17 1713.31 1760.64C1718.05 1762.51 1723.05 1760.55 1723.79 1754.52C1724.05 1752.4 1722.52 1749.21 1720.76 1747.87C1717.49 1745.37 1713.45 1743.87 1708.61 1741.44Z" fill="black" stroke="white" stroke-width="5.5" stroke-linecap="square"/>
<path d="M2614.33 3023.67C2613.8 3057.56 2615.78 3090.35 2595.18 3118.57C2592.54 3122.19 2591.2 3126.62 2595.38 3130C2600.51 3134.14 2604.35 3130.24 2607.64 3126.8C2618.35 3115.63 2623.44 3101.62 2625.72 3086.78C2632.21 3044.57 2628.22 3002.03 2628.95 2959.63C2629.03 2954.77 2627.75 2949.42 2621.39 2949.48C2614.69 2949.55 2614.58 2955.23 2614.54 2959.97C2614.35 2980.68 2614.38 3001.38 2614.33 3023.67Z" fill="black" stroke="white" stroke-width="5.5" stroke-linecap="square"/>
<path d="M2608.06 2644.54C2608.04 2656.68 2607.92 2667.31 2608.11 2677.93C2608.21 2683.35 2608.67 2689.55 2616.13 2689.08C2622.46 2688.68 2622.51 2682.91 2622.6 2678.11C2622.85 2665.89 2622.1 2653.6 2623.25 2641.48C2624.9 2624.05 2626.05 2605.85 2647.01 2598.67C2651.67 2597.07 2655.61 2593.18 2653.24 2587.53C2650.48 2580.94 2645.12 2582.28 2639.75 2584.32C2612.24 2594.77 2609.17 2618.34 2608.06 2644.54Z" fill="black" stroke="white" stroke-width="5.5" stroke-linecap="square"/>
<path d="M2608.8 2708.91C2608.84 2715.62 2609.49 2721.59 2617.17 2718.82C2622.43 2716.92 2623.07 2711.48 2620.38 2707.03C2616.66 2700.87 2612.41 2701.07 2608.8 2708.91Z" fill="black" stroke="white" stroke-width="5.5" stroke-linecap="square"/>
<path d="M2573.99 3141.23C2578.46 3149.36 2583.29 3148.59 2587.98 3143C2590.33 3140.2 2590.01 3136.64 2586.99 3134.68C2580.4 3130.39 2576.21 3133.31 2573.99 3141.23Z" fill="black" stroke="white" stroke-width="5.5" stroke-linecap="square"/>
<path d="M1095.15 1009.89C1097.83 1020.83 1100.44 1030.53 1102.22 1040.37C1103.7 1048.56 1107.06 1055.06 1116.1 1054.51C1125.8 1053.91 1130 1046.4 1129.17 1037.79C1126.92 1014.49 1121.28 992.012 1107.91 972.267C1103.26 965.4 1096.19 962.384 1088.6 966.4C1080.5 970.688 1080.92 978.134 1084.36 985.673C1087.86 993.332 1091.27 1001.03 1095.15 1009.89Z" fill="black" stroke="white" stroke-width="5.5" stroke-linecap="square"/>
<path d="M1118.28 1069.26C1114.52 1068.85 1111.5 1068.12 1109.41 1069.2C1100.2 1073.95 1097.74 1081.53 1103.29 1090.27C1107.59 1097.03 1115.16 1099.12 1121.09 1093.7C1129.5 1085.99 1129.45 1077.1 1118.28 1069.26Z" fill="black" stroke="white" stroke-width="5.5" stroke-linecap="square"/>
<path d="M2156.02 331.55C2157.12 337.02 2159.42 340.57 2163.23 342.71C2170.43 346.74 2178.23 349.35 2185.14 342.94C2190.09 338.34 2189.24 332.19 2184.87 327.35C2178.77 320.58 2171.38 317.26 2162.34 321.75C2158.84 323.49 2156.89 326.56 2156.02 331.55Z" fill="black" stroke="white" stroke-width="5.5" stroke-linecap="square"/>
<path d="M1961.42 617.26C1964.75 622.65 1968.22 626.25 1973.22 621.6C1976.4 618.66 1977.56 614.36 1976.25 609.95C1975.07 605.96 1972.29 603.56 1968.04 604.24C1961.17 605.33 1960.29 610.33 1961.42 617.26Z" fill="black" stroke="white" stroke-width="5.5" stroke-linecap="square"/>
</svg>
